Bosa-Regular.ufo
<glyph name="NULL" format="2">
  <advance width="548"/>
  <unicode hex="0000"/>
  <outline>
    <contour>
      <point x="424" y="267" type="curve" smooth="yes"/>
      <point x="424" y="351"/>
      <point x="379" y="460"/>
      <point x="280" y="460" type="curve" smooth="yes"/>
      <point x="181" y="460"/>
      <point x="134" y="353"/>
      <point x="134" y="268" type="curve" smooth="yes"/>
      <point x="134" y="181"/>
      <point x="175" y="69"/>
      <point x="279" y="69" type="curve" smooth="yes"/>
      <point x="313" y="69"/>
      <point x="342" y="81"/>
      <point x="366" y="105" type="curve"/>
      <point x="278" y="198" type="line"/>
      <point x="326" y="255" type="line"/>
      <point x="407" y="171" type="line"/>
      <point x="418" y="202"/>
      <point x="424" y="234"/>
    </contour>
    <contour>
      <point x="465" y="109" type="curve"/>
      <point x="531" y="40" type="line"/>
      <point x="483" y="-16" type="line"/>
      <point x="420" y="49" type="line"/>
      <point x="381" y="10"/>
      <point x="334" y="-9"/>
      <point x="279" y="-9" type="curve" smooth="yes"/>
      <point x="137" y="-9"/>
      <point x="54" y="130"/>
      <point x="54" y="259" type="curve" smooth="yes"/>
      <point x="54" y="392"/>
      <point x="132" y="537"/>
      <point x="280" y="537" type="curve" smooth="yes"/>
      <point x="424" y="537"/>
      <point x="503" y="389"/>
      <point x="503" y="261" type="curve" smooth="yes"/>
      <point x="503" y="207"/>
      <point x="490" y="156"/>
    </contour>
  </outline>
</glyph>
<glyph name="CR" format="2">
  <advance width="457"/>
  <unicode hex="000D"/>
  <outline>
    <contour>
      <point x="280" y="45" type="curve" smooth="yes"/>
      <point x="280" y="17"/>
      <point x="254" y="-6"/>
      <point x="227" y="-6" type="curve" smooth="yes"/>
      <point x="200" y="-6"/>
      <point x="175" y="18"/>
      <point x="175" y="45" type="curve" smooth="yes"/>
      <point x="175" y="72"/>
      <point x="200" y="97"/>
      <point x="227" y="97" type="curve" smooth="yes"/>
      <point x="254" y="97"/>
      <point x="280" y="73"/>
    </contour>
    <contour>
      <point x="395" y="428" type="curve" smooth="yes"/>
      <point x="395" y="262"/>
      <point x="265" y="319"/>
      <point x="261" y="165" type="curve"/>
      <point x="191" y="165" type="line"/>
      <point x="190" y="173"/>
      <point x="190" y="181"/>
      <point x="190" y="189" type="curve" smooth="yes"/>
      <point x="190" y="306"/>
      <point x="321" y="333"/>
      <point x="321" y="425" type="curve" smooth="yes"/>
      <point x="321" y="473"/>
      <point x="274" y="508"/>
      <point x="229" y="508" type="curve" smooth="yes"/>
      <point x="169" y="508"/>
      <point x="142" y="457"/>
      <point x="134" y="405" type="curve"/>
      <point x="60" y="414" type="line"/>
      <point x="73" y="507"/>
      <point x="129" y="573"/>
      <point x="228" y="573" type="curve" smooth="yes"/>
      <point x="311" y="573"/>
      <point x="395" y="516"/>
    </contour>
  </outline>
</glyph>
<glyph name="dollar" format="2">
  <advance width="410"/>
  <unicode hex="0024"/>
  <outline>
    <contour>
      <point x="312" y="132" type="curve" smooth="yes"/>
      <point x="312" y="189"/>
      <point x="279" y="212"/>
      <point x="230" y="231" type="curve"/>
      <point x="230" y="32" type="line"/>
      <point x="285" y="43"/>
      <point x="312" y="77"/>
    </contour>
    <contour>
      <point x="188" y="338" type="curve"/>
      <point x="188" y="502" type="line"/>
      <point x="145" y="495"/>
      <point x="115" y="471"/>
      <point x="115" y="427" type="curve" smooth="yes"/>
      <point x="115" y="376"/>
      <point x="144" y="357"/>
    </contour>
    <contour>
      <point x="390" y="155" type="curve" smooth="yes"/>
      <point x="390" y="55"/>
      <point x="325" y="-1"/>
      <point x="230" y="-10" type="curve"/>
      <point x="230" y="-66" type="line"/>
      <point x="188" y="-66" type="line"/>
      <point x="188" y="-12" type="line"/>
      <point x="142" y="-9"/>
      <point x="73" y="-2"/>
      <point x="30" y="17" type="curve"/>
      <point x="15" y="40"/>
      <point x="15" y="62"/>
      <point x="19" y="78" type="curve" smooth="yes"/>
      <point x="22" y="87"/>
      <point x="25" y="96"/>
      <point x="30" y="104" type="curve"/>
      <point x="66" y="104" type="line"/>
      <point x="80" y="74" type="line"/>
      <point x="99" y="49"/>
      <point x="153" y="33"/>
      <point x="188" y="30" type="curve"/>
      <point x="188" y="247" type="line"/>
      <point x="108" y="274"/>
      <point x="37" y="304"/>
      <point x="37" y="406" type="curve" smooth="yes"/>
      <point x="37" y="494"/>
      <point x="110" y="539"/>
      <point x="188" y="547" type="curve"/>
      <point x="188" y="599" type="line"/>
      <point x="230" y="599" type="line"/>
      <point x="230" y="548" type="line"/>
      <point x="270" y="546"/>
      <point x="311" y="540"/>
      <point x="353" y="530" type="curve"/>
      <point x="372" y="509"/>
      <point x="370" y="489"/>
      <point x="366" y="474" type="curve" smooth="yes"/>
      <point x="363" y="465"/>
      <point x="359" y="457"/>
      <point x="353" y="449" type="curve"/>
      <point x="318" y="449" type="line"/>
      <point x="306" y="477" type="line"/>
      <point x="287" y="493"/>
      <point x="257" y="501"/>
      <point x="230" y="504" type="curve"/>
      <point x="230" y="322" type="line"/>
      <point x="315" y="290"/>
      <point x="390" y="263"/>
    </contour>
  </outline>
</glyph>
<glyph name="percent" format="2">
  <advance width="683"/>
  <unicode hex="0025"/>
  <outline>
    <contour>
      <point x="221" y="398" type="curve" smooth="yes"/>
      <point x="221" y="449"/>
      <point x="215" y="511"/>
      <point x="157" y="511" type="curve" smooth="yes"/>
      <point x="98" y="511"/>
      <point x="95" y="449"/>
      <point x="95" y="398" type="curve" smooth="yes"/>
      <point x="95" y="348"/>
      <point x="98" y="284"/>
      <point x="157" y="284" type="curve" smooth="yes"/>
      <point x="215" y="284"/>
      <point x="221" y="348"/>
    </contour>
    <contour>
      <point x="588" y="139" type="curve" smooth="yes"/>
      <point x="588" y="190"/>
      <point x="582" y="251"/>
      <point x="523" y="251" type="curve" smooth="yes"/>
      <point x="465" y="251"/>
      <point x="462" y="189"/>
      <point x="462" y="139" type="curve" smooth="yes"/>
      <point x="462" y="89"/>
      <point x="465" y="24"/>
      <point x="523" y="24" type="curve" smooth="yes"/>
      <point x="582" y="24"/>
      <point x="588" y="88"/>
    </contour>
    <contour>
      <point x="294" y="398" type="curve" smooth="yes"/>
      <point x="294" y="307"/>
      <point x="254" y="244"/>
      <point x="157" y="244" type="curve" smooth="yes"/>
      <point x="58" y="244"/>
      <point x="23" y="310"/>
      <point x="23" y="398" type="curve" smooth="yes"/>
      <point x="23" y="489"/>
      <point x="61" y="550"/>
      <point x="159" y="550" type="curve" smooth="yes"/>
      <point x="256" y="550"/>
      <point x="294" y="487"/>
    </contour>
    <contour>
      <point x="509" y="550" type="line"/>
      <point x="566" y="550" type="line"/>
      <point x="179" y="-12" type="line"/>
      <point x="123" y="-12" type="line"/>
    </contour>
    <contour>
      <point x="660" y="139" type="curve" smooth="yes"/>
      <point x="660" y="48"/>
      <point x="623" y="-15"/>
      <point x="523" y="-15" type="curve" smooth="yes"/>
      <point x="424" y="-15"/>
      <point x="389" y="50"/>
      <point x="389" y="139" type="curve" smooth="yes"/>
      <point x="389" y="228"/>
      <point x="427" y="290"/>
      <point x="526" y="290" type="curve" smooth="yes"/>
      <point x="622" y="290"/>
      <point x="660" y="227"/>
    </contour>
  </outline>
</glyph>
<glyph name="ampersand" format="2">
  <advance width="638"/>
  <unicode hex="0026"/>
  <outline>
    <contour>
      <point x="392" y="88" type="curve"/>
      <point x="198" y="265" type="line"/>
      <point x="147" y="242"/>
      <point x="125" y="204"/>
      <point x="125" y="147" type="curve" smooth="yes"/>
      <point x="125" y="67"/>
      <point x="174" y="31"/>
      <point x="251" y="31" type="curve" smooth="yes"/>
      <point x="306" y="31"/>
      <point x="353" y="50"/>
    </contour>
    <contour>
      <point x="331" y="436" type="curve" smooth="yes"/>
      <point x="331" y="484"/>
      <point x="308" y="508"/>
      <point x="263" y="508" type="curve" smooth="yes"/>
      <point x="212" y="508"/>
      <point x="189" y="487"/>
      <point x="189" y="436" type="curve" smooth="yes"/>
      <point x="189" y="392"/>
      <point x="211" y="357"/>
      <point x="246" y="330" type="curve"/>
      <point x="302" y="351"/>
      <point x="331" y="372"/>
    </contour>
    <contour>
      <point x="598" y="26" type="line"/>
      <point x="598" y="-4" type="line"/>
      <point x="493" y="-4" type="line"/>
      <point x="427" y="55" type="line"/>
      <point x="372" y="8"/>
      <point x="313" y="-12"/>
      <point x="240" y="-12" type="curve" smooth="yes"/>
      <point x="138" y="-12"/>
      <point x="36" y="19"/>
      <point x="36" y="143" type="curve" smooth="yes"/>
      <point x="36" y="233"/>
      <point x="92" y="270"/>
      <point x="164" y="299" type="curve"/>
      <point x="129" y="334"/>
      <point x="108" y="377"/>
      <point x="108" y="428" type="curve" smooth="yes"/>
      <point x="108" y="521"/>
      <point x="184" y="550"/>
      <point x="263" y="550" type="curve" smooth="yes"/>
      <point x="338" y="550"/>
      <point x="411" y="523"/>
      <point x="411" y="434" type="curve" smooth="yes"/>
      <point x="411" y="346"/>
      <point x="313" y="308"/>
      <point x="282" y="298" type="curve"/>
      <point x="440" y="154" type="line"/>
      <point x="460" y="197"/>
      <point x="475" y="240"/>
      <point x="478" y="287" type="curve"/>
      <point x="441" y="288" type="line"/>
      <point x="441" y="328" type="line"/>
      <point x="594" y="328" type="line"/>
      <point x="594" y="288" type="line"/>
      <point x="558" y="287" type="line"/>
      <point x="541" y="227"/>
      <point x="517" y="168"/>
      <point x="482" y="115" type="curve"/>
      <point x="569" y="36" type="line"/>
    </contour>
  </outline>
</glyph>
<glyph name="quotesingle" format="2">
  <advance width="162"/>
  <unicode hex="0027"/>
  <outline>
    <contour>
      <point x="39" y="577" type="line"/>
      <point x="129" y="577" type="line"/>
      <point x="103" y="364" type="line"/>
      <point x="64" y="364" type="line"/>
    </contour>
  </outline>
</glyph>
<glyph name="hyphen" format="2">
  <advance width="238"/>
  <unicode hex="002D"/>
  <outline>
    <contour>
      <point x="47" y="283" type="curve"/>
      <point x="41" y="331" type="line"/>
      <point x="92" y="362"/>
      <point x="134" y="393"/>
      <point x="134" y="454" type="curve" smooth="yes"/>
      <point x="134" y="462"/>
      <point x="131" y="464"/>
      <point x="126" y="465" type="curve"/>
      <point x="124" y="465"/>
      <point x="121" y="465"/>
      <point x="117" y="465" type="curve" smooth="yes"/>
      <point x="114" y="465"/>
      <point x="110" y="465"/>
      <point x="107" y="465" type="curve" smooth="yes"/>
      <point x="73" y="465"/>
      <point x="48" y="494"/>
      <point x="48" y="525" type="curve" smooth="yes"/>
      <point x="48" y="561"/>
      <point x="77" y="600"/>
      <point x="116" y="600" type="curve" smooth="yes"/>
      <point x="174" y="600"/>
      <point x="201" y="546"/>
      <point x="201" y="497" type="curve" smooth="yes"/>
      <point x="201" y="408"/>
      <point x="132" y="317"/>
    </contour>
  </outline>
</glyph>
<glyph name="period" format="2">
  <advance width="205"/>
  <unicode hex="002E"/>
  <outline>
    <contour>
      <point x="156" y="37" type="curve" smooth="yes"/>
      <point x="156" y="6"/>
      <point x="132" y="-16"/>
      <point x="103" y="-16" type="curve" smooth="yes"/>
      <point x="72" y="-16"/>
      <point x="49" y="6"/>
      <point x="49" y="37" type="curve" smooth="yes"/>
      <point x="49" y="68"/>
      <point x="72" y="90"/>
      <point x="103" y="90" type="curve" smooth="yes"/>
      <point x="132" y="90"/>
      <point x="156" y="68"/>
    </contour>
  </outline>
</glyph>
<glyph name="slash" format="2">
  <advance width="279"/>
  <unicode hex="002F"/>
  <outline>
    <contour>
      <point x="217" y="573" type="line"/>
      <point x="267" y="573" type="line"/>
      <point x="55" y="-43" type="line"/>
      <point x="4" y="-43" type="line"/>
    </contour>
  </outline>
</glyph>
<glyph name="zero" format="2">
  <advance width="410"/>
  <unicode hex="0030"/>
  <outline>
    <contour>
      <point x="295" y="271" type="curve" smooth="yes"/>
      <point x="295" y="319"/>
      <point x="295" y="369"/>
      <point x="283" y="416" type="curve" smooth="yes"/>
      <point x="271" y="467"/>
      <point x="247" y="503"/>
      <point x="203" y="503" type="curve" smooth="yes"/>
      <point x="159" y="503"/>
      <point x="136" y="467"/>
      <point x="125" y="416" type="curve" smooth="yes"/>
      <point x="114" y="368"/>
      <point x="115" y="319"/>
      <point x="115" y="271" type="curve" smooth="yes"/>
      <point x="115" y="222"/>
      <point x="115" y="172"/>
      <point x="125" y="124" type="curve" smooth="yes"/>
      <point x="137" y="71"/>
      <point x="159" y="34"/>
      <point x="203" y="34" type="curve" smooth="yes"/>
      <point x="247" y="34"/>
      <point x="271" y="71"/>
      <point x="283" y="123" type="curve" smooth="yes"/>
      <point x="295" y="171"/>
      <point x="295" y="222"/>
    </contour>
    <contour>
      <point x="389" y="271" type="curve" smooth="yes"/>
      <point x="389" y="154"/>
      <point x="367" y="-17"/>
      <point x="203" y="-17" type="curve" smooth="yes"/>
      <point x="44" y="-17"/>
      <point x="21" y="159"/>
      <point x="21" y="271" type="curve" smooth="yes"/>
      <point x="21" y="387"/>
      <point x="46" y="555"/>
      <point x="206" y="555" type="curve" smooth="yes"/>
      <point x="363" y="555"/>
      <point x="389" y="384"/>
    </contour>
  </outline>
</glyph>
<glyph name="one" format="2">
  <advance width="410"/>
  <unicode hex="0031"/>
  <outline>
    <contour>
      <point x="351" y="30" type="line"/>
      <point x="351" y="-9" type="line"/>
      <point x="122" y="-9" type="line"/>
      <point x="122" y="30" type="line"/>
      <point x="192" y="41" type="line"/>
      <point x="192" y="456" type="line"/>
      <point x="84" y="397" type="line"/>
      <point x="84" y="458" type="line"/>
      <point x="248" y="551" type="line"/>
      <point x="281" y="551" type="line"/>
      <point x="281" y="41" type="line"/>
    </contour>
  </outline>
</glyph>
<glyph name="two" format="2">
  <advance width="410"/>
  <unicode hex="0032"/>
  <outline>
    <contour>
      <point x="375" y="72" type="line"/>
      <point x="375" y="-9" type="line"/>
      <point x="26" y="-9" type="line"/>
      <point x="26" y="63" type="line"/>
      <point x="136" y="163" type="line" smooth="yes"/>
      <point x="218" y="237"/>
      <point x="269" y="290"/>
      <point x="269" y="403" type="curve" smooth="yes"/>
      <point x="269" y="467"/>
      <point x="243" y="499"/>
      <point x="178" y="499" type="curve" smooth="yes"/>
      <point x="153" y="499"/>
      <point x="126" y="483"/>
      <point x="103" y="471" type="curve"/>
      <point x="89" y="442" type="line"/>
      <point x="44" y="442" type="line"/>
      <point x="35" y="453"/>
      <point x="30" y="463"/>
      <point x="27" y="473" type="curve"/>
      <point x="20" y="490"/>
      <point x="21" y="509"/>
      <point x="44" y="524" type="curve"/>
      <point x="93" y="535"/>
      <point x="135" y="553"/>
      <point x="178" y="553" type="curve" smooth="yes"/>
      <point x="274" y="553"/>
      <point x="364" y="518"/>
      <point x="364" y="403" type="curve" smooth="yes"/>
      <point x="364" y="344"/>
      <point x="344" y="299"/>
      <point x="313" y="258" type="curve" smooth="yes"/>
      <point x="298" y="238"/>
      <point x="280" y="221"/>
      <point x="261" y="202" type="curve" smooth="yes"/>
      <point x="243" y="184"/>
      <point x="224" y="168"/>
      <point x="204" y="151" type="curve" smooth="yes"/>
      <point x="173" y="125"/>
      <point x="144" y="99"/>
      <point x="115" y="72" type="curve"/>
    </contour>
  </outline>
</glyph>
<glyph name="three" format="2">
  <advance width="410"/>
  <unicode hex="0033"/>
  <outline>
    <contour>
      <point x="388" y="146" type="curve" smooth="yes"/>
      <point x="388" y="25"/>
      <point x="289" y="-17"/>
      <point x="188" y="-17" type="curve" smooth="yes"/>
      <point x="140" y="-17"/>
      <point x="89" y="-11"/>
      <point x="34" y="1" type="curve"/>
      <point x="17" y="22"/>
      <point x="16" y="43"/>
      <point x="19" y="58" type="curve" smooth="yes"/>
      <point x="21" y="67"/>
      <point x="24" y="75"/>
      <point x="29" y="82" type="curve"/>
      <point x="74" y="82" type="line"/>
      <point x="92" y="54" type="line"/>
      <point x="116" y="42"/>
      <point x="156" y="35"/>
      <point x="181" y="35" type="curve" smooth="yes"/>
      <point x="264" y="35"/>
      <point x="294" y="70"/>
      <point x="294" y="150" type="curve" smooth="yes"/>
      <point x="294" y="203"/>
      <point x="275" y="226"/>
      <point x="247" y="238" type="curve" smooth="yes"/>
      <point x="233" y="244"/>
      <point x="216" y="247"/>
      <point x="195" y="250" type="curve" smooth="yes"/>
      <point x="176" y="252"/>
      <point x="155" y="253"/>
      <point x="124" y="254" type="curve"/>
      <point x="124" y="306" type="line"/>
      <point x="155" y="309"/>
      <point x="173" y="308"/>
      <point x="192" y="311" type="curve" smooth="yes"/>
      <point x="211" y="313"/>
      <point x="225" y="317"/>
      <point x="234" y="322" type="curve" smooth="yes"/>
      <point x="255" y="333"/>
      <point x="269" y="355"/>
      <point x="269" y="406" type="curve" smooth="yes"/>
      <point x="269" y="470"/>
      <point x="246" y="499"/>
      <point x="181" y="499" type="curve" smooth="yes"/>
      <point x="156" y="499"/>
      <point x="128" y="493"/>
      <point x="105" y="481" type="curve"/>
      <point x="90" y="462" type="line"/>
      <point x="46" y="462" type="line"/>
      <point x="42" y="471"/>
      <point x="39" y="479"/>
      <point x="37" y="487" type="curve" smooth="yes"/>
      <point x="34" y="502"/>
      <point x="33" y="518"/>
      <point x="46" y="533" type="curve"/>
      <point x="95" y="546"/>
      <point x="137" y="553"/>
      <point x="181" y="553" type="curve" smooth="yes"/>
      <point x="273" y="553"/>
      <point x="364" y="526"/>
      <point x="364" y="411" type="curve" smooth="yes"/>
      <point x="364" y="347"/>
      <point x="333" y="303"/>
      <point x="282" y="283" type="curve"/>
      <point x="346" y="266"/>
      <point x="388" y="226"/>
    </contour>
  </outline>
</glyph>
<glyph name="four" format="2">
  <advance width="410"/>
  <unicode hex="0034"/>
  <outline>
    <contour>
      <point x="81" y="185" type="line"/>
      <point x="245" y="185" type="line"/>
      <point x="245" y="417" type="line"/>
    </contour>
    <contour>
      <point x="407" y="185" type="line"/>
      <point x="407" y="108" type="line"/>
      <point x="334" y="108" type="line"/>
      <point x="334" y="-9" type="line"/>
      <point x="245" y="-9" type="line"/>
      <point x="245" y="108" type="line"/>
      <point x="6" y="108" type="line"/>
      <point x="6" y="175" type="line"/>
      <point x="273" y="550" type="line"/>
      <point x="334" y="550" type="line"/>
      <point x="334" y="185" type="line"/>
    </contour>
  </outline>
</glyph>
<glyph name="five" format="2">
  <advance width="410"/>
  <unicode hex="0035"/>
  <outline>
    <contour>
      <point x="388" y="160" type="curve" smooth="yes"/>
      <point x="388" y="35"/>
      <point x="300" y="-17"/>
      <point x="188" y="-17" type="curve" smooth="yes"/>
      <point x="141" y="-17"/>
      <point x="94" y="-13"/>
      <point x="42" y="2" type="curve"/>
      <point x="21" y="18"/>
      <point x="20" y="38"/>
      <point x="24" y="54" type="curve" smooth="yes"/>
      <point x="27" y="63"/>
      <point x="31" y="73"/>
      <point x="37" y="82" type="curve"/>
      <point x="82" y="82" type="line"/>
      <point x="101" y="54" type="line"/>
      <point x="124" y="42"/>
      <point x="156" y="35"/>
      <point x="181" y="35" type="curve" smooth="yes"/>
      <point x="266" y="35"/>
      <point x="294" y="72"/>
      <point x="294" y="156" type="curve" smooth="yes"/>
      <point x="294" y="243"/>
      <point x="264" y="270"/>
      <point x="175" y="270" type="curve" smooth="yes"/>
      <point x="163" y="270"/>
      <point x="149" y="269"/>
      <point x="137" y="266" type="curve"/>
      <point x="130" y="263"/>
      <point x="124" y="263"/>
      <point x="119" y="262" type="curve" smooth="yes"/>
      <point x="112" y="261"/>
      <point x="108" y="261"/>
      <point x="104" y="261" type="curve" smooth="yes"/>
      <point x="56" y="261" type="line"/>
      <point x="56" y="547" type="line"/>
      <point x="348" y="547" type="line"/>
      <point x="348" y="466" type="line"/>
      <point x="112" y="466" type="line"/>
      <point x="112" y="317" type="line"/>
      <point x="137" y="322"/>
      <point x="165" y="324"/>
      <point x="194" y="324" type="curve" smooth="yes"/>
      <point x="303" y="324"/>
      <point x="388" y="285"/>
    </contour>
  </outline>
</glyph>
<glyph name="six" format="2">
  <advance width="410"/>
  <unicode hex="0036"/>
  <outline>
    <contour>
      <point x="302" y="159" type="curve" smooth="yes"/>
      <point x="302" y="222"/>
      <point x="290" y="273"/>
      <point x="225" y="273" type="curve" smooth="yes"/>
      <point x="190" y="273"/>
      <point x="154" y="267"/>
      <point x="119" y="256" type="curve"/>
      <point x="119" y="173"/>
      <point x="128" y="34"/>
      <point x="220" y="34" type="curve" smooth="yes"/>
      <point x="291" y="34"/>
      <point x="302" y="91"/>
    </contour>
    <contour>
      <point x="396" y="167" type="curve" smooth="yes"/>
      <point x="396" y="54"/>
      <point x="338" y="-17"/>
      <point x="221" y="-17" type="curve" smooth="yes"/>
      <point x="59" y="-17"/>
      <point x="25" y="142"/>
      <point x="25" y="265" type="curve" smooth="yes"/>
      <point x="25" y="393"/>
      <point x="76" y="553"/>
      <point x="236" y="553" type="curve" smooth="yes"/>
      <point x="275" y="553"/>
      <point x="318" y="548"/>
      <point x="363" y="537" type="curve"/>
      <point x="378" y="520"/>
      <point x="378" y="500"/>
      <point x="374" y="484" type="curve" smooth="yes"/>
      <point x="371" y="475"/>
      <point x="368" y="465"/>
      <point x="363" y="456" type="curve"/>
      <point x="319" y="456" type="line"/>
      <point x="304" y="484" type="line"/>
      <point x="284" y="495"/>
      <point x="259" y="499"/>
      <point x="236" y="499" type="curve" smooth="yes"/>
      <point x="148" y="499"/>
      <point x="123" y="387"/>
      <point x="120" y="304" type="curve"/>
      <point x="157" y="321"/>
      <point x="199" y="332"/>
      <point x="240" y="332" type="curve" smooth="yes"/>
      <point x="345" y="332"/>
      <point x="396" y="267"/>
    </contour>
  </outline>
</glyph>
<glyph name="seven" format="2">
  <advance width="410"/>
  <unicode hex="0037"/>
  <outline>
    <contour>
      <point x="396" y="547" type="line"/>
      <point x="396" y="504" type="line"/>
      <point x="153" y="-9" type="line"/>
      <point x="79" y="-9" type="line"/>
      <point x="314" y="466" type="line"/>
      <point x="93" y="466" type="line"/>
      <point x="79" y="430" type="line"/>
      <point x="44" y="430" type="line"/>
      <point x="39" y="443"/>
      <point x="36" y="456"/>
      <point x="33" y="469" type="curve" smooth="yes"/>
      <point x="29" y="492"/>
      <point x="29" y="520"/>
      <point x="44" y="547" type="curve"/>
    </contour>
  </outline>
</glyph>
<glyph name="eight" format="2">
  <advance width="410"/>
  <unicode hex="0038"/>
  <outline>
    <contour>
      <point x="297" y="145" type="curve" smooth="yes"/>
      <point x="297" y="217"/>
      <point x="276" y="257"/>
      <point x="203" y="257" type="curve" smooth="yes"/>
      <point x="128" y="257"/>
      <point x="113" y="216"/>
      <point x="113" y="145" type="curve" smooth="yes"/>
      <point x="113" y="73"/>
      <point x="128" y="34"/>
      <point x="203" y="34" type="curve" smooth="yes"/>
      <point x="276" y="34"/>
      <point x="297" y="73"/>
    </contour>
    <contour>
      <point x="280" y="406" type="curve" smooth="yes"/>
      <point x="280" y="465"/>
      <point x="263" y="503"/>
      <point x="203" y="503" type="curve" smooth="yes"/>
      <point x="144" y="503"/>
      <point x="130" y="464"/>
      <point x="130" y="406" type="curve" smooth="yes"/>
      <point x="130" y="347"/>
      <point x="144" y="312"/>
      <point x="203" y="312" type="curve" smooth="yes"/>
      <point x="263" y="312"/>
      <point x="280" y="346"/>
    </contour>
    <contour>
      <point x="389" y="145" type="curve" smooth="yes"/>
      <point x="389" y="25"/>
      <point x="311" y="-17"/>
      <point x="203" y="-17" type="curve" smooth="yes"/>
      <point x="94" y="-17"/>
      <point x="21" y="27"/>
      <point x="21" y="145" type="curve" smooth="yes"/>
      <point x="21" y="209"/>
      <point x="50" y="258"/>
      <point x="103" y="286" type="curve"/>
      <point x="60" y="313"/>
      <point x="38" y="353"/>
      <point x="38" y="406" type="curve" smooth="yes"/>
      <point x="38" y="511"/>
      <point x="111" y="555"/>
      <point x="206" y="555" type="curve" smooth="yes"/>
      <point x="300" y="555"/>
      <point x="372" y="510"/>
      <point x="372" y="406" type="curve" smooth="yes"/>
      <point x="372" y="354"/>
      <point x="349" y="312"/>
      <point x="306" y="285" type="curve"/>
      <point x="361" y="258"/>
      <point x="389" y="209"/>
    </contour>
  </outline>
</glyph>
<glyph name="nine" format="2">
  <advance width="410"/>
  <unicode hex="0039"/>
  <outline>
    <contour>
      <point x="293" y="280" type="curve"/>
      <point x="293" y="296"/>
      <point x="294" y="316"/>
      <point x="291" y="339" type="curve"/>
      <point x="290" y="364"/>
      <point x="288" y="391"/>
      <point x="281" y="416" type="curve" smooth="yes"/>
      <point x="268" y="467"/>
      <point x="244" y="501"/>
      <point x="200" y="501" type="curve" smooth="yes"/>
      <point x="128" y="501"/>
      <point x="110" y="441"/>
      <point x="110" y="372" type="curve" smooth="yes"/>
      <point x="110" y="304"/>
      <point x="130" y="262"/>
      <point x="199" y="262" type="curve" smooth="yes"/>
      <point x="231" y="262"/>
      <point x="262" y="269"/>
    </contour>
    <contour>
      <point x="386" y="270" type="curve" smooth="yes"/>
      <point x="386" y="131"/>
      <point x="337" y="-17"/>
      <point x="167" y="-17" type="curve" smooth="yes"/>
      <point x="126" y="-17"/>
      <point x="85" y="-13"/>
      <point x="38" y="-1" type="curve"/>
      <point x="19" y="14"/>
      <point x="19" y="29"/>
      <point x="24" y="44" type="curve" smooth="yes"/>
      <point x="27" y="52"/>
      <point x="31" y="60"/>
      <point x="38" y="68" type="curve"/>
      <point x="82" y="68" type="line"/>
      <point x="96" y="48" type="line"/>
      <point x="117" y="39"/>
      <point x="141" y="35"/>
      <point x="166" y="35" type="curve" smooth="yes"/>
      <point x="262" y="35"/>
      <point x="287" y="142"/>
      <point x="292" y="230" type="curve"/>
      <point x="257" y="213"/>
      <point x="218" y="203"/>
      <point x="179" y="203" type="curve" smooth="yes"/>
      <point x="74" y="203"/>
      <point x="16" y="273"/>
      <point x="16" y="373" type="curve" smooth="yes"/>
      <point x="16" y="489"/>
      <point x="86" y="553"/>
      <point x="199" y="553" type="curve" smooth="yes"/>
      <point x="367" y="553"/>
      <point x="386" y="393"/>
    </contour>
  </outline>
</glyph>
<glyph name="colon" format="2">
  <advance width="228"/>
  <unicode hex="003A"/>
  <outline>
    <contour>
      <point x="166" y="37" type="curve" smooth="yes"/>
      <point x="166" y="8"/>
      <point x="144" y="-16"/>
      <point x="113" y="-16" type="curve" smooth="yes"/>
      <point x="84" y="-16"/>
      <point x="60" y="6"/>
      <point x="60" y="37" type="curve" smooth="yes"/>
      <point x="60" y="68"/>
      <point x="82" y="90"/>
      <point x="113" y="90" type="curve" smooth="yes"/>
      <point x="144" y="90"/>
      <point x="166" y="66"/>
    </contour>
    <contour>
      <point x="166" y="336" type="curve" smooth="yes"/>
      <point x="166" y="307"/>
      <point x="144" y="283"/>
      <point x="113" y="283" type="curve" smooth="yes"/>
      <point x="82" y="283"/>
      <point x="60" y="307"/>
      <point x="60" y="336" type="curve" smooth="yes"/>
      <point x="60" y="367"/>
      <point x="84" y="390"/>
      <point x="113" y="390" type="curve" smooth="yes"/>
      <point x="144" y="390"/>
      <point x="166" y="367"/>
    </contour>
  </outline>
</glyph>
<glyph name="semicolon" format="2">
  <advance width="228"/>
  <unicode hex="003B"/>
  <outline>
    <contour>
      <point x="178" y="20" type="curve" smooth="yes"/>
      <point x="178" y="-60"/>
      <point x="126" y="-109"/>
      <point x="46" y="-132" type="curve"/>
      <point x="46" y="-91" type="line"/>
      <point x="82" y="-79"/>
      <point x="117" y="-62"/>
      <point x="117" y="-27" type="curve" smooth="yes"/>
      <point x="117" y="-18"/>
      <point x="109" y="-13"/>
      <point x="102" y="-8" type="curve"/>
      <point x="99" y="-7"/>
      <point x="96" y="-6"/>
      <point x="92" y="-3" type="curve"/>
      <point x="77" y="4"/>
      <point x="63" y="15"/>
      <point x="63" y="40" type="curve" smooth="yes"/>
      <point x="63" y="73"/>
      <point x="85" y="89"/>
      <point x="116" y="89" type="curve" smooth="yes"/>
      <point x="157" y="89"/>
      <point x="178" y="56"/>
    </contour>
    <contour>
      <point x="166" y="336" type="curve" smooth="yes"/>
      <point x="166" y="307"/>
      <point x="144" y="283"/>
      <point x="113" y="283" type="curve" smooth="yes"/>
      <point x="82" y="283"/>
      <point x="60" y="307"/>
      <point x="60" y="336" type="curve" smooth="yes"/>
      <point x="60" y="367"/>
      <point x="84" y="390"/>
      <point x="113" y="390" type="curve" smooth="yes"/>
      <point x="144" y="390"/>
      <point x="166" y="367"/>
    </contour>
  </outline>
</glyph>
<glyph name="_60" format="2">
  <advance width="462"/>
  <unicode hex="003C"/>
  <outline>
    <contour>
      <point x="427" y="119" type="line"/>
      <point x="427" y="66" type="line"/>
      <point x="36" y="259" type="line"/>
      <point x="36" y="285" type="line"/>
      <point x="427" y="478" type="line"/>
      <point x="427" y="426" type="line"/>
      <point x="110" y="272" type="line"/>
    </contour>
  </outline>
</glyph>
<glyph name="equal" format="2">
  <advance width="462"/>
  <unicode hex="003D"/>
  <outline>
    <contour>
      <point x="427" y="216" type="line"/>
      <point x="427" y="165" type="line"/>
      <point x="36" y="165" type="line"/>
      <point x="36" y="216" type="line"/>
    </contour>
    <contour>
      <point x="427" y="380" type="line"/>
      <point x="427" y="329" type="line"/>
      <point x="36" y="329" type="line"/>
      <point x="36" y="380" type="line"/>
    </contour>
  </outline>
</glyph>
<glyph name="_62" format="2">
  <advance width="462"/>
  <unicode hex="003E"/>
  <outline>
    <contour>
      <point x="428" y="285" type="line"/>
      <point x="428" y="259" type="line"/>
      <point x="37" y="66" type="line"/>
      <point x="37" y="119" type="line"/>
      <point x="354" y="272" type="line"/>
      <point x="37" y="426" type="line"/>
      <point x="37" y="478" type="line"/>
    </contour>
  </outline>
</glyph>
<glyph name="at" format="2">
  <advance width="755"/>
  <unicode hex="0040"/>
  <outline>
    <contour>
      <point x="405" y="112" type="curve"/>
      <point x="450" y="319" type="line"/>
      <point x="445" y="319"/>
      <point x="441" y="320"/>
      <point x="436" y="320" type="curve" smooth="yes"/>
      <point x="400" y="320"/>
      <point x="360" y="313"/>
      <point x="333" y="290" type="curve" smooth="yes"/>
      <point x="294" y="256"/>
      <point x="277" y="175"/>
      <point x="277" y="124" type="curve" smooth="yes"/>
      <point x="277" y="105"/>
      <point x="277" y="69"/>
      <point x="304" y="69" type="curve" smooth="yes"/>
      <point x="339" y="69"/>
      <point x="378" y="89"/>
    </contour>
    <contour>
      <point x="717" y="301" type="curve" smooth="yes"/>
      <point x="717" y="148"/>
      <point x="586" y="5"/>
      <point x="430" y="5" type="curve" smooth="yes"/>
      <point x="417" y="5"/>
      <point x="399" y="10"/>
      <point x="399" y="30" type="curve" smooth="yes"/>
      <point x="399" y="43"/>
      <point x="400" y="55"/>
      <point x="401" y="67" type="curve"/>
      <point x="369" y="36"/>
      <point x="324" y="5"/>
      <point x="279" y="5" type="curve" smooth="yes"/>
      <point x="229" y="5"/>
      <point x="213" y="51"/>
      <point x="213" y="90" type="curve" smooth="yes"/>
      <point x="213" y="174"/>
      <point x="241" y="265"/>
      <point x="308" y="321" type="curve" smooth="yes"/>
      <point x="360" y="363"/>
      <point x="406" y="371"/>
      <point x="470" y="371" type="curve" smooth="yes"/>
      <point x="487" y="371"/>
      <point x="502" y="371"/>
      <point x="525" y="368" type="curve"/>
      <point x="478" y="151" type="line" smooth="yes"/>
      <point x="473" y="128"/>
      <point x="469" y="105"/>
      <point x="469" y="82" type="curve" smooth="yes"/>
      <point x="469" y="66"/>
      <point x="475" y="62"/>
      <point x="494" y="62" type="curve" smooth="yes"/>
      <point x="605" y="62"/>
      <point x="657" y="204"/>
      <point x="657" y="300" type="curve" smooth="yes"/>
      <point x="657" y="440"/>
      <point x="561" y="508"/>
      <point x="427" y="508" type="curve" smooth="yes"/>
      <point x="223" y="508"/>
      <point x="103" y="340"/>
      <point x="103" y="146" type="curve" smooth="yes"/>
      <point x="103" y="-8"/>
      <point x="200" y="-116"/>
      <point x="358" y="-116" type="curve" smooth="yes"/>
      <point x="441" y="-116"/>
      <point x="501" y="-96"/>
      <point x="572" y="-45" type="curve"/>
      <point x="590" y="-74" type="line"/>
      <point x="514" y="-134"/>
      <point x="439" y="-160"/>
      <point x="346" y="-160" type="curve" smooth="yes"/>
      <point x="162" y="-160"/>
      <point x="39" y="-37"/>
      <point x="39" y="145" type="curve" smooth="yes"/>
      <point x="39" y="372"/>
      <point x="198" y="551"/>
      <point x="430" y="551" type="curve" smooth="yes"/>
      <point x="590" y="551"/>
      <point x="717" y="477"/>
    </contour>
  </outline>
</glyph>
<glyph name="A" format="2">
  <advance width="547"/>
  <unicode hex="0041"/>
  <outline>
    <contour>
      <point x="161" y="228" type="line"/>
      <point x="343" y="228" type="line"/>
      <point x="250" y="481" type="line"/>
    </contour>
    <contour>
      <point x="536" y="25" type="line"/>
      <point x="536" y="-4" type="line"/>
      <point x="379" y="-4" type="line"/>
      <point x="379" y="26" type="line"/>
      <point x="410" y="36" type="line"/>
      <point x="359" y="182" type="line"/>
      <point x="145" y="182" type="line"/>
      <point x="94" y="36" type="line"/>
      <point x="125" y="26" type="line"/>
      <point x="125" y="-4" type="line"/>
      <point x="8" y="-4" type="line"/>
      <point x="8" y="25" type="line"/>
      <point x="40" y="36" type="line"/>
      <point x="223" y="546" type="line"/>
      <point x="314" y="546" type="line"/>
      <point x="507" y="37" type="line"/>
    </contour>
  </outline>
</glyph>
<glyph name="B" format="2">
  <advance width="547"/>
  <unicode hex="0042"/>
  <outline>
    <contour>
      <point x="425" y="153" type="curve" smooth="yes"/>
      <point x="425" y="244"/>
      <point x="351" y="257"/>
      <point x="272" y="257" type="curve" smooth="yes"/>
      <point x="171" y="257" type="line"/>
      <point x="171" y="41" type="line"/>
      <point x="210" y="40"/>
      <point x="255" y="39"/>
      <point x="294" y="39" type="curve" smooth="yes"/>
      <point x="375" y="39"/>
      <point x="425" y="68"/>
    </contour>
    <contour>
      <point x="385" y="407" type="curve" smooth="yes"/>
      <point x="385" y="483"/>
      <point x="327" y="496"/>
      <point x="259" y="496" type="curve" smooth="yes"/>
      <point x="171" y="496" type="line"/>
      <point x="171" y="303" type="line"/>
      <point x="264" y="303" type="line" smooth="yes"/>
      <point x="341" y="303"/>
      <point x="385" y="327"/>
    </contour>
    <contour>
      <point x="518" y="155" type="curve" smooth="yes"/>
      <point x="518" y="26"/>
      <point x="411" y="-6"/>
      <point x="304" y="-6" type="curve" smooth="yes"/>
      <point x="214" y="-6"/>
      <point x="150" y="-4"/>
      <point x="55" y="-4" type="curve"/>
      <point x="55" y="25" type="line"/>
      <point x="84" y="36" type="line"/>
      <point x="84" y="501" type="line"/>
      <point x="47" y="501" type="line"/>
      <point x="47" y="542" type="line"/>
      <point x="275" y="542" type="line" smooth="yes"/>
      <point x="365" y="542"/>
      <point x="477" y="528"/>
      <point x="477" y="411" type="curve" smooth="yes"/>
      <point x="477" y="348"/>
      <point x="439" y="306"/>
      <point x="386" y="287" type="curve"/>
      <point x="454" y="273"/>
      <point x="518" y="237"/>
    </contour>
  </outline>
</glyph>
<glyph name="C" format="2">
  <advance width="532"/>
  <unicode hex="0043"/>
  <outline>
    <contour>
      <point x="462" y="118" type="line"/>
      <point x="507" y="118" type="line"/>
      <point x="504" y="13" type="line"/>
      <point x="439" y="-4"/>
      <point x="374" y="-12"/>
      <point x="310" y="-12" type="curve" smooth="yes"/>
      <point x="135" y="-12"/>
      <point x="29" y="85"/>
      <point x="29" y="262" type="curve" smooth="yes"/>
      <point x="29" y="450"/>
      <point x="123" y="548"/>
      <point x="312" y="548" type="curve" smooth="yes"/>
      <point x="373" y="548"/>
      <point x="432" y="540"/>
      <point x="496" y="527" type="curve"/>
      <point x="499" y="430" type="line"/>
      <point x="453" y="430" type="line"/>
      <point x="431" y="472" type="line"/>
      <point x="391" y="496"/>
      <point x="362" y="506"/>
      <point x="315" y="506" type="curve" smooth="yes"/>
      <point x="160" y="506"/>
      <point x="122" y="403"/>
      <point x="122" y="263" type="curve" smooth="yes"/>
      <point x="122" y="134"/>
      <point x="170" y="28"/>
      <point x="311" y="28" type="curve" smooth="yes"/>
      <point x="358" y="28"/>
      <point x="400" y="38"/>
      <point x="437" y="66" type="curve"/>
    </contour>
  </outline>
</glyph>
<glyph name="D" format="2">
  <advance width="592"/>
  <unicode hex="0044"/>
  <outline>
    <contour>
      <point x="468" y="272" type="curve" smooth="yes"/>
      <point x="468" y="421"/>
      <point x="387" y="496"/>
      <point x="239" y="496" type="curve" smooth="yes"/>
      <point x="172" y="496" type="line"/>
      <point x="172" y="42" type="line"/>
      <point x="208" y="40"/>
      <point x="244" y="39"/>
      <point x="281" y="39" type="curve" smooth="yes"/>
      <point x="429" y="39"/>
      <point x="468" y="138"/>
    </contour>
    <contour>
      <point x="562" y="271" type="curve" smooth="yes"/>
      <point x="562" y="87"/>
      <point x="466" y="-6"/>
      <point x="281" y="-6" type="curve" smooth="yes"/>
      <point x="195" y="-6"/>
      <point x="147" y="-4"/>
      <point x="56" y="-4" type="curve"/>
      <point x="56" y="25" type="line"/>
      <point x="85" y="36" type="line"/>
      <point x="85" y="501" type="line"/>
      <point x="46" y="501" type="line"/>
      <point x="46" y="542" type="line"/>
      <point x="265" y="542" type="line" smooth="yes"/>
      <point x="449" y="542"/>
      <point x="562" y="467"/>
    </contour>
  </outline>
</glyph>
<glyph name="E" format="2">
  <advance width="501"/>
  <unicode hex="0045"/>
  <outline>
    <contour>
      <point x="436" y="77" type="line"/>
      <point x="477" y="77" type="line"/>
      <point x="469" y="-4" type="line"/>
      <point x="45" y="-4" type="line"/>
      <point x="45" y="25" type="line"/>
      <point x="74" y="36" type="line"/>
      <point x="74" y="501" type="line"/>
      <point x="46" y="501" type="line"/>
      <point x="46" y="542" type="line"/>
      <point x="458" y="542" type="line"/>
      <point x="458" y="463" type="line"/>
      <point x="412" y="463" type="line"/>
      <point x="399" y="496" type="line"/>
      <point x="161" y="496" type="line"/>
      <point x="161" y="296" type="line"/>
      <point x="297" y="296" type="line"/>
      <point x="309" y="320" type="line"/>
      <point x="344" y="320" type="line"/>
      <point x="344" y="225" type="line"/>
      <point x="309" y="225" type="line"/>
      <point x="297" y="250" type="line"/>
      <point x="161" y="250" type="line"/>
      <point x="161" y="41" type="line"/>
      <point x="413" y="41" type="line"/>
    </contour>
  </outline>
</glyph>
<glyph name="F" format="2">
  <advance width="464"/>
  <unicode hex="0046"/>
  <outline>
    <contour>
      <point x="446" y="542" type="line"/>
      <point x="446" y="453" type="line"/>
      <point x="406" y="453" type="line"/>
      <point x="388" y="494" type="line"/>
      <point x="348" y="499"/>
      <point x="312" y="496"/>
      <point x="273" y="496" type="curve" smooth="yes"/>
      <point x="165" y="496" type="line"/>
      <point x="165" y="282" type="line"/>
      <point x="334" y="282" type="line"/>
      <point x="346" y="306" type="line"/>
      <point x="380" y="306" type="line"/>
      <point x="380" y="211" type="line"/>
      <point x="346" y="211" type="line"/>
      <point x="334" y="236" type="line"/>
      <point x="165" y="236" type="line"/>
      <point x="165" y="36" type="line"/>
      <point x="194" y="26" type="line"/>
      <point x="194" y="-4" type="line"/>
      <point x="44" y="-4" type="line"/>
      <point x="44" y="25" type="line"/>
      <point x="77" y="36" type="line"/>
      <point x="77" y="501" type="line"/>
      <point x="29" y="501" type="line"/>
      <point x="29" y="542" type="line"/>
    </contour>
  </outline>
</glyph>
<glyph name="G" format="2">
  <advance width="572"/>
  <unicode hex="0047"/>
  <outline>
    <contour>
      <point x="547" y="240" type="line"/>
      <point x="547" y="199" type="line"/>
      <point x="524" y="198" type="line"/>
      <point x="524" y="24" type="line"/>
      <point x="453" y="1"/>
      <point x="387" y="-12"/>
      <point x="315" y="-12" type="curve" smooth="yes"/>
      <point x="142" y="-12"/>
      <point x="34" y="85"/>
      <point x="34" y="262" type="curve" smooth="yes"/>
      <point x="34" y="450"/>
      <point x="128" y="548"/>
      <point x="317" y="548" type="curve" smooth="yes"/>
      <point x="381" y="548"/>
      <point x="455" y="548"/>
      <point x="520" y="523" type="curve"/>
      <point x="520" y="439" type="line"/>
      <point x="474" y="439" type="line"/>
      <point x="454" y="467" type="line"/>
      <point x="413" y="495"/>
      <point x="371" y="506"/>
      <point x="320" y="506" type="curve" smooth="yes"/>
      <point x="167" y="506"/>
      <point x="128" y="402"/>
      <point x="128" y="263" type="curve" smooth="yes"/>
      <point x="128" y="132"/>
      <point x="175" y="28"/>
      <point x="316" y="28" type="curve" smooth="yes"/>
      <point x="352" y="28"/>
      <point x="405" y="37"/>
      <point x="438" y="53" type="curve"/>
      <point x="438" y="198" type="line"/>
      <point x="379" y="199" type="line"/>
      <point x="379" y="240" type="line"/>
    </contour>
  </outline>
</glyph>
<glyph name="H" format="2">
  <advance width="592"/>
  <unicode hex="0048"/>
  <outline>
    <contour>
      <point x="553" y="25" type="line"/>
      <point x="553" y="-4" type="line"/>
      <point x="409" y="-4" type="line"/>
      <point x="409" y="25" type="line"/>
      <point x="437" y="36" type="line"/>
      <point x="437" y="253" type="line"/>
      <point x="165" y="253" type="line"/>
      <point x="165" y="36" type="line"/>
      <point x="194" y="25" type="line"/>
      <point x="194" y="-4" type="line"/>
      <point x="49" y="-4" type="line"/>
      <point x="49" y="25" type="line"/>
      <point x="77" y="36" type="line"/>
      <point x="77" y="501" type="line"/>
      <point x="39" y="501" type="line"/>
      <point x="39" y="542" type="line"/>
      <point x="194" y="542" type="line"/>
      <point x="194" y="501" type="line"/>
      <point x="165" y="501" type="line"/>
      <point x="165" y="299" type="line"/>
      <point x="437" y="299" type="line"/>
      <point x="437" y="501" type="line"/>
      <point x="409" y="501" type="line"/>
      <point x="409" y="542" type="line"/>
      <point x="553" y="542" type="line"/>
      <point x="553" y="501" type="line"/>
      <point x="524" y="501" type="line"/>
      <point x="524" y="36" type="line"/>
    </contour>
  </outline>
</glyph>
<glyph name="I" format="2">
  <advance width="289"/>
  <unicode hex="0049"/>
  <outline>
    <contour>
      <point x="229" y="25" type="line"/>
      <point x="229" y="-4" type="line"/>
      <point x="70" y="-4" type="line"/>
      <point x="70" y="25" type="line"/>
      <point x="108" y="36" type="line"/>
      <point x="108" y="501" type="line"/>
      <point x="70" y="501" type="line"/>
      <point x="70" y="542" type="line"/>
      <point x="229" y="542" type="line"/>
      <point x="229" y="501" type="line"/>
      <point x="190" y="501" type="line"/>
      <point x="190" y="36" type="line"/>
    </contour>
  </outline>
</glyph>
<glyph name="J" format="2">
  <advance width="331"/>
  <unicode hex="004A"/>
  <outline>
    <contour>
      <point x="310" y="542" type="line"/>
      <point x="310" y="501" type="line"/>
      <point x="279" y="501" type="line"/>
      <point x="279" y="163" type="line" smooth="yes"/>
      <point x="279" y="75"/>
      <point x="238" y="-12"/>
      <point x="133" y="-12" type="curve" smooth="yes"/>
      <point x="106" y="-12"/>
      <point x="48" y="-14"/>
      <point x="24" y="7" type="curve" smooth="yes"/>
      <point x="5" y="23"/>
      <point x="-6" y="60"/>
      <point x="15" y="97" type="curve"/>
      <point x="18" y="100"/>
      <point x="22" y="102"/>
      <point x="26" y="103" type="curve"/>
      <point x="34" y="106"/>
      <point x="44" y="104"/>
      <point x="56" y="97" type="curve"/>
      <point x="63" y="58" type="line"/>
      <point x="75" y="35"/>
      <point x="104" y="31"/>
      <point x="121" y="31" type="curve" smooth="yes"/>
      <point x="161" y="31"/>
      <point x="192" y="64"/>
      <point x="192" y="103" type="curve" smooth="yes"/>
      <point x="192" y="501" type="line"/>
      <point x="153" y="501" type="line"/>
      <point x="153" y="542" type="line"/>
    </contour>
  </outline>
</glyph>
<glyph name="K" format="2">
  <advance width="589"/>
  <unicode hex="004B"/>
  <outline>
    <contour>
      <point x="579" y="25" type="line"/>
      <point x="579" y="-4" type="line"/>
      <point x="460" y="-4" type="line"/>
      <point x="241" y="264" type="line"/>
      <point x="165" y="201" type="line"/>
      <point x="165" y="36" type="line"/>
      <point x="197" y="26" type="line"/>
      <point x="197" y="-4" type="line"/>
      <point x="49" y="-4" type="line"/>
      <point x="49" y="25" type="line"/>
      <point x="77" y="36" type="line"/>
      <point x="77" y="501" type="line"/>
      <point x="49" y="501" type="line"/>
      <point x="49" y="542" type="line"/>
      <point x="194" y="542" type="line"/>
      <point x="194" y="501" type="line"/>
      <point x="165" y="501" type="line"/>
      <point x="165" y="264" type="line"/>
      <point x="427" y="502" type="line"/>
      <point x="399" y="502" type="line"/>
      <point x="399" y="542" type="line"/>
      <point x="530" y="542" type="line"/>
      <point x="530" y="501" type="line"/>
      <point x="495" y="501" type="line"/>
      <point x="303" y="321" type="line"/>
      <point x="538" y="37" type="line"/>
    </contour>
  </outline>
</glyph>
<glyph name="L" format="2">
  <advance width="481"/>
  <unicode hex="004C"/>
  <outline>
    <contour>
      <point x="438" y="89" type="line"/>
      <point x="473" y="89" type="line"/>
      <point x="466" y="-4" type="line"/>
      <point x="45" y="-4" type="line"/>
      <point x="45" y="25" type="line"/>
      <point x="74" y="36" type="line"/>
      <point x="74" y="501" type="line"/>
      <point x="45" y="501" type="line"/>
      <point x="45" y="542" type="line"/>
      <point x="194" y="542" type="line"/>
      <point x="194" y="501" type="line"/>
      <point x="161" y="501" type="line"/>
      <point x="161" y="39" type="line"/>
      <point x="292" y="39" type="line" smooth="yes"/>
      <point x="332" y="39"/>
      <point x="373" y="39"/>
      <point x="413" y="47" type="curve"/>
    </contour>
  </outline>
</glyph>
<glyph name="M" format="2">
  <advance width="684"/>
  <unicode hex="004D"/>
  <outline>
    <contour>
      <point x="645" y="25" type="line"/>
      <point x="645" y="-4" type="line"/>
      <point x="498" y="-4" type="line"/>
      <point x="498" y="26" type="line"/>
      <point x="530" y="36" type="line"/>
      <point x="530" y="439" type="line"/>
      <point x="324" y="85" type="line"/>
      <point x="303" y="85" type="line"/>
      <point x="115" y="437" type="line"/>
      <point x="115" y="36" type="line"/>
      <point x="147" y="26" type="line"/>
      <point x="147" y="-4" type="line"/>
      <point x="34" y="-4" type="line"/>
      <point x="34" y="25" type="line"/>
      <point x="63" y="36" type="line"/>
      <point x="63" y="501" type="line"/>
      <point x="36" y="501" type="line"/>
      <point x="36" y="542" type="line"/>
      <point x="165" y="542" type="line"/>
      <point x="336" y="231" type="line"/>
      <point x="524" y="542" type="line"/>
      <point x="645" y="542" type="line"/>
      <point x="645" y="501" type="line"/>
      <point x="617" y="501" type="line"/>
      <point x="617" y="36" type="line"/>
    </contour>
  </outline>
</glyph>
<glyph name="N" format="2">
  <advance width="592"/>
  <unicode hex="004E"/>
  <outline>
    <contour>
      <point x="548" y="542" type="line"/>
      <point x="548" y="501" type="line"/>
      <point x="519" y="501" type="line"/>
      <point x="519" y="-4" type="line"/>
      <point x="473" y="-4" type="line"/>
      <point x="120" y="467" type="line"/>
      <point x="120" y="36" type="line"/>
      <point x="152" y="26" type="line"/>
      <point x="152" y="-4" type="line"/>
      <point x="39" y="-4" type="line"/>
      <point x="39" y="25" type="line"/>
      <point x="67" y="36" type="line"/>
      <point x="67" y="501" type="line"/>
      <point x="39" y="501" type="line"/>
      <point x="39" y="542" type="line"/>
      <point x="169" y="542" type="line"/>
      <point x="467" y="145" type="line"/>
      <point x="467" y="501" type="line"/>
      <point x="435" y="501" type="line"/>
      <point x="435" y="542" type="line"/>
    </contour>
  </outline>
</glyph>
<glyph name="O" format="2">
  <advance width="592"/>
  <unicode hex="004F"/>
  <outline>
    <contour>
      <point x="470" y="269" type="curve" smooth="yes"/>
      <point x="470" y="397"/>
      <point x="443" y="506"/>
      <point x="296" y="506" type="curve" smooth="yes"/>
      <point x="149" y="506"/>
      <point x="122" y="397"/>
      <point x="122" y="269" type="curve" smooth="yes"/>
      <point x="122" y="141"/>
      <point x="149" y="29"/>
      <point x="296" y="29" type="curve" smooth="yes"/>
      <point x="443" y="29"/>
      <point x="470" y="141"/>
    </contour>
    <contour>
      <point x="564" y="269" type="curve" smooth="yes"/>
      <point x="564" y="93"/>
      <point x="477" y="-12"/>
      <point x="296" y="-12" type="curve" smooth="yes"/>
      <point x="113" y="-12"/>
      <point x="29" y="93"/>
      <point x="29" y="269" type="curve" smooth="yes"/>
      <point x="29" y="448"/>
      <point x="112" y="548"/>
      <point x="296" y="548" type="curve" smooth="yes"/>
      <point x="477" y="548"/>
      <point x="564" y="446"/>
    </contour>
  </outline>
</glyph>
<glyph name="P" format="2">
  <advance width="456"/>
  <unicode hex="0050"/>
  <outline>
    <contour>
      <point x="356" y="378" type="curve" smooth="yes"/>
      <point x="356" y="469"/>
      <point x="315" y="496"/>
      <point x="226" y="496" type="curve" smooth="yes"/>
      <point x="162" y="496" type="line"/>
      <point x="162" y="252" type="line"/>
      <point x="229" y="252" type="line" smooth="yes"/>
      <point x="318" y="252"/>
      <point x="356" y="290"/>
    </contour>
    <contour>
      <point x="446" y="379" type="curve" smooth="yes"/>
      <point x="446" y="255"/>
      <point x="362" y="206"/>
      <point x="248" y="206" type="curve" smooth="yes"/>
      <point x="162" y="206" type="line"/>
      <point x="162" y="36" type="line"/>
      <point x="197" y="26" type="line"/>
      <point x="197" y="-4" type="line"/>
      <point x="41" y="-4" type="line"/>
      <point x="41" y="25" type="line"/>
      <point x="75" y="36" type="line"/>
      <point x="75" y="501" type="line"/>
      <point x="36" y="501" type="line"/>
      <point x="36" y="542" type="line"/>
      <point x="244" y="542" type="line" smooth="yes"/>
      <point x="353" y="542"/>
      <point x="446" y="504"/>
    </contour>
  </outline>
</glyph>
<glyph name="Q" format="2">
  <advance width="582"/>
  <unicode hex="0051"/>
  <outline>
    <contour>
      <point x="470" y="268" type="curve" smooth="yes"/>
      <point x="470" y="396"/>
      <point x="443" y="506"/>
      <point x="296" y="506" type="curve" smooth="yes"/>
      <point x="149" y="506"/>
      <point x="122" y="396"/>
      <point x="122" y="268" type="curve" smooth="yes"/>
      <point x="122" y="141"/>
      <point x="149" y="29"/>
      <point x="296" y="29" type="curve" smooth="yes"/>
      <point x="443" y="29"/>
      <point x="470" y="140"/>
    </contour>
    <contour>
      <point x="564" y="268" type="curve" smooth="yes"/>
      <point x="564" y="159"/>
      <point x="531" y="59"/>
      <point x="424" y="11" type="curve"/>
      <point x="435" y="0"/>
      <point x="437" y="-12"/>
      <point x="446" y="-25" type="curve" smooth="yes"/>
      <point x="461" y="-47"/>
      <point x="472" y="-34"/>
      <point x="502" y="-34" type="curve"/>
      <point x="499" y="-112" type="line"/>
      <point x="460" y="-115"/>
      <point x="424" y="-104"/>
      <point x="404" y="-92" type="curve" smooth="yes"/>
      <point x="369" y="-70"/>
      <point x="373" y="-68"/>
      <point x="327" y="-11" type="curve"/>
      <point x="316" y="-12"/>
      <point x="307" y="-12"/>
      <point x="296" y="-12" type="curve" smooth="yes"/>
      <point x="113" y="-12"/>
      <point x="29" y="92"/>
      <point x="29" y="268" type="curve" smooth="yes"/>
      <point x="29" y="447"/>
      <point x="112" y="548"/>
      <point x="296" y="548" type="curve" smooth="yes"/>
      <point x="477" y="548"/>
      <point x="564" y="445"/>
    </contour>
  </outline>
</glyph>
<glyph name="R" format="2">
  <advance width="527"/>
  <unicode hex="0052"/>
  <outline>
    <contour>
      <point x="368" y="388" type="curve" smooth="yes"/>
      <point x="368" y="476"/>
      <point x="322" y="496"/>
      <point x="238" y="496" type="curve" smooth="yes"/>
      <point x="155" y="496" type="line"/>
      <point x="155" y="276" type="line"/>
      <point x="241" y="276" type="line" smooth="yes"/>
      <point x="326" y="276"/>
      <point x="368" y="300"/>
    </contour>
    <contour>
      <point x="521" y="25" type="line"/>
      <point x="521" y="-4" type="line"/>
      <point x="414" y="-4" type="line"/>
      <point x="264" y="230" type="line"/>
      <point x="155" y="230" type="line"/>
      <point x="155" y="36" type="line"/>
      <point x="186" y="26" type="line"/>
      <point x="186" y="-4" type="line"/>
      <point x="34" y="-4" type="line"/>
      <point x="34" y="25" type="line"/>
      <point x="67" y="36" type="line"/>
      <point x="67" y="501" type="line"/>
      <point x="29" y="501" type="line"/>
      <point x="29" y="542" type="line"/>
      <point x="255" y="542" type="line" smooth="yes"/>
      <point x="358" y="542"/>
      <point x="457" y="519"/>
      <point x="457" y="394" type="curve" smooth="yes"/>
      <point x="457" y="322"/>
      <point x="418" y="267"/>
      <point x="350" y="244" type="curve"/>
      <point x="491" y="37" type="line"/>
    </contour>
  </outline>
</glyph>
<glyph name="T" format="2">
  <advance width="516"/>
  <unicode hex="0054"/>
  <outline>
    <contour>
      <point x="492" y="493" type="line"/>
      <point x="492" y="466" type="line"/>
      <point x="456" y="466" type="line"/>
      <point x="445" y="490" type="line"/>
      <point x="421" y="495"/>
      <point x="406" y="496"/>
      <point x="379" y="497" type="curve"/>
      <point x="354" y="497"/>
      <point x="328" y="497"/>
      <point x="304" y="497" type="curve"/>
      <point x="304" y="36" type="line"/>
      <point x="339" y="26" type="line"/>
      <point x="339" y="-4" type="line"/>
      <point x="181" y="-4" type="line"/>
      <point x="181" y="26" type="line"/>
      <point x="216" y="36" type="line"/>
      <point x="216" y="497" type="line"/>
      <point x="188" y="497"/>
      <point x="160" y="498"/>
      <point x="132" y="497" type="curve" smooth="yes"/>
      <point x="109" y="496"/>
      <point x="98" y="495"/>
      <point x="77" y="490" type="curve"/>
      <point x="66" y="466" type="line"/>
      <point x="30" y="466" type="line"/>
      <point x="29" y="477"/>
      <point x="29" y="487"/>
      <point x="29" y="496" type="curve" smooth="yes"/>
      <point x="29" y="512"/>
      <point x="27" y="531"/>
      <point x="30" y="542" type="curve"/>
      <point x="492" y="542" type="line"/>
    </contour>
  </outline>
</glyph>
<glyph name="U" format="2">
  <advance width="562"/>
  <unicode hex="0055"/>
  <outline>
    <contour>
      <point x="545" y="542" type="line"/>
      <point x="545" y="501" type="line"/>
      <point x="516" y="501" type="line"/>
      <point x="516" y="185" type="line" smooth="yes"/>
      <point x="516" y="48"/>
      <point x="426" y="-12"/>
      <point x="294" y="-12" type="curve" smooth="yes"/>
      <point x="169" y="-12"/>
      <point x="56" y="41"/>
      <point x="56" y="177" type="curve" smooth="yes"/>
      <point x="56" y="501" type="line"/>
      <point x="27" y="501" type="line"/>
      <point x="27" y="542" type="line"/>
      <point x="172" y="542" type="line"/>
      <point x="172" y="501" type="line"/>
      <point x="143" y="501" type="line"/>
      <point x="143" y="183" type="line" smooth="yes"/>
      <point x="143" y="91"/>
      <point x="207" y="42"/>
      <point x="300" y="42" type="curve" smooth="yes"/>
      <point x="393" y="42"/>
      <point x="464" y="84"/>
      <point x="464" y="181" type="curve" smooth="yes"/>
      <point x="464" y="501" type="line"/>
      <point x="432" y="501" type="line"/>
      <point x="432" y="542" type="line"/>
    </contour>
  </outline>
</glyph>
<glyph name="V" format="2">
  <advance width="567"/>
  <unicode hex="0056"/>
  <outline>
    <contour>
      <point x="558" y="542" type="line"/>
      <point x="558" y="502" type="line"/>
      <point x="527" y="501" type="line"/>
      <point x="301" y="-16" type="line"/>
      <point x="274" y="-16" type="line"/>
      <point x="46" y="501" type="line"/>
      <point x="14" y="501" type="line"/>
      <point x="14" y="542" type="line"/>
      <point x="171" y="542" type="line"/>
      <point x="171" y="501" type="line"/>
      <point x="141" y="501" type="line"/>
      <point x="306" y="123" type="line"/>
      <point x="472" y="501" type="line"/>
      <point x="443" y="501" type="line"/>
      <point x="443" y="542" type="line"/>
    </contour>
  </outline>
</glyph>
<glyph name="W" format="2">
  <advance width="774"/>
  <unicode hex="0057"/>
  <outline>
    <contour>
      <point x="757" y="542" type="line"/>
      <point x="757" y="502" type="line"/>
      <point x="729" y="501" type="line"/>
      <point x="554" y="-16" type="line"/>
      <point x="525" y="-16" type="line"/>
      <point x="390" y="344" type="line"/>
      <point x="250" y="-16" type="line"/>
      <point x="222" y="-16" type="line"/>
      <point x="44" y="501" type="line"/>
      <point x="16" y="502" type="line"/>
      <point x="16" y="542" type="line"/>
      <point x="161" y="542" type="line"/>
      <point x="161" y="501" type="line"/>
      <point x="134" y="501" type="line"/>
      <point x="255" y="152" type="line"/>
      <point x="379" y="465" type="line" smooth="yes"/>
      <point x="384" y="478"/>
      <point x="390" y="487"/>
      <point x="397" y="492" type="curve" smooth="yes"/>
      <point x="408" y="501"/>
      <point x="421" y="501"/>
      <point x="434" y="468" type="curve" smooth="yes"/>
      <point x="556" y="152" type="line"/>
      <point x="672" y="501" type="line"/>
      <point x="640" y="501" type="line"/>
      <point x="640" y="542" type="line"/>
    </contour>
  </outline>
</glyph>
<glyph name="X" format="2">
  <advance width="567"/>
  <unicode hex="0058"/>
  <outline>
    <contour>
      <point x="547" y="25" type="line"/>
      <point x="547" y="-4" type="line"/>
      <point x="376" y="-4" type="line"/>
      <point x="376" y="25" type="line"/>
      <point x="410" y="36" type="line"/>
      <point x="268" y="232" type="line"/>
      <point x="121" y="36" type="line"/>
      <point x="153" y="25" type="line"/>
      <point x="153" y="-4" type="line"/>
      <point x="18" y="-4" type="line"/>
      <point x="18" y="25" type="line"/>
      <point x="59" y="37" type="line"/>
      <point x="238" y="265" type="line"/>
      <point x="66" y="501" type="line"/>
      <point x="34" y="501" type="line"/>
      <point x="34" y="542" type="line"/>
      <point x="205" y="542" type="line"/>
      <point x="205" y="501" type="line"/>
      <point x="171" y="502" type="line"/>
      <point x="296" y="333" type="line"/>
      <point x="429" y="502" type="line"/>
      <point x="396" y="501" type="line"/>
      <point x="396" y="542" type="line"/>
      <point x="522" y="542" type="line"/>
      <point x="522" y="502" type="line"/>
      <point x="491" y="501" type="line"/>
      <point x="326" y="299" type="line"/>
      <point x="514" y="37" type="line"/>
    </contour>
  </outline>
</glyph>
<glyph name="Y" format="2">
  <advance width="572"/>
  <unicode hex="0059"/>
  <outline>
    <contour>
      <point x="561" y="542" type="line"/>
      <point x="561" y="502" type="line"/>
      <point x="530" y="501" type="line"/>
      <point x="335" y="210" type="line"/>
      <point x="335" y="36" type="line"/>
      <point x="381" y="26" type="line"/>
      <point x="381" y="-4" type="line"/>
      <point x="203" y="-4" type="line"/>
      <point x="203" y="26" type="line"/>
      <point x="248" y="36" type="line"/>
      <point x="248" y="208" type="line"/>
      <point x="41" y="501" type="line"/>
      <point x="9" y="501" type="line"/>
      <point x="9" y="542" type="line"/>
      <point x="186" y="542" type="line"/>
      <point x="186" y="501" type="line"/>
      <point x="147" y="501" type="line"/>
      <point x="313" y="267" type="line"/>
      <point x="472" y="501" type="line"/>
      <point x="437" y="501" type="line"/>
      <point x="437" y="542" type="line"/>
    </contour>
  </outline>
</glyph>
<glyph name="Z" format="2">
  <advance width="471"/>
  <unicode hex="005A"/>
  <outline>
    <contour>
      <point x="453" y="73" type="curve"/>
      <point x="442" y="-4" type="line"/>
      <point x="26" y="-4" type="line"/>
      <point x="26" y="39" type="line"/>
      <point x="323" y="497" type="line"/>
      <point x="164" y="497" type="line" smooth="yes"/>
      <point x="141" y="497"/>
      <point x="119" y="495"/>
      <point x="100" y="490" type="curve"/>
      <point x="88" y="465" type="line"/>
      <point x="51" y="465" type="line"/>
      <point x="50" y="476"/>
      <point x="50" y="486"/>
      <point x="50" y="496" type="curve" smooth="yes"/>
      <point x="50" y="513"/>
      <point x="48" y="531"/>
      <point x="51" y="542" type="curve"/>
      <point x="426" y="542" type="line"/>
      <point x="426" y="501" type="line"/>
      <point x="127" y="39" type="line"/>
      <point x="234" y="39" type="line" smooth="yes"/>
      <point x="286" y="39"/>
      <point x="341" y="40"/>
      <point x="392" y="51" type="curve"/>
      <point x="416" y="73" type="line"/>
      <point x="419" y="73"/>
      <point x="423" y="73"/>
      <point x="427" y="74" type="curve"/>
      <point x="434" y="74"/>
      <point x="442" y="76"/>
    </contour>
  </outline>
</glyph>
<glyph name="bracketleft" format="2">
  <advance width="273"/>
  <unicode hex="005B"/>
  <outline>
    <contour>
      <point x="56" y="617" type="line"/>
      <point x="255" y="617" type="line"/>
      <point x="253" y="565" type="line"/>
      <point x="130" y="565" type="line"/>
      <point x="130" y="-70" type="line"/>
      <point x="248" y="-70" type="line"/>
      <point x="251" y="-122" type="line"/>
      <point x="56" y="-122" type="line"/>
    </contour>
  </outline>
</glyph>
<glyph name="_92" format="2">
  <advance width="288"/>
  <unicode hex="005C"/>
  <outline>
    <contour>
      <point x="84" y="546" type="line"/>
      <point x="276" y="-12" type="line"/>
      <point x="225" y="-12" type="line"/>
      <point x="34" y="546" type="line"/>
    </contour>
  </outline>
</glyph>
<glyph name="bracketright" format="2">
  <advance width="273"/>
  <unicode hex="005D"/>
  <outline>
    <contour>
      <point x="217" y="617" type="line"/>
      <point x="217" y="-129" type="line"/>
      <point x="25" y="-129" type="line"/>
      <point x="25" y="-71" type="line"/>
      <point x="144" y="-69" type="line"/>
      <point x="144" y="559" type="line"/>
      <point x="25" y="559" type="line"/>
      <point x="25" y="617" type="line"/>
    </contour>
  </outline>
</glyph>
<glyph name="asciicircum" format="2">
  <advance width="385"/>
  <unicode hex="005E"/>
  <outline>
    <contour>
      <point x="206" y="612" type="line"/>
      <point x="383" y="301" type="line"/>
      <point x="330" y="301" type="line"/>
      <point x="193" y="540" type="line"/>
      <point x="55" y="301" type="line"/>
      <point x="3" y="301" type="line"/>
      <point x="180" y="612" type="line"/>
    </contour>
  </outline>
</glyph>
<glyph name="underscore" format="2">
  <advance width="410"/>
  <unicode hex="005F"/>
  <outline>
    <contour>
      <point x="421" y="-59" type="line"/>
      <point x="421" y="-110" type="line"/>
      <point x="-10" y="-110" type="line"/>
      <point x="-10" y="-59" type="line"/>
    </contour>
  </outline>
</glyph>
<glyph name="grave" format="2">
  <advance width="273"/>
  <unicode hex="0060"/>
  <outline>
    <contour>
      <point x="216" y="463" type="line"/>
      <point x="216" y="443" type="line"/>
      <point x="188" y="443" type="line"/>
      <point x="43" y="553" type="line"/>
      <point x="43" y="575" type="line"/>
      <point x="135" y="575" type="line"/>
    </contour>
  </outline>
</glyph>
<glyph name="_97" format="2">
  <advance width="369"/>
  <unicode hex="0061"/>
  <outline>
    <contour>
      <point x="255" y="61" type="curve"/>
      <point x="255" y="187" type="line"/>
      <point x="238" y="186"/>
      <point x="222" y="187"/>
      <point x="206" y="186" type="curve" smooth="yes"/>
      <point x="189" y="185"/>
      <point x="164" y="183"/>
      <point x="152" y="179" type="curve" smooth="yes"/>
      <point x="127" y="170"/>
      <point x="110" y="154"/>
      <point x="110" y="107" type="curve" smooth="yes"/>
      <point x="110" y="68"/>
      <point x="123" y="41"/>
      <point x="163" y="41" type="curve" smooth="yes"/>
      <point x="194" y="41"/>
      <point x="227" y="48"/>
    </contour>
    <contour>
      <point x="358" y="22" type="line"/>
      <point x="358" y="-4" type="line"/>
      <point x="266" y="-4" type="line"/>
      <point x="259" y="28" type="line"/>
      <point x="228" y="0"/>
      <point x="176" y="-12"/>
      <point x="135" y="-12" type="curve" smooth="yes"/>
      <point x="60" y="-12"/>
      <point x="34" y="37"/>
      <point x="34" y="104" type="curve" smooth="yes"/>
      <point x="34" y="169"/>
      <point x="66" y="199"/>
      <point x="109" y="212" type="curve" smooth="yes"/>
      <point x="132" y="219"/>
      <point x="155" y="222"/>
      <point x="179" y="223" type="curve" smooth="yes"/>
      <point x="255" y="225" type="line"/>
      <point x="255" y="279" type="line" smooth="yes"/>
      <point x="255" y="319"/>
      <point x="245" y="349"/>
      <point x="202" y="349" type="curve" smooth="yes"/>
      <point x="178" y="349"/>
      <point x="143" y="343"/>
      <point x="123" y="332" type="curve"/>
      <point x="108" y="304" type="line"/>
      <point x="67" y="304" type="line"/>
      <point x="67" y="375" type="line"/>
      <point x="108" y="384"/>
      <point x="167" y="390"/>
      <point x="206" y="390" type="curve" smooth="yes"/>
      <point x="279" y="390"/>
      <point x="331" y="363"/>
      <point x="331" y="282" type="curve" smooth="yes"/>
      <point x="331" y="32" type="line"/>
    </contour>
  </outline>
</glyph>
<glyph name="_98" format="2">
  <advance width="410"/>
  <unicode hex="0062"/>
  <outline>
    <contour>
      <point x="307" y="199" type="curve" smooth="yes"/>
      <point x="307" y="272"/>
      <point x="280" y="339"/>
      <point x="197" y="339" type="curve" smooth="yes"/>
      <point x="174" y="339"/>
      <point x="144" y="336"/>
      <point x="121" y="328" type="curve"/>
      <point x="121" y="37" type="line"/>
      <point x="146" y="33"/>
      <point x="171" y="31"/>
      <point x="197" y="31" type="curve" smooth="yes"/>
      <point x="286" y="31"/>
      <point x="307" y="123"/>
    </contour>
    <contour>
      <point x="389" y="199" type="curve" smooth="yes"/>
      <point x="389" y="82"/>
      <point x="330" y="-12"/>
      <point x="198" y="-12" type="curve" smooth="yes"/>
      <point x="149" y="-12"/>
      <point x="94" y="-3"/>
      <point x="45" y="16" type="curve"/>
      <point x="45" y="537" type="line"/>
      <point x="10" y="537" type="line"/>
      <point x="10" y="574" type="line"/>
      <point x="121" y="574" type="line"/>
      <point x="121" y="434" type="line" smooth="yes"/>
      <point x="121" y="411"/>
      <point x="120" y="388"/>
      <point x="119" y="365" type="curve"/>
      <point x="148" y="384"/>
      <point x="182" y="391"/>
      <point x="215" y="391" type="curve" smooth="yes"/>
      <point x="336" y="391"/>
      <point x="389" y="307"/>
    </contour>
  </outline>
</glyph>
<glyph name="_99" format="2">
  <advance width="364"/>
  <unicode hex="0063"/>
  <outline>
    <contour>
      <point x="339" y="90" type="curve"/>
      <point x="339" y="31" type="line"/>
      <point x="303" y="6"/>
      <point x="248" y="-12"/>
      <point x="209" y="-12" type="curve" smooth="yes"/>
      <point x="75" y="-12"/>
      <point x="21" y="65"/>
      <point x="21" y="191" type="curve" smooth="yes"/>
      <point x="21" y="311"/>
      <point x="79" y="391"/>
      <point x="206" y="391" type="curve" smooth="yes"/>
      <point x="246" y="391"/>
      <point x="291" y="386"/>
      <point x="334" y="378" type="curve"/>
      <point x="334" y="294" type="line"/>
      <point x="298" y="294" type="line"/>
      <point x="281" y="332" type="line"/>
      <point x="258" y="344"/>
      <point x="232" y="349"/>
      <point x="205" y="349" type="curve" smooth="yes"/>
      <point x="120" y="349"/>
      <point x="103" y="267"/>
      <point x="103" y="191" type="curve" smooth="yes"/>
      <point x="103" y="97"/>
      <point x="131" y="39"/>
      <point x="232" y="39" type="curve" smooth="yes"/>
      <point x="265" y="39"/>
      <point x="300" y="66"/>
    </contour>
  </outline>
</glyph>
<glyph name="d" format="2">
  <advance width="410"/>
  <unicode hex="0064"/>
  <outline>
    <contour>
      <point x="292" y="53" type="curve"/>
      <point x="292" y="343" type="line"/>
      <point x="267" y="347"/>
      <point x="231" y="349"/>
      <point x="206" y="349" type="curve" smooth="yes"/>
      <point x="121" y="349"/>
      <point x="107" y="257"/>
      <point x="107" y="185" type="curve" smooth="yes"/>
      <point x="107" y="111"/>
      <point x="123" y="39"/>
      <point x="206" y="39" type="curve" smooth="yes"/>
      <point x="233" y="39"/>
      <point x="268" y="42"/>
    </contour>
    <contour>
      <point x="395" y="22" type="line"/>
      <point x="395" y="-4" type="line"/>
      <point x="300" y="-4" type="line"/>
      <point x="296" y="19" type="line"/>
      <point x="265" y="-1"/>
      <point x="220" y="-12"/>
      <point x="184" y="-12" type="curve" smooth="yes"/>
      <point x="60" y="-12"/>
      <point x="25" y="77"/>
      <point x="25" y="185" type="curve" smooth="yes"/>
      <point x="25" y="301"/>
      <point x="72" y="391"/>
      <point x="202" y="391" type="curve" smooth="yes"/>
      <point x="229" y="391"/>
      <point x="267" y="390"/>
      <point x="294" y="383" type="curve"/>
      <point x="291" y="408"/>
      <point x="290" y="434"/>
      <point x="290" y="459" type="curve"/>
      <point x="291" y="486"/>
      <point x="292" y="512"/>
      <point x="292" y="537" type="curve"/>
      <point x="259" y="537" type="line"/>
      <point x="259" y="574" type="line"/>
      <point x="369" y="574" type="line"/>
      <point x="369" y="32" type="line"/>
    </contour>
  </outline>
</glyph>
<glyph name="e" format="2">
  <advance width="364"/>
  <unicode hex="0065"/>
  <outline>
    <contour>
      <point x="110" y="226" type="curve"/>
      <point x="261" y="226" type="line"/>
      <point x="261" y="281"/>
      <point x="254" y="349"/>
      <point x="191" y="349" type="curve" smooth="yes"/>
      <point x="126" y="349"/>
      <point x="110" y="285"/>
    </contour>
    <contour>
      <point x="341" y="184" type="curve"/>
      <point x="109" y="184" type="line"/>
      <point x="109" y="182" type="line"/>
      <point x="109" y="100"/>
      <point x="129" y="39"/>
      <point x="221" y="39" type="curve" smooth="yes"/>
      <point x="254" y="39"/>
      <point x="289" y="59"/>
      <point x="326" y="82" type="curve"/>
      <point x="326" y="30" type="line"/>
      <point x="290" y="7"/>
      <point x="240" y="-12"/>
      <point x="201" y="-12" type="curve" smooth="yes"/>
      <point x="65" y="-12"/>
      <point x="27" y="70"/>
      <point x="27" y="191" type="curve" smooth="yes"/>
      <point x="27" y="299"/>
      <point x="67" y="391"/>
      <point x="191" y="391" type="curve" smooth="yes"/>
      <point x="324" y="391"/>
      <point x="341" y="297"/>
    </contour>
  </outline>
</glyph>
<glyph name="f" format="2">
  <advance width="297"/>
  <unicode hex="0066"/>
  <outline>
    <contour>
      <point x="283" y="573" type="curve"/>
      <point x="283" y="503" type="line"/>
      <point x="245" y="503" type="line"/>
      <point x="226" y="534" type="line"/>
      <point x="218" y="538"/>
      <point x="209" y="540"/>
      <point x="198" y="540" type="curve" smooth="yes"/>
      <point x="175" y="540"/>
      <point x="166" y="525"/>
      <point x="161" y="504" type="curve" smooth="yes"/>
      <point x="156" y="483"/>
      <point x="157" y="460"/>
      <point x="157" y="439" type="curve" smooth="yes"/>
      <point x="157" y="381" type="line"/>
      <point x="217" y="381" type="line"/>
      <point x="217" y="338" type="line"/>
      <point x="157" y="338" type="line"/>
      <point x="157" y="35" type="line"/>
      <point x="194" y="22" type="line"/>
      <point x="194" y="-4" type="line"/>
      <point x="44" y="-4" type="line"/>
      <point x="44" y="22" type="line"/>
      <point x="80" y="35" type="line"/>
      <point x="80" y="338" type="line"/>
      <point x="25" y="338" type="line"/>
      <point x="25" y="382" type="line"/>
      <point x="80" y="382" type="line"/>
      <point x="80" y="468"/>
      <point x="94" y="582"/>
      <point x="211" y="582" type="curve" smooth="yes"/>
      <point x="230" y="582"/>
      <point x="260" y="580"/>
    </contour>
  </outline>
</glyph>
<glyph name="g" format="2">
  <advance width="417"/>
  <unicode hex="0067"/>
  <outline>
    <contour>
      <point x="327" y="-50" type="curve" smooth="yes"/>
      <point x="327" y="-19"/>
      <point x="306" y="-6"/>
      <point x="275" y="-6" type="curve" smooth="yes"/>
      <point x="161" y="-6" type="line"/>
      <point x="140" y="-24"/>
      <point x="97" y="-43"/>
      <point x="97" y="-68" type="curve" smooth="yes"/>
      <point x="97" y="-121"/>
      <point x="144" y="-119"/>
      <point x="193" y="-119" type="curve" smooth="yes"/>
      <point x="255" y="-119"/>
      <point x="327" y="-119"/>
    </contour>
    <contour>
      <point x="274" y="257" type="curve" smooth="yes"/>
      <point x="274" y="314"/>
      <point x="260" y="351"/>
      <point x="199" y="351" type="curve" smooth="yes"/>
      <point x="139" y="351"/>
      <point x="123" y="316"/>
      <point x="123" y="257" type="curve" smooth="yes"/>
      <point x="123" y="200"/>
      <point x="138" y="162"/>
      <point x="199" y="162" type="curve" smooth="yes"/>
      <point x="259" y="162"/>
      <point x="274" y="201"/>
    </contour>
    <contour>
      <point x="399" y="-37" type="curve" smooth="yes"/>
      <point x="399" y="-151"/>
      <point x="281" y="-181"/>
      <point x="193" y="-181" type="curve" smooth="yes"/>
      <point x="135" y="-181"/>
      <point x="30" y="-170"/>
      <point x="30" y="-85" type="curve" smooth="yes"/>
      <point x="30" y="-45"/>
      <point x="68" y="-20"/>
      <point x="96" y="1" type="curve"/>
      <point x="69" y="12"/>
      <point x="44" y="39"/>
      <point x="43" y="72" type="curve"/>
      <point x="115" y="134" type="line"/>
      <point x="68" y="158"/>
      <point x="43" y="209"/>
      <point x="43" y="257" type="curve" smooth="yes"/>
      <point x="43" y="356"/>
      <point x="115" y="391"/>
      <point x="201" y="391" type="curve" smooth="yes"/>
      <point x="222" y="391"/>
      <point x="253" y="389"/>
      <point x="274" y="382" type="curve"/>
      <point x="287" y="394" type="line" smooth="yes"/>
      <point x="296" y="402"/>
      <point x="306" y="409"/>
      <point x="315" y="416" type="curve" smooth="yes"/>
      <point x="336" y="431"/>
      <point x="359" y="432"/>
      <point x="382" y="400" type="curve"/>
      <point x="385" y="397"/>
      <point x="388" y="391"/>
      <point x="392" y="384" type="curve"/>
      <point x="395" y="381"/>
      <point x="397" y="377"/>
      <point x="399" y="373" type="curve"/>
      <point x="363" y="355" type="line"/>
      <point x="348" y="380" type="line"/>
      <point x="317" y="355" type="line"/>
      <point x="344" y="328"/>
      <point x="353" y="288"/>
      <point x="353" y="257" type="curve" smooth="yes"/>
      <point x="353" y="159"/>
      <point x="290" y="119"/>
      <point x="201" y="119" type="curve" smooth="yes"/>
      <point x="181" y="119"/>
      <point x="188" y="118"/>
      <point x="169" y="121" type="curve"/>
      <point x="117" y="79" type="line"/>
      <point x="121" y="68"/>
      <point x="139" y="66"/>
      <point x="162" y="66" type="curve"/>
      <point x="189" y="65"/>
      <point x="224" y="67"/>
      <point x="259" y="67" type="curve"/>
      <point x="327" y="66"/>
      <point x="399" y="50"/>
    </contour>
  </outline>
</glyph>
<glyph name="h" format="2">
  <advance width="410"/>
  <unicode hex="0068"/>
  <outline>
    <contour>
      <point x="389" y="22" type="line"/>
      <point x="389" y="-4" type="line"/>
      <point x="257" y="-4" type="line"/>
      <point x="257" y="22" type="line"/>
      <point x="287" y="32" type="line"/>
      <point x="287" y="271" type="line" smooth="yes"/>
      <point x="287" y="312"/>
      <point x="259" y="335"/>
      <point x="216" y="335" type="curve" smooth="yes"/>
      <point x="188" y="335"/>
      <point x="158" y="331"/>
      <point x="131" y="324" type="curve"/>
      <point x="131" y="32" type="line"/>
      <point x="161" y="22" type="line"/>
      <point x="161" y="-4" type="line"/>
      <point x="26" y="-4" type="line"/>
      <point x="26" y="22" type="line"/>
      <point x="54" y="32" type="line"/>
      <point x="54" y="537" type="line"/>
      <point x="18" y="537" type="line"/>
      <point x="18" y="574" type="line"/>
      <point x="131" y="574" type="line"/>
      <point x="131" y="406" type="line" smooth="yes"/>
      <point x="131" y="389"/>
      <point x="130" y="372"/>
      <point x="129" y="355" type="curve"/>
      <point x="164" y="374"/>
      <point x="214" y="391"/>
      <point x="250" y="391" type="curve" smooth="yes"/>
      <point x="325" y="391"/>
      <point x="364" y="343"/>
      <point x="364" y="275" type="curve" smooth="yes"/>
      <point x="364" y="32" type="line"/>
    </contour>
  </outline>
</glyph>
<glyph name="i" format="2">
  <advance width="237"/>
  <unicode hex="0069"/>
  <outline>
    <contour>
      <point x="206" y="22" type="line"/>
      <point x="206" y="-4" type="line"/>
      <point x="41" y="-4" type="line"/>
      <point x="41" y="22" type="line"/>
      <point x="90" y="32" type="line"/>
      <point x="90" y="344" type="line"/>
      <point x="57" y="344" type="line"/>
      <point x="57" y="391" type="line"/>
      <point x="162" y="391" type="line"/>
      <point x="162" y="32" type="line"/>
    </contour>
    <contour>
      <point x="166" y="509" type="curve" smooth="yes"/>
      <point x="166" y="482"/>
      <point x="144" y="461"/>
      <point x="117" y="461" type="curve" smooth="yes"/>
      <point x="90" y="461"/>
      <point x="69" y="482"/>
      <point x="69" y="509" type="curve" smooth="yes"/>
      <point x="69" y="536"/>
      <point x="90" y="558"/>
      <point x="117" y="558" type="curve" smooth="yes"/>
      <point x="144" y="558"/>
      <point x="166" y="536"/>
    </contour>
  </outline>
</glyph>
<glyph name="j" format="2">
  <advance width="230"/>
  <unicode hex="006A"/>
  <outline>
    <contour>
      <point x="182" y="391" type="line"/>
      <point x="182" y="-15" type="line" smooth="yes"/>
      <point x="182" y="-95"/>
      <point x="157" y="-179"/>
      <point x="58" y="-179" type="curve" smooth="yes"/>
      <point x="38" y="-179"/>
      <point x="9" y="-177"/>
      <point x="-14" y="-170" type="curve"/>
      <point x="-14" y="-102" type="line"/>
      <point x="23" y="-102" type="line"/>
      <point x="34" y="-128" type="line"/>
      <point x="42" y="-134"/>
      <point x="52" y="-137"/>
      <point x="63" y="-137" type="curve" smooth="yes"/>
      <point x="107" y="-137"/>
      <point x="106" y="-65"/>
      <point x="106" y="-35" type="curve" smooth="yes"/>
      <point x="106" y="344" type="line"/>
      <point x="69" y="344" type="line"/>
      <point x="69" y="391" type="line"/>
    </contour>
    <contour>
      <point x="186" y="509" type="curve" smooth="yes"/>
      <point x="186" y="482"/>
      <point x="165" y="461"/>
      <point x="138" y="461" type="curve" smooth="yes"/>
      <point x="111" y="461"/>
      <point x="89" y="482"/>
      <point x="89" y="509" type="curve" smooth="yes"/>
      <point x="89" y="536"/>
      <point x="111" y="558"/>
      <point x="138" y="558" type="curve" smooth="yes"/>
      <point x="165" y="558"/>
      <point x="186" y="536"/>
    </contour>
  </outline>
</glyph>
<glyph name="_107" format="2">
  <advance width="420"/>
  <unicode hex="006B"/>
  <outline>
    <contour>
      <point x="420" y="22" type="line"/>
      <point x="420" y="-4" type="line"/>
      <point x="276" y="-4" type="line"/>
      <point x="276" y="22" type="line"/>
      <point x="298" y="31" type="line"/>
      <point x="202" y="195" type="line"/>
      <point x="138" y="134" type="line"/>
      <point x="138" y="32" type="line"/>
      <point x="168" y="22" type="line"/>
      <point x="168" y="-4" type="line"/>
      <point x="34" y="-4" type="line"/>
      <point x="34" y="22" type="line"/>
      <point x="62" y="32" type="line"/>
      <point x="62" y="537" type="line"/>
      <point x="26" y="537" type="line"/>
      <point x="26" y="574" type="line"/>
      <point x="138" y="574" type="line"/>
      <point x="138" y="194" type="line"/>
      <point x="298" y="345" type="line"/>
      <point x="273" y="355" type="line"/>
      <point x="273" y="381" type="line"/>
      <point x="386" y="381" type="line"/>
      <point x="386" y="354" type="line"/>
      <point x="357" y="345" type="line"/>
      <point x="253" y="239" type="line"/>
      <point x="388" y="32" type="line"/>
    </contour>
  </outline>
</glyph>
<glyph name="_108" format="2">
  <advance width="227"/>
  <unicode hex="006C"/>
  <outline>
    <contour>
      <point x="211" y="32" type="line"/>
      <point x="211" y="-4" type="line"/>
      <point x="56" y="-4" type="line"/>
      <point x="56" y="22" type="line"/>
      <point x="90" y="32" type="line"/>
      <point x="90" y="537" type="line"/>
      <point x="56" y="537" type="line"/>
      <point x="56" y="574" type="line"/>
      <point x="167" y="574" type="line"/>
      <point x="167" y="32" type="line"/>
    </contour>
  </outline>
</glyph>
<glyph name="_109" format="2">
  <advance width="655"/>
  <unicode hex="006D"/>
  <outline>
    <contour>
      <point x="632" y="22" type="line"/>
      <point x="632" y="-4" type="line"/>
      <point x="491" y="-4" type="line"/>
      <point x="491" y="22" type="line"/>
      <point x="527" y="32" type="line"/>
      <point x="527" y="268" type="line" smooth="yes"/>
      <point x="527" y="311"/>
      <point x="511" y="332"/>
      <point x="468" y="332" type="curve" smooth="yes"/>
      <point x="437" y="332"/>
      <point x="395" y="305"/>
      <point x="365" y="299" type="curve"/>
      <point x="368" y="284"/>
      <point x="370" y="291"/>
      <point x="370" y="275" type="curve" smooth="yes"/>
      <point x="370" y="32" type="line"/>
      <point x="407" y="22" type="line"/>
      <point x="407" y="-4" type="line"/>
      <point x="258" y="-4" type="line"/>
      <point x="258" y="22" type="line"/>
      <point x="294" y="32" type="line"/>
      <point x="294" y="268" type="line" smooth="yes"/>
      <point x="294" y="311"/>
      <point x="273" y="332"/>
      <point x="231" y="332" type="curve" smooth="yes"/>
      <point x="202" y="332"/>
      <point x="170" y="305"/>
      <point x="143" y="300" type="curve"/>
      <point x="143" y="32" type="line"/>
      <point x="180" y="22" type="line"/>
      <point x="180" y="-4" type="line"/>
      <point x="29" y="-4" type="line"/>
      <point x="29" y="22" type="line"/>
      <point x="67" y="32" type="line"/>
      <point x="67" y="344" type="line"/>
      <point x="27" y="343" type="line"/>
      <point x="29" y="381" type="line"/>
      <point x="139" y="381" type="line"/>
      <point x="141" y="343" type="line"/>
      <point x="175" y="361"/>
      <point x="228" y="391"/>
      <point x="265" y="391" type="curve" smooth="yes"/>
      <point x="298" y="391"/>
      <point x="334" y="371"/>
      <point x="353" y="340" type="curve"/>
      <point x="391" y="359"/>
      <point x="462" y="391"/>
      <point x="502" y="391" type="curve" smooth="yes"/>
      <point x="575" y="391"/>
      <point x="603" y="342"/>
      <point x="603" y="275" type="curve" smooth="yes"/>
      <point x="603" y="32" type="line"/>
    </contour>
  </outline>
</glyph>
<glyph name="_110" format="2">
  <advance width="427"/>
  <unicode hex="006E"/>
  <outline>
    <contour>
      <point x="422" y="22" type="line"/>
      <point x="422" y="-4" type="line"/>
      <point x="290" y="-4" type="line"/>
      <point x="290" y="22" type="line"/>
      <point x="320" y="32" type="line"/>
      <point x="320" y="268" type="line" smooth="yes"/>
      <point x="320" y="311"/>
      <point x="301" y="335"/>
      <point x="258" y="335" type="curve" smooth="yes"/>
      <point x="232" y="335"/>
      <point x="181" y="309"/>
      <point x="155" y="304" type="curve"/>
      <point x="155" y="32" type="line"/>
      <point x="186" y="22" type="line"/>
      <point x="186" y="-4" type="line"/>
      <point x="53" y="-4" type="line"/>
      <point x="53" y="22" type="line"/>
      <point x="78" y="32" type="line"/>
      <point x="78" y="344" type="line"/>
      <point x="43" y="342" type="line"/>
      <point x="43" y="381" type="line"/>
      <point x="150" y="381" type="line"/>
      <point x="153" y="344" type="line"/>
      <point x="185" y="363"/>
      <point x="257" y="391"/>
      <point x="293" y="391" type="curve" smooth="yes"/>
      <point x="366" y="391"/>
      <point x="396" y="343"/>
      <point x="396" y="275" type="curve" smooth="yes"/>
      <point x="396" y="32" type="line"/>
    </contour>
  </outline>
</glyph>
<glyph name="_111" format="2">
  <advance width="410"/>
  <unicode hex="006F"/>
  <outline>
    <contour>
      <point x="310" y="190" type="curve" smooth="yes"/>
      <point x="310" y="265"/>
      <point x="300" y="359"/>
      <point x="211" y="359" type="curve" smooth="yes"/>
      <point x="123" y="359"/>
      <point x="117" y="264"/>
      <point x="117" y="190" type="curve" smooth="yes"/>
      <point x="117" y="117"/>
      <point x="123" y="29"/>
      <point x="211" y="29" type="curve" smooth="yes"/>
      <point x="300" y="29"/>
      <point x="310" y="115"/>
    </contour>
    <contour>
      <point x="393" y="190" type="curve" smooth="yes"/>
      <point x="393" y="69"/>
      <point x="342" y="-12"/>
      <point x="211" y="-12" type="curve" smooth="yes"/>
      <point x="83" y="-12"/>
      <point x="35" y="73"/>
      <point x="35" y="190" type="curve" smooth="yes"/>
      <point x="35" y="310"/>
      <point x="86" y="401"/>
      <point x="215" y="401" type="curve" smooth="yes"/>
      <point x="343" y="401"/>
      <point x="393" y="307"/>
    </contour>
  </outline>
</glyph>
<glyph name="_112" format="2">
  <advance width="410"/>
  <unicode hex="0070"/>
  <outline>
    <contour>
      <point x="301" y="193" type="curve" smooth="yes"/>
      <point x="301" y="262"/>
      <point x="286" y="329"/>
      <point x="205" y="329" type="curve" smooth="yes"/>
      <point x="181" y="329"/>
      <point x="155" y="316"/>
      <point x="132" y="308" type="curve"/>
      <point x="132" y="45" type="line"/>
      <point x="156" y="40"/>
      <point x="181" y="29"/>
      <point x="205" y="29" type="curve" smooth="yes"/>
      <point x="289" y="29"/>
      <point x="301" y="121"/>
    </contour>
    <contour>
      <point x="383" y="193" type="curve" smooth="yes"/>
      <point x="383" y="81"/>
      <point x="335" y="-12"/>
      <point x="211" y="-12" type="curve" smooth="yes"/>
      <point x="184" y="-12"/>
      <point x="157" y="0"/>
      <point x="130" y="5" type="curve"/>
      <point x="134" y="-40"/>
      <point x="132" y="-94"/>
      <point x="132" y="-141" type="curve"/>
      <point x="158" y="-150" type="line"/>
      <point x="158" y="-179" type="line"/>
      <point x="28" y="-179" type="line"/>
      <point x="28" y="-151" type="line"/>
      <point x="56" y="-141" type="line"/>
      <point x="56" y="344" type="line"/>
      <point x="23" y="345" type="line"/>
      <point x="23" y="381" type="line"/>
      <point x="129" y="381" type="line"/>
      <point x="129" y="354" type="line"/>
      <point x="140" y="361"/>
      <point x="151" y="367"/>
      <point x="163" y="373" type="curve" smooth="yes"/>
      <point x="183" y="382"/>
      <point x="207" y="392"/>
      <point x="227" y="391" type="curve" smooth="yes"/>
      <point x="354" y="386"/>
      <point x="383" y="294"/>
    </contour>
  </outline>
</glyph>
<glyph name="_113" format="2">
  <advance width="410"/>
  <unicode hex="0071"/>
  <outline>
    <contour>
      <point x="282" y="50" type="curve"/>
      <point x="282" y="343" type="line"/>
      <point x="257" y="347"/>
      <point x="231" y="349"/>
      <point x="206" y="349" type="curve" smooth="yes"/>
      <point x="121" y="349"/>
      <point x="107" y="259"/>
      <point x="107" y="187" type="curve" smooth="yes"/>
      <point x="107" y="115"/>
      <point x="123" y="39"/>
      <point x="206" y="39" type="curve" smooth="yes"/>
      <point x="229" y="39"/>
      <point x="259" y="42"/>
    </contour>
    <contour>
      <point x="392" y="400" type="curve"/>
      <point x="391" y="338" type="line"/>
      <point x="359" y="338" type="line"/>
      <point x="359" y="-141" type="line"/>
      <point x="380" y="-151" type="line"/>
      <point x="380" y="-179" type="line"/>
      <point x="250" y="-179" type="line"/>
      <point x="250" y="-151" type="line"/>
      <point x="282" y="-141" type="line"/>
      <point x="282" y="-90"/>
      <point x="278" y="-37"/>
      <point x="285" y="14" type="curve"/>
      <point x="254" y="-5"/>
      <point x="219" y="-12"/>
      <point x="184" y="-12" type="curve" smooth="yes"/>
      <point x="60" y="-12"/>
      <point x="25" y="80"/>
      <point x="25" y="187" type="curve" smooth="yes"/>
      <point x="25" y="301"/>
      <point x="73" y="391"/>
      <point x="200" y="391" type="curve" smooth="yes"/>
      <point x="230" y="391"/>
      <point x="260" y="388"/>
      <point x="289" y="382" type="curve"/>
      <point x="292" y="385"/>
      <point x="297" y="387"/>
      <point x="302" y="390" type="curve"/>
      <point x="311" y="394"/>
      <point x="324" y="398"/>
      <point x="344" y="399" type="curve" smooth="yes"/>
      <point x="395" y="402"/>
      <point x="363" y="400"/>
    </contour>
  </outline>
</glyph>
<glyph name="_114" format="2">
  <advance width="306"/>
  <unicode hex="0072"/>
  <outline>
    <contour>
      <point x="287" y="280" type="curve"/>
      <point x="252" y="280" type="line"/>
      <point x="239" y="324" type="line"/>
      <point x="212" y="323"/>
      <point x="177" y="317"/>
      <point x="152" y="306" type="curve"/>
      <point x="152" y="32" type="line"/>
      <point x="187" y="22" type="line"/>
      <point x="187" y="-4" type="line"/>
      <point x="48" y="-4" type="line"/>
      <point x="48" y="22" type="line"/>
      <point x="76" y="32" type="line"/>
      <point x="76" y="344" type="line"/>
      <point x="38" y="343" type="line"/>
      <point x="38" y="381" type="line"/>
      <point x="149" y="381" type="line"/>
      <point x="151" y="339" type="line"/>
      <point x="186" y="366"/>
      <point x="221" y="386"/>
      <point x="268" y="386" type="curve"/>
      <point x="295" y="382"/>
      <point x="301" y="357"/>
      <point x="298" y="330" type="curve" smooth="yes"/>
      <point x="297" y="315"/>
      <point x="293" y="298"/>
    </contour>
  </outline>
</glyph>
<glyph name="_115" format="2">
  <advance width="344"/>
  <unicode hex="0073"/>
  <outline>
    <contour>
      <point x="321" y="106" type="curve" smooth="yes"/>
      <point x="321" y="16"/>
      <point x="243" y="-12"/>
      <point x="166" y="-12" type="curve" smooth="yes"/>
      <point x="131" y="-12"/>
      <point x="73" y="-6"/>
      <point x="36" y="7" type="curve"/>
      <point x="36" y="78" type="line"/>
      <point x="73" y="78" type="line"/>
      <point x="93" y="54" type="line"/>
      <point x="113" y="35"/>
      <point x="140" y="29"/>
      <point x="167" y="29" type="curve" smooth="yes"/>
      <point x="211" y="29"/>
      <point x="250" y="45"/>
      <point x="250" y="90" type="curve" smooth="yes"/>
      <point x="250" y="115"/>
      <point x="239" y="128"/>
      <point x="222" y="140" type="curve" smooth="yes"/>
      <point x="213" y="146"/>
      <point x="193" y="150"/>
      <point x="182" y="155" type="curve"/>
      <point x="146" y="167" type="line" smooth="yes"/>
      <point x="98" y="183"/>
      <point x="36" y="203"/>
      <point x="36" y="279" type="curve" smooth="yes"/>
      <point x="36" y="357"/>
      <point x="107" y="391"/>
      <point x="176" y="391" type="curve" smooth="yes"/>
      <point x="211" y="391"/>
      <point x="266" y="386"/>
      <point x="304" y="378" type="curve"/>
      <point x="304" y="307" type="line"/>
      <point x="267" y="307" type="line"/>
      <point x="249" y="333" type="line"/>
      <point x="233" y="346"/>
      <point x="198" y="349"/>
      <point x="177" y="349" type="curve" smooth="yes"/>
      <point x="140" y="349"/>
      <point x="105" y="332"/>
      <point x="105" y="295" type="curve" smooth="yes"/>
      <point x="105" y="272"/>
      <point x="125" y="260"/>
      <point x="144" y="249" type="curve" smooth="yes"/>
      <point x="152" y="244"/>
      <point x="162" y="240"/>
      <point x="174" y="235" type="curve" smooth="yes"/>
      <point x="186" y="231"/>
      <point x="208" y="227"/>
      <point x="220" y="223" type="curve" smooth="yes"/>
      <point x="269" y="207"/>
      <point x="321" y="181"/>
    </contour>
  </outline>
</glyph>
<glyph name="_116" format="2">
  <advance width="270"/>
  <unicode hex="0074"/>
  <outline>
    <contour>
      <point x="266" y="66" type="curve"/>
      <point x="266" y="11" type="line"/>
      <point x="239" y="-5"/>
      <point x="199" y="-12"/>
      <point x="172" y="-12" type="curve" smooth="yes"/>
      <point x="113" y="-12"/>
      <point x="90" y="27"/>
      <point x="90" y="79" type="curve" smooth="yes"/>
      <point x="90" y="338" type="line"/>
      <point x="34" y="337" type="line"/>
      <point x="32" y="378" type="line"/>
      <point x="92" y="380" type="line"/>
      <point x="93" y="427" type="line"/>
      <point x="167" y="477" type="line"/>
      <point x="167" y="381" type="line"/>
      <point x="223" y="381" type="line"/>
      <point x="223" y="338" type="line"/>
      <point x="167" y="338" type="line"/>
      <point x="167" y="86" type="line" smooth="yes"/>
      <point x="167" y="59"/>
      <point x="178" y="39"/>
      <point x="205" y="39" type="curve" smooth="yes"/>
      <point x="224" y="39"/>
      <point x="238" y="45"/>
    </contour>
  </outline>
</glyph>
<glyph name="_117" format="2">
  <advance width="419"/>
  <unicode hex="0075"/>
  <outline>
    <contour>
      <point x="405" y="32" type="line"/>
      <point x="405" y="-4" type="line"/>
      <point x="296" y="-4" type="line"/>
      <point x="293" y="33" type="line"/>
      <point x="259" y="14"/>
      <point x="207" y="-12"/>
      <point x="169" y="-12" type="curve" smooth="yes"/>
      <point x="94" y="-12"/>
      <point x="68" y="36"/>
      <point x="68" y="103" type="curve" smooth="yes"/>
      <point x="68" y="344" type="line"/>
      <point x="30" y="344" type="line"/>
      <point x="30" y="381" type="line"/>
      <point x="145" y="381" type="line"/>
      <point x="145" y="107" type="line" smooth="yes"/>
      <point x="145" y="66"/>
      <point x="161" y="43"/>
      <point x="204" y="43" type="curve" smooth="yes"/>
      <point x="233" y="43"/>
      <point x="263" y="67"/>
      <point x="291" y="75" type="curve"/>
      <point x="291" y="344" type="line"/>
      <point x="265" y="344" type="line"/>
      <point x="265" y="381" type="line"/>
      <point x="368" y="381" type="line"/>
      <point x="368" y="32" type="line"/>
    </contour>
  </outline>
</glyph>
<glyph name="_118" format="2">
  <advance width="424"/>
  <unicode hex="0076"/>
  <outline>
    <contour>
      <point x="422" y="381" type="line"/>
      <point x="422" y="344" type="line"/>
      <point x="385" y="346" type="line"/>
      <point x="233" y="-12" type="line"/>
      <point x="197" y="-12" type="line"/>
      <point x="42" y="344" type="line"/>
      <point x="12" y="344" type="line"/>
      <point x="12" y="381" type="line"/>
      <point x="157" y="381" type="line"/>
      <point x="161" y="341" type="line"/>
      <point x="130" y="344" type="line"/>
      <point x="232" y="101" type="line"/>
      <point x="241" y="131"/>
      <point x="251" y="161"/>
      <point x="262" y="190" type="curve" smooth="yes"/>
      <point x="281" y="241"/>
      <point x="305" y="300"/>
      <point x="330" y="344" type="curve"/>
      <point x="303" y="344" type="line"/>
      <point x="303" y="381" type="line"/>
    </contour>
  </outline>
</glyph>
<glyph name="_119" format="2">
  <advance width="602"/>
  <unicode hex="0077"/>
  <outline>
    <contour>
      <point x="591" y="381" type="line"/>
      <point x="591" y="344" type="line"/>
      <point x="558" y="346" type="line"/>
      <point x="432" y="-12" type="line"/>
      <point x="393" y="-12" type="line"/>
      <point x="304" y="196" type="line"/>
      <point x="216" y="-12" type="line"/>
      <point x="179" y="-12" type="line"/>
      <point x="49" y="344" type="line"/>
      <point x="13" y="344" type="line"/>
      <point x="13" y="381" type="line"/>
      <point x="162" y="381" type="line"/>
      <point x="162" y="344" type="line"/>
      <point x="131" y="344" type="line"/>
      <point x="214" y="108" type="line"/>
      <point x="271" y="241" type="line"/>
      <point x="300" y="315" type="line"/>
      <point x="336" y="315" type="line"/>
      <point x="367" y="241" type="line"/>
      <point x="429" y="107" type="line"/>
      <point x="508" y="344" type="line"/>
      <point x="477" y="344" type="line"/>
      <point x="477" y="381" type="line"/>
    </contour>
  </outline>
</glyph>
<glyph name="_120" format="2">
  <advance width="424"/>
  <unicode hex="0078"/>
  <outline>
    <contour>
      <point x="405" y="22" type="line"/>
      <point x="405" y="-4" type="line"/>
      <point x="254" y="-4" type="line"/>
      <point x="254" y="22" type="line"/>
      <point x="281" y="31" type="line"/>
      <point x="196" y="150" type="line"/>
      <point x="100" y="30" type="line"/>
      <point x="127" y="22" type="line"/>
      <point x="127" y="-4" type="line"/>
      <point x="22" y="-4" type="line"/>
      <point x="22" y="22" type="line"/>
      <point x="48" y="29" type="line"/>
      <point x="172" y="186" type="line"/>
      <point x="52" y="346" type="line"/>
      <point x="22" y="343" type="line"/>
      <point x="22" y="381" type="line"/>
      <point x="163" y="381" type="line"/>
      <point x="163" y="346" type="line"/>
      <point x="140" y="346" type="line"/>
      <point x="218" y="236" type="line"/>
      <point x="308" y="345" type="line"/>
      <point x="281" y="344" type="line"/>
      <point x="281" y="381" type="line"/>
      <point x="396" y="381" type="line"/>
      <point x="396" y="344" type="line"/>
      <point x="361" y="345" type="line"/>
      <point x="242" y="201" type="line"/>
      <point x="379" y="31" type="line"/>
    </contour>
  </outline>
</glyph>
<glyph name="_121" format="2">
  <advance width="425"/>
  <unicode hex="0079"/>
  <outline>
    <contour>
      <point x="417" y="381" type="line"/>
      <point x="417" y="344" type="line"/>
      <point x="376" y="346" type="line"/>
      <point x="230" y="-24" type="line" smooth="yes"/>
      <point x="216" y="-59"/>
      <point x="204" y="-95"/>
      <point x="181" y="-126" type="curve" smooth="yes"/>
      <point x="158" y="-157"/>
      <point x="147" y="-183"/>
      <point x="95" y="-185" type="curve" smooth="yes"/>
      <point x="59" y="-187"/>
      <point x="43" y="-176"/>
      <point x="18" y="-157" type="curve"/>
      <point x="18" y="-91" type="line"/>
      <point x="24" y="-91"/>
      <point x="30" y="-91"/>
      <point x="36" y="-90" type="curve"/>
      <point x="45" y="-90"/>
      <point x="55" y="-88"/>
      <point x="58" y="-91" type="curve"/>
      <point x="69" y="-99"/>
      <point x="58" y="-139"/>
      <point x="98" y="-139" type="curve" smooth="yes"/>
      <point x="127" y="-139"/>
      <point x="141" y="-112"/>
      <point x="157" y="-85" type="curve" smooth="yes"/>
      <point x="173" y="-58"/>
      <point x="182" y="-31"/>
      <point x="191" y="-3" type="curve"/>
      <point x="50" y="344" type="line"/>
      <point x="10" y="343" type="line"/>
      <point x="10" y="381" type="line"/>
      <point x="165" y="381" type="line"/>
      <point x="165" y="344" type="line"/>
      <point x="137" y="344" type="line"/>
      <point x="232" y="99" type="line"/>
      <point x="324" y="344" type="line"/>
      <point x="297" y="344" type="line"/>
      <point x="297" y="381" type="line"/>
    </contour>
  </outline>
</glyph>
<glyph name="_122" format="2">
  <advance width="364"/>
  <unicode hex="007A"/>
  <outline>
    <contour>
      <point x="318" y="85" type="line"/>
      <point x="357" y="85" type="line"/>
      <point x="346" y="-4" type="line"/>
      <point x="27" y="-4" type="line"/>
      <point x="27" y="19" type="line"/>
      <point x="230" y="339" type="line"/>
      <point x="120" y="339" type="line" smooth="yes"/>
      <point x="101" y="339"/>
      <point x="97" y="338"/>
      <point x="82" y="327" type="curve"/>
      <point x="70" y="301" type="line"/>
      <point x="32" y="301" type="line"/>
      <point x="32" y="381" type="line"/>
      <point x="330" y="381" type="line"/>
      <point x="330" y="355" type="line"/>
      <point x="127" y="37" type="line"/>
      <point x="258" y="37" type="line" smooth="yes"/>
      <point x="279" y="37"/>
      <point x="282" y="41"/>
      <point x="297" y="54" type="curve"/>
    </contour>
  </outline>
</glyph>
<glyph name="_123" format="2">
  <advance width="394"/>
  <unicode hex="007B"/>
  <outline>
    <contour>
      <point x="324" y="-85" type="line"/>
      <point x="324" y="-114" type="line"/>
      <point x="265" y="-114" type="line" smooth="yes"/>
      <point x="189" y="-114"/>
      <point x="156" y="-41"/>
      <point x="156" y="28" type="curve" smooth="yes"/>
      <point x="156" y="146" type="line" smooth="yes"/>
      <point x="156" y="203"/>
      <point x="133" y="234"/>
      <point x="69" y="237" type="curve"/>
      <point x="69" y="264" type="line"/>
      <point x="120" y="265"/>
      <point x="140" y="285"/>
      <point x="149" y="314" type="curve" smooth="yes"/>
      <point x="154" y="329"/>
      <point x="156" y="346"/>
      <point x="157" y="365" type="curve" smooth="yes"/>
      <point x="158" y="385"/>
      <point x="157" y="405"/>
      <point x="156" y="425" type="curve" smooth="yes"/>
      <point x="153" y="506"/>
      <point x="154" y="614"/>
      <point x="265" y="614" type="curve" smooth="yes"/>
      <point x="324" y="614" type="line"/>
      <point x="324" y="585" type="line"/>
      <point x="294" y="585" type="line" smooth="yes"/>
      <point x="259" y="585"/>
      <point x="244" y="569"/>
      <point x="237" y="544" type="curve" smooth="yes"/>
      <point x="233" y="531"/>
      <point x="231" y="516"/>
      <point x="231" y="499" type="curve"/>
      <point x="230" y="480"/>
      <point x="232" y="443"/>
      <point x="233" y="424" type="curve" smooth="yes"/>
      <point x="235" y="356"/>
      <point x="237" y="275"/>
      <point x="166" y="251" type="curve"/>
      <point x="239" y="224"/>
      <point x="236" y="145"/>
      <point x="233" y="75" type="curve" smooth="yes"/>
      <point x="232" y="56"/>
      <point x="231" y="38"/>
      <point x="231" y="21" type="curve"/>
      <point x="232" y="4"/>
      <point x="233" y="-31"/>
      <point x="237" y="-44" type="curve" smooth="yes"/>
      <point x="244" y="-69"/>
      <point x="259" y="-85"/>
      <point x="294" y="-85" type="curve" smooth="yes"/>
    </contour>
  </outline>
</glyph>
<glyph name="bar" format="2">
  <advance width="186"/>
  <unicode hex="007C"/>
  <outline>
    <contour>
      <point x="120" y="604" type="line"/>
      <point x="120" y="-181" type="line"/>
      <point x="69" y="-181" type="line"/>
      <point x="69" y="604" type="line"/>
    </contour>
  </outline>
</glyph>
<glyph name="_125" format="2">
  <advance width="394"/>
  <unicode hex="007D"/>
  <outline>
    <contour>
      <point x="324" y="264" type="curve"/>
      <point x="324" y="237" type="line"/>
      <point x="261" y="234"/>
      <point x="238" y="203"/>
      <point x="238" y="146" type="curve" smooth="yes"/>
      <point x="238" y="8" type="line" smooth="yes"/>
      <point x="238" y="-60"/>
      <point x="205" y="-114"/>
      <point x="129" y="-114" type="curve" smooth="yes"/>
      <point x="69" y="-114" type="line"/>
      <point x="69" y="-85" type="line"/>
      <point x="99" y="-85" type="line" smooth="yes"/>
      <point x="134" y="-85"/>
      <point x="150" y="-69"/>
      <point x="157" y="-44" type="curve" smooth="yes"/>
      <point x="161" y="-31"/>
      <point x="162" y="-15"/>
      <point x="162" y="1" type="curve" smooth="yes"/>
      <point x="162" y="18"/>
      <point x="162" y="56"/>
      <point x="161" y="75" type="curve" smooth="yes"/>
      <point x="158" y="144"/>
      <point x="155" y="224"/>
      <point x="227" y="251" type="curve"/>
      <point x="155" y="275"/>
      <point x="159" y="356"/>
      <point x="161" y="424" type="curve" smooth="yes"/>
      <point x="162" y="443"/>
      <point x="162" y="480"/>
      <point x="162" y="499" type="curve" smooth="yes"/>
      <point x="162" y="516"/>
      <point x="161" y="531"/>
      <point x="157" y="544" type="curve" smooth="yes"/>
      <point x="150" y="569"/>
      <point x="134" y="585"/>
      <point x="99" y="585" type="curve" smooth="yes"/>
      <point x="69" y="585" type="line"/>
      <point x="69" y="614" type="line"/>
      <point x="129" y="614" type="line" smooth="yes"/>
      <point x="238" y="614"/>
      <point x="239" y="506"/>
      <point x="237" y="425" type="curve" smooth="yes"/>
      <point x="236" y="405"/>
      <point x="237" y="385"/>
      <point x="237" y="366" type="curve"/>
      <point x="238" y="345"/>
      <point x="239" y="328"/>
      <point x="244" y="314" type="curve" smooth="yes"/>
      <point x="255" y="285"/>
      <point x="273" y="265"/>
    </contour>
  </outline>
</glyph>
<glyph name="_126" format="2">
  <advance width="444"/>
  <unicode hex="007E"/>
  <outline>
    <contour>
      <point x="374" y="354" type="curve"/>
      <point x="426" y="354" type="line"/>
      <point x="418" y="282"/>
      <point x="396" y="196"/>
      <point x="312" y="196" type="curve" smooth="yes"/>
      <point x="265" y="196"/>
      <point x="223" y="234"/>
      <point x="189" y="263" type="curve" smooth="yes"/>
      <point x="174" y="276"/>
      <point x="152" y="292"/>
      <point x="131" y="292" type="curve" smooth="yes"/>
      <point x="81" y="292"/>
      <point x="71" y="235"/>
      <point x="68" y="186" type="curve"/>
      <point x="17" y="186" type="line"/>
      <point x="25" y="259"/>
      <point x="42" y="344"/>
      <point x="131" y="344" type="curve" smooth="yes"/>
      <point x="171" y="344"/>
      <point x="203" y="318"/>
      <point x="234" y="294" type="curve" smooth="yes"/>
      <point x="253" y="278"/>
      <point x="286" y="247"/>
      <point x="312" y="247" type="curve" smooth="yes"/>
      <point x="359" y="247"/>
      <point x="369" y="307"/>
    </contour>
  </outline>
</glyph>
<glyph name="_161" format="2">
  <advance width="273"/>
  <unicode hex="00A1"/>
  <outline>
    <contour>
      <point x="160" y="222" type="line"/>
      <point x="185" y="-168" type="line"/>
      <point x="87" y="-168" type="line"/>
      <point x="113" y="222" type="line"/>
    </contour>
    <contour>
      <point x="190" y="336" type="curve" smooth="yes"/>
      <point x="190" y="307"/>
      <point x="167" y="283"/>
      <point x="136" y="283" type="curve" smooth="yes"/>
      <point x="105" y="283"/>
      <point x="83" y="307"/>
      <point x="83" y="336" type="curve" smooth="yes"/>
      <point x="83" y="367"/>
      <point x="105" y="390"/>
      <point x="136" y="390" type="curve" smooth="yes"/>
      <point x="167" y="390"/>
      <point x="190" y="367"/>
    </contour>
  </outline>
</glyph>
<glyph name="_162" format="2">
  <advance width="410"/>
  <unicode hex="00A2"/>
  <outline>
    <contour>
      <point x="210" y="127" type="curve"/>
      <point x="210" y="431" type="line"/>
      <point x="141" y="418"/>
      <point x="128" y="338"/>
      <point x="128" y="274" type="curve" smooth="yes"/>
      <point x="128" y="207"/>
      <point x="141" y="143"/>
    </contour>
    <contour>
      <point x="364" y="451" type="curve"/>
      <point x="364" y="377" type="line"/>
      <point x="323" y="377" type="line"/>
      <point x="306" y="405" type="line"/>
      <point x="289" y="413"/>
      <point x="271" y="428"/>
      <point x="252" y="431" type="curve"/>
      <point x="252" y="122" type="line"/>
      <point x="257" y="122" type="line" smooth="yes"/>
      <point x="290" y="122"/>
      <point x="316" y="135"/>
      <point x="363" y="166" type="curve"/>
      <point x="363" y="113" type="line"/>
      <point x="334" y="90"/>
      <point x="287" y="73"/>
      <point x="252" y="70" type="curve"/>
      <point x="252" y="-4" type="line"/>
      <point x="210" y="-4" type="line"/>
      <point x="210" y="70" type="line"/>
      <point x="88" y="81"/>
      <point x="46" y="161"/>
      <point x="46" y="274" type="curve" smooth="yes"/>
      <point x="46" y="381"/>
      <point x="95" y="465"/>
      <point x="210" y="473" type="curve"/>
      <point x="210" y="542" type="line"/>
      <point x="252" y="542" type="line"/>
      <point x="252" y="474" type="line"/>
      <point x="285" y="471"/>
      <point x="328" y="458"/>
    </contour>
  </outline>
</glyph>
<glyph name="_163" format="2">
  <advance width="410"/>
  <unicode hex="00A3"/>
  <outline>
    <contour>
      <point x="390" y="67" type="line"/>
      <point x="390" y="-4" type="line"/>
      <point x="44" y="-4" type="line"/>
      <point x="44" y="49" type="line"/>
      <point x="64" y="68"/>
      <point x="86" y="84"/>
      <point x="103" y="104" type="curve" smooth="yes"/>
      <point x="119" y="124"/>
      <point x="130" y="145"/>
      <point x="130" y="172" type="curve" smooth="yes"/>
      <point x="130" y="199"/>
      <point x="121" y="223"/>
      <point x="110" y="247" type="curve"/>
      <point x="43" y="247" type="line"/>
      <point x="43" y="290" type="line"/>
      <point x="92" y="290" type="line"/>
      <point x="77" y="326"/>
      <point x="67" y="363"/>
      <point x="67" y="403" type="curve" smooth="yes"/>
      <point x="67" y="510"/>
      <point x="144" y="548"/>
      <point x="239" y="548" type="curve" smooth="yes"/>
      <point x="280" y="548"/>
      <point x="329" y="541"/>
      <point x="372" y="530" type="curve"/>
      <point x="372" y="457" type="line"/>
      <point x="327" y="457" type="line"/>
      <point x="312" y="485" type="line"/>
      <point x="289" y="498"/>
      <point x="264" y="504"/>
      <point x="239" y="504" type="curve" smooth="yes"/>
      <point x="175" y="504"/>
      <point x="153" y="463"/>
      <point x="153" y="403" type="curve" smooth="yes"/>
      <point x="153" y="366"/>
      <point x="157" y="329"/>
      <point x="164" y="290" type="curve"/>
      <point x="276" y="290" type="line"/>
      <point x="276" y="247" type="line"/>
      <point x="172" y="247" type="line"/>
      <point x="175" y="226"/>
      <point x="177" y="205"/>
      <point x="177" y="184" type="curve" smooth="yes"/>
      <point x="177" y="133"/>
      <point x="157" y="98"/>
      <point x="122" y="67" type="curve"/>
    </contour>
  </outline>
</glyph>
<glyph name="currency" format="2">
  <advance width="410"/>
  <unicode hex="00A4"/>
  <outline>
    <contour>
      <point x="318" y="271" type="curve" smooth="yes"/>
      <point x="318" y="332"/>
      <point x="266" y="384"/>
      <point x="205" y="384" type="curve" smooth="yes"/>
      <point x="144" y="384"/>
      <point x="93" y="332"/>
      <point x="93" y="271" type="curve" smooth="yes"/>
      <point x="93" y="210"/>
      <point x="144" y="158"/>
      <point x="205" y="158" type="curve" smooth="yes"/>
      <point x="266" y="158"/>
      <point x="318" y="210"/>
    </contour>
    <contour>
      <point x="335" y="176" type="curve"/>
      <point x="379" y="133" type="line"/>
      <point x="344" y="97" type="line"/>
      <point x="300" y="140" type="line"/>
      <point x="272" y="120"/>
      <point x="240" y="110"/>
      <point x="205" y="110" type="curve" smooth="yes"/>
      <point x="170" y="110"/>
      <point x="138" y="120"/>
      <point x="110" y="140" type="curve"/>
      <point x="67" y="97" type="line"/>
      <point x="31" y="133" type="line"/>
      <point x="75" y="176" type="line"/>
      <point x="54" y="204"/>
      <point x="44" y="236"/>
      <point x="44" y="271" type="curve" smooth="yes"/>
      <point x="44" y="306"/>
      <point x="54" y="337"/>
      <point x="75" y="365" type="curve"/>
      <point x="31" y="408" type="line"/>
      <point x="68" y="445" type="line"/>
      <point x="110" y="401" type="line"/>
      <point x="139" y="422"/>
      <point x="170" y="432"/>
      <point x="205" y="432" type="curve" smooth="yes"/>
      <point x="240" y="432"/>
      <point x="271" y="422"/>
      <point x="300" y="401" type="curve"/>
      <point x="344" y="445" type="line"/>
      <point x="379" y="409" type="line"/>
      <point x="335" y="365" type="line"/>
      <point x="355" y="338"/>
      <point x="367" y="306"/>
      <point x="367" y="271" type="curve" smooth="yes"/>
      <point x="367" y="236"/>
      <point x="355" y="203"/>
    </contour>
  </outline>
</glyph>
<glyph name="_165" format="2">
  <advance width="410"/>
  <unicode hex="00A5"/>
  <outline>
    <contour>
      <point x="394" y="542" type="line"/>
      <point x="394" y="502" type="line"/>
      <point x="371" y="501" type="line"/>
      <point x="269" y="261" type="line"/>
      <point x="359" y="261" type="line"/>
      <point x="359" y="218" type="line"/>
      <point x="251" y="218" type="line"/>
      <point x="248" y="210" type="line"/>
      <point x="248" y="162" type="line"/>
      <point x="359" y="162" type="line"/>
      <point x="359" y="120" type="line"/>
      <point x="248" y="120" type="line"/>
      <point x="248" y="36" type="line"/>
      <point x="287" y="25" type="line"/>
      <point x="287" y="-4" type="line"/>
      <point x="122" y="-4" type="line"/>
      <point x="122" y="25" type="line"/>
      <point x="161" y="36" type="line"/>
      <point x="161" y="120" type="line"/>
      <point x="49" y="120" type="line"/>
      <point x="49" y="162" type="line"/>
      <point x="161" y="162" type="line"/>
      <point x="161" y="208" type="line"/>
      <point x="156" y="218" type="line"/>
      <point x="49" y="218" type="line"/>
      <point x="49" y="261" type="line"/>
      <point x="139" y="261" type="line"/>
      <point x="37" y="501" type="line"/>
      <point x="6" y="502" type="line"/>
      <point x="6" y="542" type="line"/>
      <point x="167" y="542" type="line"/>
      <point x="167" y="502" type="line"/>
      <point x="137" y="502" type="line"/>
      <point x="225" y="271" type="line"/>
      <point x="317" y="502" type="line"/>
      <point x="290" y="502" type="line"/>
      <point x="290" y="542" type="line"/>
    </contour>
  </outline>
</glyph>
<glyph name="_166" format="2">
  <advance width="164"/>
  <unicode hex="00A6"/>
  <outline>
    <contour>
      <point x="108" y="77" type="line"/>
      <point x="108" y="-181" type="line"/>
      <point x="57" y="-181" type="line"/>
      <point x="57" y="77" type="line"/>
    </contour>
    <contour>
      <point x="108" y="574" type="line"/>
      <point x="108" y="316" type="line"/>
      <point x="57" y="316" type="line"/>
      <point x="57" y="574" type="line"/>
    </contour>
  </outline>
</glyph>
<glyph name="section" format="2">
  <advance width="410"/>
  <unicode hex="00A7"/>
  <outline>
    <contour>
      <point x="283" y="232" type="curve" smooth="yes"/>
      <point x="283" y="253"/>
      <point x="272" y="268"/>
      <point x="255" y="281" type="curve" smooth="yes"/>
      <point x="239" y="293"/>
      <point x="221" y="302"/>
      <point x="202" y="310" type="curve"/>
      <point x="165" y="307"/>
      <point x="130" y="286"/>
      <point x="130" y="247" type="curve" smooth="yes"/>
      <point x="130" y="212"/>
      <point x="154" y="191"/>
      <point x="182" y="177" type="curve" smooth="yes"/>
      <point x="210" y="163" type="line"/>
      <point x="250" y="168"/>
      <point x="283" y="191"/>
    </contour>
    <contour>
      <point x="354" y="249" type="curve" smooth="yes"/>
      <point x="354" y="189"/>
      <point x="312" y="150"/>
      <point x="259" y="135" type="curve"/>
      <point x="304" y="107"/>
      <point x="342" y="72"/>
      <point x="342" y="12" type="curve" smooth="yes"/>
      <point x="342" y="-78"/>
      <point x="269" y="-107"/>
      <point x="193" y="-107" type="curve" smooth="yes"/>
      <point x="159" y="-107"/>
      <point x="94" y="-100"/>
      <point x="59" y="-86" type="curve"/>
      <point x="59" y="-21" type="line"/>
      <point x="95" y="-21" type="line"/>
      <point x="112" y="-45" type="line"/>
      <point x="132" y="-62"/>
      <point x="167" y="-60"/>
      <point x="193" y="-60" type="curve" smooth="yes"/>
      <point x="236" y="-60"/>
      <point x="270" y="-48"/>
      <point x="270" y="-3" type="curve" smooth="yes"/>
      <point x="270" y="21"/>
      <point x="258" y="39"/>
      <point x="239" y="55" type="curve" smooth="yes"/>
      <point x="231" y="62"/>
      <point x="220" y="69"/>
      <point x="206" y="77" type="curve" smooth="yes"/>
      <point x="168" y="98" type="line" smooth="yes"/>
      <point x="116" y="127"/>
      <point x="60" y="159"/>
      <point x="60" y="233" type="curve" smooth="yes"/>
      <point x="60" y="288"/>
      <point x="99" y="324"/>
      <point x="146" y="337" type="curve"/>
      <point x="103" y="361"/>
      <point x="72" y="396"/>
      <point x="72" y="449" type="curve" smooth="yes"/>
      <point x="72" y="527"/>
      <point x="135" y="561"/>
      <point x="203" y="561" type="curve" smooth="yes"/>
      <point x="238" y="561"/>
      <point x="282" y="557"/>
      <point x="321" y="550" type="curve"/>
      <point x="321" y="487" type="line"/>
      <point x="283" y="487" type="line"/>
      <point x="273" y="508" type="line"/>
      <point x="256" y="521"/>
      <point x="226" y="519"/>
      <point x="203" y="519" type="curve" smooth="yes"/>
      <point x="167" y="519"/>
      <point x="142" y="502"/>
      <point x="142" y="465" type="curve" smooth="yes"/>
      <point x="142" y="442"/>
      <point x="154" y="427"/>
      <point x="173" y="412" type="curve"/>
      <point x="184" y="405"/>
      <point x="194" y="400"/>
      <point x="206" y="393" type="curve" smooth="yes"/>
      <point x="267" y="361"/>
      <point x="354" y="338"/>
    </contour>
  </outline>
</glyph>
<glyph name="_168" format="2">
  <advance width="273"/>
  <unicode hex="00A8"/>
  <outline>
    <contour>
      <point x="110" y="478" type="curve" smooth="yes"/>
      <point x="110" y="453"/>
      <point x="91" y="433"/>
      <point x="66" y="433" type="curve" smooth="yes"/>
      <point x="41" y="433"/>
      <point x="20" y="453"/>
      <point x="20" y="478" type="curve" smooth="yes"/>
      <point x="20" y="503"/>
      <point x="41" y="523"/>
      <point x="66" y="523" type="curve" smooth="yes"/>
      <point x="91" y="523"/>
      <point x="110" y="503"/>
    </contour>
    <contour>
      <point x="252" y="478" type="curve" smooth="yes"/>
      <point x="252" y="453"/>
      <point x="235" y="433"/>
      <point x="208" y="433" type="curve" smooth="yes"/>
      <point x="184" y="433"/>
      <point x="163" y="454"/>
      <point x="163" y="478" type="curve" smooth="yes"/>
      <point x="163" y="503"/>
      <point x="183" y="523"/>
      <point x="208" y="523" type="curve" smooth="yes"/>
      <point x="235" y="523"/>
      <point x="252" y="503"/>
    </contour>
  </outline>
</glyph>
<glyph name="copyright" format="2">
  <advance width="623"/>
  <unicode hex="00A9"/>
  <outline>
    <contour>
      <point x="394" y="184" type="line"/>
      <point x="438" y="184" type="line"/>
      <point x="436" y="125" type="line"/>
      <point x="397" y="113"/>
      <point x="357" y="92"/>
      <point x="318" y="92" type="curve" smooth="yes"/>
      <point x="213" y="92"/>
      <point x="147" y="158"/>
      <point x="147" y="266" type="curve" smooth="yes"/>
      <point x="147" y="379"/>
      <point x="204" y="439"/>
      <point x="319" y="439" type="curve" smooth="yes"/>
      <point x="356" y="439"/>
      <point x="392" y="425"/>
      <point x="431" y="417" type="curve"/>
      <point x="433" y="353" type="line"/>
      <point x="389" y="353" type="line"/>
      <point x="381" y="385" type="line"/>
      <point x="358" y="400"/>
      <point x="348" y="405"/>
      <point x="321" y="405" type="curve" smooth="yes"/>
      <point x="233" y="405"/>
      <point x="216" y="347"/>
      <point x="216" y="267" type="curve" smooth="yes"/>
      <point x="216" y="192"/>
      <point x="238" y="132"/>
      <point x="318" y="132" type="curve" smooth="yes"/>
      <point x="345" y="132"/>
      <point x="370" y="140"/>
      <point x="391" y="157" type="curve"/>
    </contour>
    <contour>
      <point x="556" y="268" type="curve" smooth="yes"/>
      <point x="556" y="404"/>
      <point x="445" y="512"/>
      <point x="312" y="512" type="curve" smooth="yes"/>
      <point x="176" y="512"/>
      <point x="68" y="404"/>
      <point x="68" y="268" type="curve" smooth="yes"/>
      <point x="68" y="134"/>
      <point x="176" y="25"/>
      <point x="312" y="25" type="curve" smooth="yes"/>
      <point x="445" y="25"/>
      <point x="556" y="133"/>
    </contour>
    <contour>
      <point x="594" y="268" type="curve" smooth="yes"/>
      <point x="594" y="112"/>
      <point x="467" y="-12"/>
      <point x="312" y="-12" type="curve" smooth="yes"/>
      <point x="156" y="-12"/>
      <point x="30" y="112"/>
      <point x="30" y="268" type="curve" smooth="yes"/>
      <point x="30" y="424"/>
      <point x="155" y="550"/>
      <point x="312" y="550" type="curve" smooth="yes"/>
      <point x="468" y="550"/>
      <point x="594" y="425"/>
    </contour>
  </outline>
</glyph>
<glyph name="_170" format="2">
  <advance width="226"/>
  <unicode hex="00AA"/>
  <outline>
    <contour>
      <point x="144" y="359" type="curve"/>
      <point x="144" y="421" type="line"/>
      <point x="135" y="420"/>
      <point x="126" y="421"/>
      <point x="118" y="421" type="curve" smooth="yes"/>
      <point x="108" y="421"/>
      <point x="99" y="420"/>
      <point x="91" y="418" type="curve" smooth="yes"/>
      <point x="76" y="414"/>
      <point x="67" y="404"/>
      <point x="67" y="379" type="curve" smooth="yes"/>
      <point x="67" y="355"/>
      <point x="74" y="345"/>
      <point x="97" y="345" type="curve" smooth="yes"/>
      <point x="114" y="345"/>
      <point x="128" y="351"/>
    </contour>
    <contour>
      <point x="220" y="334" type="line"/>
      <point x="220" y="310" type="line"/>
      <point x="151" y="310" type="line"/>
      <point x="147" y="330" type="line"/>
      <point x="127" y="314"/>
      <point x="98" y="305"/>
      <point x="74" y="305" type="curve" smooth="yes"/>
      <point x="27" y="305"/>
      <point x="9" y="336"/>
      <point x="9" y="377" type="curve" smooth="yes"/>
      <point x="9" y="417"/>
      <point x="32" y="435"/>
      <point x="60" y="444" type="curve" smooth="yes"/>
      <point x="87" y="452"/>
      <point x="116" y="451"/>
      <point x="144" y="452" type="curve"/>
      <point x="144" y="479" type="line" smooth="yes"/>
      <point x="144" y="503"/>
      <point x="134" y="518"/>
      <point x="110" y="518" type="curve" smooth="yes"/>
      <point x="95" y="518"/>
      <point x="81" y="515"/>
      <point x="70" y="508" type="curve"/>
      <point x="61" y="493" type="line"/>
      <point x="35" y="493" type="line"/>
      <point x="29" y="497"/>
      <point x="25" y="502"/>
      <point x="22" y="507" type="curve"/>
      <point x="18" y="516"/>
      <point x="16" y="528"/>
      <point x="35" y="541" type="curve"/>
      <point x="63" y="548"/>
      <point x="88" y="550"/>
      <point x="113" y="550" type="curve" smooth="yes"/>
      <point x="161" y="550"/>
      <point x="202" y="534"/>
      <point x="202" y="476" type="curve" smooth="yes"/>
      <point x="202" y="340" type="line"/>
    </contour>
  </outline>
</glyph>
<glyph name="guillemotleft" format="2">
  <advance width="410"/>
  <unicode hex="00AB"/>
  <outline>
    <contour>
      <point x="128" y="185" type="line"/>
      <point x="222" y="25" type="line"/>
      <point x="178" y="25" type="line"/>
      <point x="42" y="170" type="line"/>
      <point x="42" y="201" type="line"/>
      <point x="178" y="346" type="line"/>
      <point x="222" y="346" type="line"/>
    </contour>
    <contour>
      <point x="292" y="185" type="line"/>
      <point x="386" y="25" type="line"/>
      <point x="343" y="25" type="line"/>
      <point x="206" y="170" type="line"/>
      <point x="206" y="201" type="line"/>
      <point x="343" y="346" type="line"/>
      <point x="386" y="346" type="line"/>
    </contour>
  </outline>
</glyph>
<glyph name="logicalnot" format="2">
  <advance width="462"/>
  <unicode hex="00AC"/>
  <outline>
    <contour>
      <point x="427" y="298" type="line"/>
      <point x="427" y="76" type="line"/>
      <point x="376" y="76" type="line"/>
      <point x="376" y="247" type="line"/>
      <point x="36" y="247" type="line"/>
      <point x="36" y="298" type="line"/>
    </contour>
  </outline>
</glyph>
<glyph name="_173" format="2">
  <advance width="321"/>
  <unicode hex="00AD"/>
  <outline>
    <contour>
      <point x="288" y="269" type="line"/>
      <point x="288" y="198" type="line"/>
      <point x="25" y="198" type="line"/>
      <point x="25" y="269" type="line"/>
    </contour>
  </outline>
</glyph>
<glyph name="registered" format="2">
  <advance width="623"/>
  <unicode hex="00AE"/>
  <outline>
    <contour>
      <point x="368" y="338" type="curve" smooth="yes"/>
      <point x="368" y="389"/>
      <point x="342" y="397"/>
      <point x="293" y="397" type="curve" smooth="yes"/>
      <point x="272" y="397" type="line"/>
      <point x="272" y="280" type="line"/>
      <point x="294" y="280" type="line" smooth="yes"/>
      <point x="345" y="280"/>
      <point x="368" y="286"/>
    </contour>
    <contour>
      <point x="462" y="132" type="line"/>
      <point x="462" y="106" type="line"/>
      <point x="392" y="106" type="line"/>
      <point x="301" y="245" type="line"/>
      <point x="272" y="245" type="line"/>
      <point x="272" y="139" type="line"/>
      <point x="288" y="132" type="line"/>
      <point x="288" y="106" type="line"/>
      <point x="190" y="106" type="line"/>
      <point x="190" y="132" type="line"/>
      <point x="208" y="139" type="line"/>
      <point x="208" y="400" type="line"/>
      <point x="191" y="396" type="line"/>
      <point x="191" y="432" type="line"/>
      <point x="303" y="432" type="line" smooth="yes"/>
      <point x="363" y="432"/>
      <point x="435" y="414"/>
      <point x="435" y="338" type="curve" smooth="yes"/>
      <point x="435" y="291"/>
      <point x="406" y="270"/>
      <point x="366" y="255" type="curve"/>
      <point x="436" y="139" type="line"/>
    </contour>
    <contour>
      <point x="556" y="268" type="curve" smooth="yes"/>
      <point x="556" y="404"/>
      <point x="445" y="512"/>
      <point x="312" y="512" type="curve" smooth="yes"/>
      <point x="176" y="512"/>
      <point x="68" y="404"/>
      <point x="68" y="268" type="curve" smooth="yes"/>
      <point x="68" y="134"/>
      <point x="176" y="25"/>
      <point x="312" y="25" type="curve" smooth="yes"/>
      <point x="445" y="25"/>
      <point x="556" y="133"/>
    </contour>
    <contour>
      <point x="594" y="268" type="curve" smooth="yes"/>
      <point x="594" y="112"/>
      <point x="467" y="-12"/>
      <point x="312" y="-12" type="curve" smooth="yes"/>
      <point x="156" y="-12"/>
      <point x="30" y="112"/>
      <point x="30" y="268" type="curve" smooth="yes"/>
      <point x="30" y="424"/>
      <point x="155" y="550"/>
      <point x="312" y="550" type="curve" smooth="yes"/>
      <point x="468" y="550"/>
      <point x="594" y="425"/>
    </contour>
  </outline>
</glyph>
<glyph name="_175" format="2">
  <advance width="410"/>
  <unicode hex="00AF"/>
  <outline>
    <contour>
      <point x="422" y="624" type="line"/>
      <point x="422" y="576" type="line"/>
      <point x="-11" y="576" type="line"/>
      <point x="-11" y="624" type="line"/>
    </contour>
  </outline>
</glyph>
<glyph name="degree" format="2">
  <advance width="328"/>
  <unicode hex="00B0"/>
  <outline>
    <contour>
      <point x="242" y="421" type="curve" smooth="yes"/>
      <point x="242" y="465"/>
      <point x="207" y="500"/>
      <point x="163" y="500" type="curve" smooth="yes"/>
      <point x="120" y="500"/>
      <point x="85" y="464"/>
      <point x="85" y="421" type="curve" smooth="yes"/>
      <point x="85" y="377"/>
      <point x="120" y="342"/>
      <point x="163" y="342" type="curve" smooth="yes"/>
      <point x="207" y="342"/>
      <point x="242" y="377"/>
    </contour>
    <contour>
      <point x="293" y="421" type="curve" smooth="yes"/>
      <point x="293" y="349"/>
      <point x="235" y="292"/>
      <point x="163" y="292" type="curve" smooth="yes"/>
      <point x="91" y="292"/>
      <point x="34" y="349"/>
      <point x="34" y="421" type="curve" smooth="yes"/>
      <point x="34" y="493"/>
      <point x="91" y="550"/>
      <point x="163" y="550" type="curve" smooth="yes"/>
      <point x="235" y="550"/>
      <point x="293" y="493"/>
    </contour>
  </outline>
</glyph>
<glyph name="_177" format="2">
  <advance width="450"/>
  <unicode hex="00B1"/>
  <outline>
    <contour>
      <point x="421" y="46" type="line"/>
      <point x="421" y="-4" type="line"/>
      <point x="29" y="-4" type="line"/>
      <point x="29" y="46" type="line"/>
    </contour>
    <contour>
      <point x="421" y="328" type="line"/>
      <point x="421" y="277" type="line"/>
      <point x="250" y="277" type="line"/>
      <point x="250" y="106" type="line"/>
      <point x="199" y="106" type="line"/>
      <point x="199" y="277" type="line"/>
      <point x="29" y="277" type="line"/>
      <point x="29" y="328" type="line"/>
      <point x="199" y="328" type="line"/>
      <point x="199" y="498" type="line"/>
      <point x="250" y="498" type="line"/>
      <point x="250" y="328" type="line"/>
    </contour>
  </outline>
</glyph>
<glyph name="_178" format="2">
  <advance width="246"/>
  <unicode hex="00B2"/>
  <outline>
    <contour>
      <point x="232" y="262" type="line"/>
      <point x="232" y="209" type="line"/>
      <point x="22" y="209" type="line"/>
      <point x="22" y="255" type="line"/>
      <point x="41" y="272"/>
      <point x="58" y="285"/>
      <point x="74" y="300" type="curve" smooth="yes"/>
      <point x="123" y="344"/>
      <point x="158" y="385"/>
      <point x="158" y="456" type="curve" smooth="yes"/>
      <point x="158" y="491"/>
      <point x="146" y="508"/>
      <point x="111" y="508" type="curve" smooth="yes"/>
      <point x="96" y="508"/>
      <point x="82" y="504"/>
      <point x="69" y="497" type="curve"/>
      <point x="60" y="476" type="line"/>
      <point x="24" y="476" type="line"/>
      <point x="24" y="527" type="line"/>
      <point x="59" y="546"/>
      <point x="84" y="546"/>
      <point x="111" y="546" type="curve" smooth="yes"/>
      <point x="167" y="546"/>
      <point x="226" y="524"/>
      <point x="226" y="456" type="curve" smooth="yes"/>
      <point x="226" y="368"/>
      <point x="144" y="313"/>
      <point x="85" y="262" type="curve"/>
    </contour>
  </outline>
</glyph>
<glyph name="_179" format="2">
  <advance width="246"/>
  <unicode hex="00B3"/>
  <outline>
    <contour>
      <point x="235" y="302" type="curve" smooth="yes"/>
      <point x="235" y="229"/>
      <point x="174" y="204"/>
      <point x="116" y="204" type="curve" smooth="yes"/>
      <point x="85" y="204"/>
      <point x="47" y="208"/>
      <point x="15" y="216" type="curve"/>
      <point x="12" y="269" type="line"/>
      <point x="53" y="269" type="line"/>
      <point x="66" y="246" type="line"/>
      <point x="81" y="238"/>
      <point x="97" y="241"/>
      <point x="113" y="241" type="curve" smooth="yes"/>
      <point x="161" y="241"/>
      <point x="168" y="256"/>
      <point x="168" y="304" type="curve" smooth="yes"/>
      <point x="168" y="348"/>
      <point x="147" y="361"/>
      <point x="110" y="363" type="curve" smooth="yes"/>
      <point x="79" y="365" type="line"/>
      <point x="79" y="401" type="line"/>
      <point x="108" y="403" type="line" smooth="yes"/>
      <point x="118" y="404"/>
      <point x="126" y="405"/>
      <point x="133" y="408" type="curve"/>
      <point x="145" y="415"/>
      <point x="153" y="427"/>
      <point x="153" y="458" type="curve" smooth="yes"/>
      <point x="153" y="497"/>
      <point x="152" y="508"/>
      <point x="113" y="508" type="curve" smooth="yes"/>
      <point x="97" y="508"/>
      <point x="83" y="505"/>
      <point x="72" y="498" type="curve"/>
      <point x="63" y="486" type="line"/>
      <point x="22" y="486" type="line"/>
      <point x="22" y="534" type="line"/>
      <point x="51" y="541"/>
      <point x="86" y="546"/>
      <point x="113" y="546" type="curve" smooth="yes"/>
      <point x="165" y="546"/>
      <point x="221" y="528"/>
      <point x="221" y="461" type="curve" smooth="yes"/>
      <point x="221" y="421"/>
      <point x="197" y="396"/>
      <point x="164" y="384" type="curve"/>
      <point x="204" y="373"/>
      <point x="235" y="351"/>
    </contour>
  </outline>
</glyph>
<glyph name="_180" format="2">
  <advance width="273"/>
  <unicode hex="00B4"/>
  <outline>
    <contour>
      <point x="231" y="575" type="line"/>
      <point x="231" y="553" type="line"/>
      <point x="86" y="443" type="line"/>
      <point x="57" y="443" type="line"/>
      <point x="57" y="463" type="line"/>
      <point x="138" y="575" type="line"/>
    </contour>
  </outline>
</glyph>
<glyph name="_181" format="2">
  <advance width="472"/>
  <unicode hex="00B5"/>
  <outline>
    <contour>
      <point x="421" y="22" type="line"/>
      <point x="421" y="-4" type="line"/>
      <point x="340" y="-4" type="line"/>
      <point x="323" y="39" type="line"/>
      <point x="295" y="12"/>
      <point x="262" y="-12"/>
      <point x="219" y="-12" type="curve" smooth="yes"/>
      <point x="195" y="-12"/>
      <point x="171" y="-5"/>
      <point x="152" y="10" type="curve"/>
      <point x="151" y="-50"/>
      <point x="148" y="-112"/>
      <point x="137" y="-179" type="curve"/>
      <point x="57" y="-179" type="line"/>
      <point x="64" y="-139" type="line"/>
      <point x="70" y="-100" type="line" smooth="yes"/>
      <point x="74" y="-76"/>
      <point x="77" y="-46"/>
      <point x="77" y="-11" type="curve" smooth="yes"/>
      <point x="77" y="344" type="line"/>
      <point x="51" y="344" type="line"/>
      <point x="51" y="381" type="line"/>
      <point x="154" y="381" type="line"/>
      <point x="154" y="115" type="line" smooth="yes"/>
      <point x="154" y="68"/>
      <point x="185" y="43"/>
      <point x="232" y="43" type="curve" smooth="yes"/>
      <point x="261" y="43"/>
      <point x="295" y="59"/>
      <point x="320" y="76" type="curve"/>
      <point x="320" y="344" type="line"/>
      <point x="303" y="344" type="line"/>
      <point x="303" y="381" type="line"/>
      <point x="396" y="381" type="line"/>
      <point x="396" y="32" type="line"/>
    </contour>
  </outline>
</glyph>
<glyph name="uni2219" format="2">
  <advance width="272"/>
  <unicode hex="00B7"/>
  <outline>
    <contour>
      <point x="150" y="402" type="line"/>
      <point x="150" y="314" type="line"/>
      <point x="139" y="314" type="line"/>
      <point x="139" y="402" type="line"/>
    </contour>
    <contour>
      <point x="188" y="426" type="curve" smooth="yes"/>
      <point x="188" y="402"/>
      <point x="169" y="382"/>
      <point x="145" y="382" type="curve" smooth="yes"/>
      <point x="121" y="382"/>
      <point x="101" y="401"/>
      <point x="101" y="426" type="curve" smooth="yes"/>
      <point x="101" y="450"/>
      <point x="121" y="469"/>
      <point x="145" y="469" type="curve" smooth="yes"/>
      <point x="169" y="469"/>
      <point x="188" y="449"/>
    </contour>
  </outline>
</glyph>
<glyph name="_184" format="2">
  <advance width="273"/>
  <unicode hex="00B8"/>
  <outline>
    <contour>
      <point x="216" y="-93" type="curve" smooth="yes"/>
      <point x="216" y="-153"/>
      <point x="164" y="-179"/>
      <point x="113" y="-179" type="curve" smooth="yes"/>
      <point x="94" y="-179"/>
      <point x="75" y="-176"/>
      <point x="52" y="-168" type="curve"/>
      <point x="52" y="-128" type="line"/>
      <point x="72" y="-134"/>
      <point x="90" y="-137"/>
      <point x="105" y="-137" type="curve" smooth="yes"/>
      <point x="130" y="-137"/>
      <point x="146" y="-125"/>
      <point x="146" y="-100" type="curve" smooth="yes"/>
      <point x="146" y="-72"/>
      <point x="117" y="-61"/>
      <point x="84" y="-58" type="curve"/>
      <point x="103" y="12" type="line"/>
      <point x="147" y="12" type="line"/>
      <point x="140" y="-20" type="line"/>
      <point x="179" y="-27"/>
      <point x="216" y="-46"/>
    </contour>
  </outline>
</glyph>
<glyph name="_185" format="2">
  <advance width="246"/>
  <unicode hex="00B9"/>
  <outline>
    <contour>
      <point x="202" y="238" type="line"/>
      <point x="202" y="209" type="line"/>
      <point x="81" y="209" type="line"/>
      <point x="81" y="238" type="line"/>
      <point x="107" y="244" type="line"/>
      <point x="107" y="483" type="line"/>
      <point x="72" y="462" type="line"/>
      <point x="72" y="511" type="line"/>
      <point x="140" y="544" type="line"/>
      <point x="175" y="544" type="line"/>
      <point x="175" y="244" type="line"/>
    </contour>
  </outline>
</glyph>
<glyph name="_186" format="2">
  <advance width="254"/>
  <unicode hex="00BA"/>
  <outline>
    <contour>
      <point x="183" y="428" type="curve" smooth="yes"/>
      <point x="183" y="475"/>
      <point x="176" y="518"/>
      <point x="125" y="518" type="curve" smooth="yes"/>
      <point x="75" y="518"/>
      <point x="71" y="473"/>
      <point x="71" y="428" type="curve" smooth="yes"/>
      <point x="71" y="383"/>
      <point x="75" y="337"/>
      <point x="125" y="337" type="curve" smooth="yes"/>
      <point x="176" y="337"/>
      <point x="183" y="381"/>
    </contour>
    <contour>
      <point x="244" y="428" type="curve" smooth="yes"/>
      <point x="244" y="352"/>
      <point x="205" y="303"/>
      <point x="125" y="303" type="curve" smooth="yes"/>
      <point x="48" y="303"/>
      <point x="10" y="355"/>
      <point x="10" y="428" type="curve" smooth="yes"/>
      <point x="10" y="504"/>
      <point x="49" y="550"/>
      <point x="128" y="550" type="curve" smooth="yes"/>
      <point x="204" y="550"/>
      <point x="244" y="501"/>
    </contour>
  </outline>
</glyph>
<glyph name="guillemotright" format="2">
  <advance width="410"/>
  <unicode hex="00BB"/>
  <outline>
    <contour>
      <point x="204" y="201" type="line"/>
      <point x="204" y="170" type="line"/>
      <point x="67" y="25" type="line"/>
      <point x="24" y="25" type="line"/>
      <point x="118" y="185" type="line"/>
      <point x="24" y="346" type="line"/>
      <point x="67" y="346" type="line"/>
    </contour>
    <contour>
      <point x="368" y="201" type="line"/>
      <point x="368" y="170" type="line"/>
      <point x="232" y="25" type="line"/>
      <point x="188" y="25" type="line"/>
      <point x="282" y="185" type="line"/>
      <point x="188" y="346" type="line"/>
      <point x="232" y="346" type="line"/>
    </contour>
  </outline>
</glyph>
<glyph name="_191" format="2">
  <advance width="364"/>
  <unicode hex="00BF"/>
  <outline>
    <contour>
      <point x="327" y="-95" type="line"/>
      <point x="327" y="-155" type="line"/>
      <point x="284" y="-168"/>
      <point x="234" y="-174"/>
      <point x="193" y="-174" type="curve" smooth="yes"/>
      <point x="100" y="-174"/>
      <point x="29" y="-141"/>
      <point x="29" y="-33" type="curve" smooth="yes"/>
      <point x="29" y="72"/>
      <point x="85" y="112"/>
      <point x="178" y="133" type="curve"/>
      <point x="178" y="238" type="line"/>
      <point x="234" y="238" type="line"/>
      <point x="233" y="133" type="line"/>
      <point x="236" y="95" type="line"/>
      <point x="210" y="90"/>
      <point x="189" y="86"/>
      <point x="174" y="82" type="curve" smooth="yes"/>
      <point x="159" y="77"/>
      <point x="147" y="72"/>
      <point x="138" y="64" type="curve" smooth="yes"/>
      <point x="119" y="49"/>
      <point x="112" y="24"/>
      <point x="112" y="-28" type="curve" smooth="yes"/>
      <point x="112" y="-99"/>
      <point x="142" y="-131"/>
      <point x="193" y="-130" type="curve"/>
      <point x="220" y="-130"/>
      <point x="244" y="-125"/>
      <point x="267" y="-112" type="curve"/>
      <point x="281" y="-95" type="line"/>
    </contour>
    <contour>
      <point x="254" y="336" type="curve" smooth="yes"/>
      <point x="254" y="307"/>
      <point x="231" y="283"/>
      <point x="200" y="283" type="curve" smooth="yes"/>
      <point x="169" y="283"/>
      <point x="147" y="307"/>
      <point x="147" y="336" type="curve" smooth="yes"/>
      <point x="147" y="367"/>
      <point x="171" y="390"/>
      <point x="200" y="390" type="curve" smooth="yes"/>
      <point x="231" y="390"/>
      <point x="254" y="367"/>
    </contour>
  </outline>
</glyph>
<glyph name="_198" format="2">
  <advance width="729"/>
  <unicode hex="00C6"/>
  <outline>
    <contour>
      <point x="217" y="228" type="line"/>
      <point x="349" y="228" type="line"/>
      <point x="349" y="473" type="line"/>
    </contour>
    <contour>
      <point x="658" y="67" type="line"/>
      <point x="693" y="67" type="line"/>
      <point x="685" y="-4" type="line"/>
      <point x="318" y="-4" type="line"/>
      <point x="318" y="25" type="line"/>
      <point x="349" y="36" type="line"/>
      <point x="349" y="182" type="line"/>
      <point x="192" y="182" type="line"/>
      <point x="113" y="36" type="line"/>
      <point x="144" y="25" type="line"/>
      <point x="144" y="-4" type="line"/>
      <point x="23" y="-4" type="line"/>
      <point x="23" y="25" type="line"/>
      <point x="59" y="36" type="line"/>
      <point x="314" y="504" type="line"/>
      <point x="281" y="505" type="line"/>
      <point x="281" y="542" type="line"/>
      <point x="659" y="542" type="line"/>
      <point x="659" y="463" type="line"/>
      <point x="624" y="463" type="line"/>
      <point x="611" y="491" type="line"/>
      <point x="568" y="496"/>
      <point x="528" y="496"/>
      <point x="485" y="496" type="curve" smooth="yes"/>
      <point x="435" y="496" type="line"/>
      <point x="435" y="296" type="line"/>
      <point x="529" y="296" type="line"/>
      <point x="541" y="320" type="line"/>
      <point x="576" y="320" type="line"/>
      <point x="576" y="225" type="line"/>
      <point x="541" y="225" type="line"/>
      <point x="529" y="250" type="line"/>
      <point x="435" y="250" type="line"/>
      <point x="435" y="41" type="line"/>
      <point x="503" y="41" type="line" smooth="yes"/>
      <point x="547" y="41"/>
      <point x="591" y="39"/>
      <point x="635" y="47" type="curve"/>
    </contour>
  </outline>
</glyph>
<glyph name="_208" format="2">
  <advance width="592"/>
  <unicode hex="00D0"/>
  <outline>
    <contour>
      <point x="471" y="268" type="curve" smooth="yes"/>
      <point x="471" y="425"/>
      <point x="379" y="496"/>
      <point x="225" y="496" type="curve" smooth="yes"/>
      <point x="165" y="496" type="line"/>
      <point x="165" y="290" type="line"/>
      <point x="326" y="290" type="line"/>
      <point x="326" y="247" type="line"/>
      <point x="165" y="247" type="line"/>
      <point x="165" y="42" type="line"/>
      <point x="201" y="39"/>
      <point x="248" y="39"/>
      <point x="284" y="39" type="curve" smooth="yes"/>
      <point x="431" y="39"/>
      <point x="471" y="133"/>
    </contour>
    <contour>
      <point x="564" y="271" type="curve" smooth="yes"/>
      <point x="564" y="88"/>
      <point x="480" y="-6"/>
      <point x="293" y="-6" type="curve" smooth="yes"/>
      <point x="204" y="-6"/>
      <point x="144" y="-4"/>
      <point x="49" y="-4" type="curve"/>
      <point x="49" y="25" type="line"/>
      <point x="77" y="36" type="line"/>
      <point x="77" y="247" type="line"/>
      <point x="46" y="247" type="line"/>
      <point x="46" y="290" type="line"/>
      <point x="77" y="290" type="line"/>
      <point x="77" y="501" type="line"/>
      <point x="49" y="501" type="line"/>
      <point x="49" y="542" type="line"/>
      <point x="253" y="542" type="line" smooth="yes"/>
      <point x="432" y="542"/>
      <point x="564" y="468"/>
    </contour>
  </outline>
</glyph>
<glyph name="_215" format="2">
  <advance width="462"/>
  <unicode hex="00D7"/>
  <outline>
    <contour>
      <point x="370" y="447" type="line"/>
      <point x="405" y="411" type="line"/>
      <point x="268" y="273" type="line"/>
      <point x="405" y="135" type="line"/>
      <point x="370" y="99" type="line"/>
      <point x="231" y="236" type="line"/>
      <point x="93" y="99" type="line"/>
      <point x="58" y="135" type="line"/>
      <point x="196" y="273" type="line"/>
      <point x="58" y="410" type="line"/>
      <point x="95" y="447" type="line"/>
      <point x="231" y="309" type="line"/>
    </contour>
  </outline>
</glyph>
<glyph name="_216" format="2">
  <advance width="592"/>
  <unicode hex="00D8"/>
  <outline>
    <contour>
      <point x="470" y="269" type="curve" smooth="yes"/>
      <point x="470" y="318"/>
      <point x="467" y="369"/>
      <point x="448" y="414" type="curve"/>
      <point x="171" y="77" type="line"/>
      <point x="202" y="40"/>
      <point x="247" y="29"/>
      <point x="296" y="29" type="curve" smooth="yes"/>
      <point x="443" y="29"/>
      <point x="470" y="141"/>
    </contour>
    <contour>
      <point x="145" y="119" type="curve"/>
      <point x="423" y="456" type="line"/>
      <point x="392" y="495"/>
      <point x="345" y="506"/>
      <point x="296" y="506" type="curve" smooth="yes"/>
      <point x="149" y="506"/>
      <point x="122" y="397"/>
      <point x="122" y="269" type="curve" smooth="yes"/>
      <point x="122" y="218"/>
      <point x="126" y="166"/>
    </contour>
    <contour>
      <point x="510" y="562" type="line"/>
      <point x="569" y="562" type="line"/>
      <point x="497" y="475" type="line"/>
      <point x="549" y="419"/>
      <point x="564" y="342"/>
      <point x="564" y="269" type="curve" smooth="yes"/>
      <point x="564" y="93"/>
      <point x="477" y="-12"/>
      <point x="296" y="-12" type="curve" smooth="yes"/>
      <point x="239" y="-12"/>
      <point x="180" y="-2"/>
      <point x="131" y="29" type="curve"/>
      <point x="84" y="-26" type="line"/>
      <point x="24" y="-26" type="line"/>
      <point x="96" y="60" type="line"/>
      <point x="43" y="116"/>
      <point x="29" y="194"/>
      <point x="29" y="269" type="curve" smooth="yes"/>
      <point x="29" y="448"/>
      <point x="112" y="548"/>
      <point x="296" y="548" type="curve" smooth="yes"/>
      <point x="353" y="548"/>
      <point x="413" y="537"/>
      <point x="462" y="504" type="curve"/>
    </contour>
  </outline>
</glyph>
<glyph name="_222" format="2">
  <advance width="456"/>
  <unicode hex="00DE"/>
  <outline>
    <contour>
      <point x="339" y="275" type="curve" smooth="yes"/>
      <point x="339" y="364"/>
      <point x="278" y="398"/>
      <point x="189" y="398" type="curve" smooth="yes"/>
      <point x="155" y="398" type="line"/>
      <point x="155" y="144" type="line"/>
      <point x="191" y="144" type="line" smooth="yes"/>
      <point x="282" y="144"/>
      <point x="339" y="187"/>
    </contour>
    <contour>
      <point x="428" y="275" type="curve" smooth="yes"/>
      <point x="428" y="151"/>
      <point x="325" y="102"/>
      <point x="210" y="102" type="curve" smooth="yes"/>
      <point x="155" y="102" type="line"/>
      <point x="155" y="36" type="line"/>
      <point x="184" y="25" type="line"/>
      <point x="184" y="-4" type="line"/>
      <point x="34" y="-4" type="line"/>
      <point x="34" y="25" type="line"/>
      <point x="67" y="36" type="line"/>
      <point x="67" y="501" type="line"/>
      <point x="34" y="501" type="line"/>
      <point x="34" y="542" type="line"/>
      <point x="184" y="542" type="line"/>
      <point x="184" y="501" type="line"/>
      <point x="155" y="501" type="line"/>
      <point x="155" y="439" type="line"/>
      <point x="272" y="439"/>
      <point x="428" y="435"/>
    </contour>
  </outline>
</glyph>
<glyph name="_223" format="2">
  <advance width="410"/>
  <unicode hex="00DF"/>
  <outline>
    <contour>
      <point x="396" y="103" type="curve" smooth="yes"/>
      <point x="396" y="22"/>
      <point x="347" y="-12"/>
      <point x="271" y="-12" type="curve" smooth="yes"/>
      <point x="243" y="-12"/>
      <point x="200" y="-7"/>
      <point x="172" y="8" type="curve"/>
      <point x="172" y="73" type="line"/>
      <point x="199" y="73" type="line"/>
      <point x="213" y="53" type="line"/>
      <point x="228" y="37"/>
      <point x="247" y="29"/>
      <point x="270" y="29" type="curve" smooth="yes"/>
      <point x="309" y="29"/>
      <point x="325" y="51"/>
      <point x="325" y="90" type="curve" smooth="yes"/>
      <point x="325" y="127"/>
      <point x="311" y="148"/>
      <point x="284" y="171" type="curve" smooth="yes"/>
      <point x="276" y="178"/>
      <point x="268" y="183"/>
      <point x="260" y="190" type="curve" smooth="yes"/>
      <point x="225" y="217"/>
      <point x="190" y="246"/>
      <point x="190" y="314" type="curve" smooth="yes"/>
      <point x="190" y="379"/>
      <point x="231" y="412"/>
      <point x="290" y="423" type="curve"/>
      <point x="290" y="482"/>
      <point x="275" y="540"/>
      <point x="208" y="540" type="curve" smooth="yes"/>
      <point x="152" y="540"/>
      <point x="126" y="499"/>
      <point x="126" y="444" type="curve" smooth="yes"/>
      <point x="126" y="-4" type="line"/>
      <point x="13" y="-4" type="line"/>
      <point x="13" y="22" type="line"/>
      <point x="49" y="32" type="line"/>
      <point x="49" y="425" type="line" smooth="yes"/>
      <point x="49" y="525"/>
      <point x="105" y="582"/>
      <point x="208" y="582" type="curve" smooth="yes"/>
      <point x="314" y="582"/>
      <point x="357" y="520"/>
      <point x="365" y="431" type="curve"/>
      <point x="365" y="419"/>
      <point x="366" y="377"/>
      <point x="366" y="365" type="curve"/>
      <point x="330" y="364" type="line"/>
      <point x="323" y="381"/>
      <point x="318" y="384"/>
      <point x="299" y="383" type="curve" smooth="yes"/>
      <point x="280" y="382"/>
      <point x="260" y="365"/>
      <point x="260" y="328" type="curve" smooth="yes"/>
      <point x="260" y="279"/>
      <point x="293" y="259"/>
      <point x="326" y="233" type="curve" smooth="yes"/>
      <point x="360" y="205"/>
      <point x="396" y="174"/>
    </contour>
  </outline>
</glyph>
<glyph name="_230" format="2">
  <advance width="547"/>
  <unicode hex="00E6"/>
  <outline>
    <contour>
      <point x="244" y="75" type="curve"/>
      <point x="237" y="91"/>
      <point x="234" y="104"/>
      <point x="234" y="127" type="curve" smooth="yes"/>
      <point x="234" y="187" type="line"/>
      <point x="218" y="186"/>
      <point x="201" y="187"/>
      <point x="186" y="186" type="curve" smooth="yes"/>
      <point x="169" y="185"/>
      <point x="154" y="184"/>
      <point x="141" y="179" type="curve" smooth="yes"/>
      <point x="117" y="171"/>
      <point x="100" y="154"/>
      <point x="100" y="107" type="curve" smooth="yes"/>
      <point x="100" y="68"/>
      <point x="113" y="41"/>
      <point x="153" y="41" type="curve" smooth="yes"/>
      <point x="184" y="41"/>
      <point x="215" y="60"/>
    </contour>
    <contour>
      <point x="311" y="226" type="curve"/>
      <point x="445" y="226" type="line"/>
      <point x="445" y="278"/>
      <point x="438" y="349"/>
      <point x="379" y="349" type="curve" smooth="yes"/>
      <point x="315" y="349"/>
      <point x="311" y="281"/>
    </contour>
    <contour>
      <point x="525" y="184" type="curve"/>
      <point x="311" y="184" type="line"/>
      <point x="311" y="153" type="line" smooth="yes"/>
      <point x="311" y="82"/>
      <point x="327" y="39"/>
      <point x="405" y="39" type="curve" smooth="yes"/>
      <point x="437" y="39"/>
      <point x="484" y="68"/>
      <point x="510" y="89" type="curve"/>
      <point x="510" y="30" type="line"/>
      <point x="475" y="7"/>
      <point x="429" y="-12"/>
      <point x="390" y="-12" type="curve" smooth="yes"/>
      <point x="344" y="-12"/>
      <point x="292" y="-2"/>
      <point x="260" y="36" type="curve"/>
      <point x="221" y="4"/>
      <point x="176" y="-12"/>
      <point x="125" y="-12" type="curve" smooth="yes"/>
      <point x="50" y="-12"/>
      <point x="24" y="37"/>
      <point x="24" y="104" type="curve" smooth="yes"/>
      <point x="24" y="169"/>
      <point x="56" y="199"/>
      <point x="99" y="212" type="curve" smooth="yes"/>
      <point x="120" y="219"/>
      <point x="144" y="222"/>
      <point x="168" y="223" type="curve" smooth="yes"/>
      <point x="234" y="225" type="line"/>
      <point x="234" y="279" type="line" smooth="yes"/>
      <point x="234" y="319"/>
      <point x="224" y="349"/>
      <point x="181" y="349" type="curve" smooth="yes"/>
      <point x="156" y="349"/>
      <point x="133" y="343"/>
      <point x="112" y="332" type="curve"/>
      <point x="98" y="314" type="line"/>
      <point x="57" y="314" type="line"/>
      <point x="57" y="375" type="line"/>
      <point x="100" y="384"/>
      <point x="147" y="390"/>
      <point x="186" y="390" type="curve" smooth="yes"/>
      <point x="218" y="390"/>
      <point x="256" y="386"/>
      <point x="281" y="362" type="curve"/>
      <point x="309" y="385"/>
      <point x="344" y="391"/>
      <point x="379" y="391" type="curve" smooth="yes"/>
      <point x="510" y="391"/>
      <point x="525" y="293"/>
    </contour>
  </outline>
</glyph>
<glyph name="_237" format="2">
  <advance width="228"/>
  <unicode hex="00ED"/>
  <outline>
    <contour>
      <point x="225" y="575" type="line"/>
      <point x="225" y="553" type="line"/>
      <point x="80" y="443" type="line"/>
      <point x="51" y="443" type="line"/>
      <point x="51" y="463" type="line"/>
      <point x="132" y="575" type="line"/>
    </contour>
    <contour>
      <point x="187" y="22" type="line"/>
      <point x="187" y="-4" type="line"/>
      <point x="42" y="-4" type="line"/>
      <point x="42" y="22" type="line"/>
      <point x="76" y="32" type="line"/>
      <point x="76" y="344" type="line"/>
      <point x="43" y="344" type="line"/>
      <point x="43" y="381" type="line"/>
      <point x="153" y="381" type="line"/>
      <point x="153" y="32" type="line"/>
    </contour>
  </outline>
</glyph>
<glyph name="_238" format="2">
  <advance width="228"/>
  <unicode hex="00EE"/>
  <outline>
    <contour>
      <point x="250" y="463" type="line"/>
      <point x="250" y="443" type="line"/>
      <point x="221" y="443" type="line"/>
      <point x="115" y="515" type="line"/>
      <point x="9" y="443" type="line"/>
      <point x="-20" y="443" type="line"/>
      <point x="-20" y="463" type="line"/>
      <point x="70" y="576" type="line"/>
      <point x="160" y="576" type="line"/>
    </contour>
    <contour>
      <point x="187" y="22" type="line"/>
      <point x="187" y="-4" type="line"/>
      <point x="42" y="-4" type="line"/>
      <point x="42" y="22" type="line"/>
      <point x="76" y="32" type="line"/>
      <point x="76" y="344" type="line"/>
      <point x="43" y="344" type="line"/>
      <point x="43" y="381" type="line"/>
      <point x="153" y="381" type="line"/>
      <point x="153" y="32" type="line"/>
    </contour>
  </outline>
</glyph>
<glyph name="_239" format="2">
  <advance width="228"/>
  <unicode hex="00EF"/>
  <outline>
    <contour>
      <point x="83" y="478" type="curve" smooth="yes"/>
      <point x="83" y="453"/>
      <point x="64" y="433"/>
      <point x="39" y="433" type="curve" smooth="yes"/>
      <point x="14" y="433"/>
      <point x="-7" y="453"/>
      <point x="-7" y="478" type="curve" smooth="yes"/>
      <point x="-7" y="503"/>
      <point x="14" y="523"/>
      <point x="39" y="523" type="curve" smooth="yes"/>
      <point x="64" y="523"/>
      <point x="83" y="503"/>
    </contour>
    <contour>
      <point x="225" y="478" type="curve" smooth="yes"/>
      <point x="225" y="453"/>
      <point x="208" y="433"/>
      <point x="181" y="433" type="curve" smooth="yes"/>
      <point x="157" y="433"/>
      <point x="136" y="454"/>
      <point x="136" y="478" type="curve" smooth="yes"/>
      <point x="136" y="503"/>
      <point x="156" y="523"/>
      <point x="181" y="523" type="curve" smooth="yes"/>
      <point x="208" y="523"/>
      <point x="225" y="503"/>
    </contour>
    <contour>
      <point x="187" y="22" type="line"/>
      <point x="187" y="-4" type="line"/>
      <point x="42" y="-4" type="line"/>
      <point x="42" y="22" type="line"/>
      <point x="76" y="32" type="line"/>
      <point x="76" y="344" type="line"/>
      <point x="43" y="344" type="line"/>
      <point x="43" y="381" type="line"/>
      <point x="153" y="381" type="line"/>
      <point x="153" y="32" type="line"/>
    </contour>
  </outline>
</glyph>
<glyph name="_240" format="2">
  <advance width="410"/>
  <unicode hex="00F0"/>
  <outline>
    <contour>
      <point x="302" y="178" type="curve" smooth="yes"/>
      <point x="302" y="253"/>
      <point x="288" y="325"/>
      <point x="203" y="325" type="curve" smooth="yes"/>
      <point x="117" y="325"/>
      <point x="108" y="253"/>
      <point x="108" y="178" type="curve" smooth="yes"/>
      <point x="108" y="104"/>
      <point x="117" y="29"/>
      <point x="203" y="29" type="curve" smooth="yes"/>
      <point x="288" y="29"/>
      <point x="302" y="102"/>
    </contour>
    <contour>
      <point x="384" y="178" type="curve" smooth="yes"/>
      <point x="384" y="57"/>
      <point x="328" y="-12"/>
      <point x="203" y="-12" type="curve" smooth="yes"/>
      <point x="80" y="-12"/>
      <point x="26" y="62"/>
      <point x="26" y="178" type="curve" smooth="yes"/>
      <point x="26" y="297"/>
      <point x="82" y="367"/>
      <point x="206" y="367" type="curve" smooth="yes"/>
      <point x="229" y="367"/>
      <point x="253" y="363"/>
      <point x="277" y="356" type="curve"/>
      <point x="264" y="397"/>
      <point x="241" y="434"/>
      <point x="209" y="465" type="curve"/>
      <point x="87" y="394" type="line"/>
      <point x="87" y="444" type="line"/>
      <point x="174" y="494" type="line"/>
      <point x="149" y="511"/>
      <point x="121" y="524"/>
      <point x="90" y="534" type="curve"/>
      <point x="90" y="575" type="line"/>
      <point x="140" y="563"/>
      <point x="184" y="545"/>
      <point x="222" y="522" type="curve"/>
      <point x="333" y="587" type="line"/>
      <point x="333" y="538" type="line"/>
      <point x="259" y="494" type="line"/>
      <point x="352" y="414"/>
      <point x="384" y="295"/>
    </contour>
  </outline>
</glyph>
<glyph name="_247" format="2">
  <advance width="450"/>
  <unicode hex="00F7"/>
  <outline>
    <contour>
      <point x="268" y="119" type="curve" smooth="yes"/>
      <point x="268" y="95"/>
      <point x="248" y="75"/>
      <point x="225" y="75" type="curve" smooth="yes"/>
      <point x="201" y="75"/>
      <point x="181" y="95"/>
      <point x="181" y="119" type="curve" smooth="yes"/>
      <point x="181" y="143"/>
      <point x="201" y="162"/>
      <point x="225" y="162" type="curve" smooth="yes"/>
      <point x="248" y="162"/>
      <point x="268" y="143"/>
    </contour>
    <contour>
      <point x="421" y="298" type="line"/>
      <point x="421" y="247" type="line"/>
      <point x="29" y="247" type="line"/>
      <point x="29" y="298" type="line"/>
    </contour>
    <contour>
      <point x="268" y="426" type="curve" smooth="yes"/>
      <point x="268" y="402"/>
      <point x="248" y="382"/>
      <point x="225" y="382" type="curve" smooth="yes"/>
      <point x="201" y="382"/>
      <point x="181" y="401"/>
      <point x="181" y="426" type="curve" smooth="yes"/>
      <point x="181" y="450"/>
      <point x="201" y="469"/>
      <point x="225" y="469" type="curve" smooth="yes"/>
      <point x="248" y="469"/>
      <point x="268" y="449"/>
    </contour>
  </outline>
</glyph>
<glyph name="_248" format="2">
  <advance width="410"/>
  <unicode hex="00F8"/>
  <outline>
    <contour>
      <point x="302" y="190" type="curve" smooth="yes"/>
      <point x="302" y="219"/>
      <point x="300" y="248"/>
      <point x="292" y="275" type="curve"/>
      <point x="138" y="54" type="line"/>
      <point x="154" y="37"/>
      <point x="176" y="29"/>
      <point x="203" y="29" type="curve" smooth="yes"/>
      <point x="291" y="29"/>
      <point x="302" y="115"/>
    </contour>
    <contour>
      <point x="117" y="101" type="curve"/>
      <point x="271" y="321" type="line"/>
      <point x="254" y="342"/>
      <point x="230" y="349"/>
      <point x="203" y="349" type="curve" smooth="yes"/>
      <point x="115" y="349"/>
      <point x="108" y="264"/>
      <point x="108" y="190" type="curve" smooth="yes"/>
      <point x="108" y="159"/>
      <point x="110" y="130"/>
    </contour>
    <contour>
      <point x="337" y="414" type="line"/>
      <point x="391" y="414" type="line"/>
      <point x="338" y="340" type="line"/>
      <point x="374" y="299"/>
      <point x="384" y="242"/>
      <point x="384" y="190" type="curve" smooth="yes"/>
      <point x="384" y="69"/>
      <point x="334" y="-12"/>
      <point x="203" y="-12" type="curve" smooth="yes"/>
      <point x="170" y="-12"/>
      <point x="136" y="-6"/>
      <point x="107" y="9" type="curve"/>
      <point x="74" y="-38" type="line"/>
      <point x="18" y="-38" type="line"/>
      <point x="72" y="37" type="line"/>
      <point x="35" y="80"/>
      <point x="26" y="138"/>
      <point x="26" y="190" type="curve" smooth="yes"/>
      <point x="26" y="310"/>
      <point x="77" y="391"/>
      <point x="206" y="391" type="curve" smooth="yes"/>
      <point x="241" y="391"/>
      <point x="275" y="386"/>
      <point x="304" y="367" type="curve"/>
    </contour>
  </outline>
</glyph>
<glyph name="_254" format="2">
  <advance width="410"/>
  <unicode hex="00FE"/>
  <outline>
    <contour>
      <point x="298" y="193" type="curve" smooth="yes"/>
      <point x="298" y="262"/>
      <point x="286" y="339"/>
      <point x="205" y="339" type="curve" smooth="yes"/>
      <point x="181" y="339"/>
      <point x="155" y="336"/>
      <point x="132" y="328" type="curve"/>
      <point x="132" y="35" type="line"/>
      <point x="156" y="30"/>
      <point x="181" y="29"/>
      <point x="205" y="29" type="curve" smooth="yes"/>
      <point x="289" y="29"/>
      <point x="298" y="124"/>
    </contour>
    <contour>
      <point x="383" y="193" type="curve" smooth="yes"/>
      <point x="383" y="81"/>
      <point x="335" y="-12"/>
      <point x="211" y="-12" type="curve" smooth="yes"/>
      <point x="184" y="-12"/>
      <point x="157" y="-11"/>
      <point x="130" y="-4" type="curve"/>
      <point x="134" y="-51"/>
      <point x="132" y="-94"/>
      <point x="132" y="-141" type="curve"/>
      <point x="168" y="-150" type="line"/>
      <point x="168" y="-179" type="line"/>
      <point x="28" y="-179" type="line"/>
      <point x="28" y="-151" type="line"/>
      <point x="56" y="-141" type="line"/>
      <point x="56" y="537" type="line"/>
      <point x="31" y="537" type="line"/>
      <point x="31" y="574" type="line"/>
      <point x="132" y="574" type="line"/>
      <point x="132" y="434" type="line" smooth="yes"/>
      <point x="132" y="411"/>
      <point x="131" y="388"/>
      <point x="130" y="365" type="curve"/>
      <point x="158" y="384"/>
      <point x="196" y="391"/>
      <point x="227" y="391" type="curve" smooth="yes"/>
      <point x="344" y="391"/>
      <point x="383" y="293"/>
    </contour>
  </outline>
</glyph>
<glyph name="_140" format="2">
  <advance width="729"/>
  <unicode hex="0152"/>
  <outline>
    <contour>
      <point x="348" y="38" type="curve"/>
      <point x="348" y="499" type="line"/>
      <point x="333" y="502"/>
      <point x="315" y="503"/>
      <point x="296" y="503" type="curve" smooth="yes"/>
      <point x="149" y="503"/>
      <point x="122" y="398"/>
      <point x="122" y="269" type="curve" smooth="yes"/>
      <point x="122" y="140"/>
      <point x="149" y="35"/>
      <point x="296" y="35" type="curve" smooth="yes"/>
      <point x="313" y="35"/>
      <point x="331" y="36"/>
    </contour>
    <contour>
      <point x="658" y="77" type="line"/>
      <point x="693" y="77" type="line"/>
      <point x="685" y="-4" type="line"/>
      <point x="552" y="-4"/>
      <point x="425" y="-6"/>
      <point x="296" y="-6" type="curve" smooth="yes"/>
      <point x="113" y="-6"/>
      <point x="29" y="90"/>
      <point x="29" y="269" type="curve" smooth="yes"/>
      <point x="29" y="450"/>
      <point x="112" y="545"/>
      <point x="296" y="545" type="curve" smooth="yes"/>
      <point x="332" y="545"/>
      <point x="369" y="542"/>
      <point x="405" y="542" type="curve" smooth="yes"/>
      <point x="659" y="542" type="line"/>
      <point x="659" y="463" type="line"/>
      <point x="624" y="463" type="line"/>
      <point x="611" y="491" type="line"/>
      <point x="552" y="498"/>
      <point x="494" y="496"/>
      <point x="435" y="496" type="curve"/>
      <point x="435" y="296" type="line"/>
      <point x="529" y="296" type="line"/>
      <point x="541" y="330" type="line"/>
      <point x="576" y="330" type="line"/>
      <point x="576" y="215" type="line"/>
      <point x="541" y="215" type="line"/>
      <point x="529" y="250" type="line"/>
      <point x="435" y="250" type="line"/>
      <point x="435" y="41" type="line"/>
      <point x="503" y="41" type="line"/>
      <point x="571" y="41" type="line" smooth="yes"/>
      <point x="594" y="41"/>
      <point x="614" y="43"/>
      <point x="635" y="47" type="curve"/>
    </contour>
  </outline>
</glyph>
<glyph name="_156" format="2">
  <advance width="592"/>
  <unicode hex="0153"/>
  <outline>
    <contour>
      <point x="269" y="201" type="curve" smooth="yes"/>
      <point x="269" y="264"/>
      <point x="262" y="349"/>
      <point x="186" y="349" type="curve" smooth="yes"/>
      <point x="110" y="349"/>
      <point x="108" y="252"/>
      <point x="108" y="190" type="curve" smooth="yes"/>
      <point x="108" y="129"/>
      <point x="110" y="29"/>
      <point x="186" y="29" type="curve" smooth="yes"/>
      <point x="227" y="29"/>
      <point x="247" y="55"/>
      <point x="258" y="90" type="curve" smooth="yes"/>
      <point x="269" y="125"/>
      <point x="269" y="165"/>
    </contour>
    <contour>
      <point x="352" y="226" type="curve"/>
      <point x="489" y="226" type="line"/>
      <point x="489" y="273"/>
      <point x="486" y="349"/>
      <point x="426" y="349" type="curve" smooth="yes"/>
      <point x="365" y="349"/>
      <point x="352" y="280"/>
    </contour>
    <contour>
      <point x="568" y="184" type="curve"/>
      <point x="351" y="184" type="line"/>
      <point x="351" y="182" type="line"/>
      <point x="351" y="105"/>
      <point x="367" y="39"/>
      <point x="455" y="39" type="curve" smooth="yes"/>
      <point x="486" y="39"/>
      <point x="532" y="62"/>
      <point x="564" y="82" type="curve"/>
      <point x="564" y="30" type="line"/>
      <point x="530" y="7"/>
      <point x="472" y="-12"/>
      <point x="434" y="-12" type="curve" smooth="yes"/>
      <point x="387" y="-12"/>
      <point x="340" y="-1"/>
      <point x="308" y="36" type="curve"/>
      <point x="277" y="0"/>
      <point x="233" y="-12"/>
      <point x="186" y="-12" type="curve" smooth="yes"/>
      <point x="62" y="-12"/>
      <point x="26" y="86"/>
      <point x="26" y="190" type="curve" smooth="yes"/>
      <point x="26" y="298"/>
      <point x="64" y="391"/>
      <point x="189" y="391" type="curve" smooth="yes"/>
      <point x="236" y="391"/>
      <point x="278" y="377"/>
      <point x="309" y="340" type="curve"/>
      <point x="338" y="377"/>
      <point x="379" y="391"/>
      <point x="426" y="391" type="curve" smooth="yes"/>
      <point x="556" y="391"/>
      <point x="568" y="291"/>
    </contour>
  </outline>
</glyph>
<glyph name="_138" format="2">
  <advance width="456"/>
  <unicode hex="0160"/>
  <outline>
    <contour>
      <point x="429" y="155" type="curve" smooth="yes"/>
      <point x="429" y="37"/>
      <point x="338" y="-12"/>
      <point x="229" y="-12" type="curve" smooth="yes"/>
      <point x="176" y="-12"/>
      <point x="103" y="-3"/>
      <point x="50" y="17" type="curve"/>
      <point x="50" y="100" type="line"/>
      <point x="85" y="100" type="line"/>
      <point x="100" y="74" type="line"/>
      <point x="123" y="45"/>
      <point x="191" y="29"/>
      <point x="227" y="29" type="curve" smooth="yes"/>
      <point x="294" y="29"/>
      <point x="351" y="63"/>
      <point x="351" y="132" type="curve" smooth="yes"/>
      <point x="351" y="168"/>
      <point x="326" y="191"/>
      <point x="299" y="207" type="curve"/>
      <point x="288" y="215"/>
      <point x="274" y="221"/>
      <point x="255" y="229" type="curve" smooth="yes"/>
      <point x="239" y="235"/>
      <point x="221" y="241"/>
      <point x="204" y="247" type="curve" smooth="yes"/>
      <point x="132" y="272"/>
      <point x="49" y="303"/>
      <point x="49" y="406" type="curve" smooth="yes"/>
      <point x="49" y="514"/>
      <point x="156" y="548"/>
      <point x="245" y="548" type="curve" smooth="yes"/>
      <point x="293" y="548"/>
      <point x="350" y="541"/>
      <point x="401" y="530" type="curve"/>
      <point x="401" y="484" type="line"/>
      <point x="401" y="449" type="line"/>
      <point x="366" y="449" type="line"/>
      <point x="352" y="477" type="line"/>
      <point x="324" y="496"/>
      <point x="280" y="504"/>
      <point x="245" y="504" type="curve" smooth="yes"/>
      <point x="192" y="504"/>
      <point x="126" y="485"/>
      <point x="126" y="427" type="curve" smooth="yes"/>
      <point x="126" y="395"/>
      <point x="153" y="374"/>
      <point x="178" y="359" type="curve" smooth="yes"/>
      <point x="191" y="351"/>
      <point x="206" y="345"/>
      <point x="223" y="338" type="curve" smooth="yes"/>
      <point x="239" y="331"/>
      <point x="257" y="326"/>
      <point x="274" y="320" type="curve" smooth="yes"/>
      <point x="346" y="295"/>
      <point x="429" y="259"/>
    </contour>
    <contour>
      <point x="378" y="745" type="line"/>
      <point x="378" y="725" type="line"/>
      <point x="289" y="613" type="line"/>
      <point x="198" y="613" type="line"/>
      <point x="109" y="725" type="line"/>
      <point x="109" y="745" type="line"/>
      <point x="138" y="745" type="line"/>
      <point x="243" y="673" type="line"/>
      <point x="349" y="745" type="line"/>
    </contour>
  </outline>
</glyph>
<glyph name="_131" format="2">
  <advance width="410"/>
  <unicode hex="0192"/>
  <outline>
    <contour>
      <point x="363" y="541" type="curve"/>
      <point x="363" y="460" type="line"/>
      <point x="335" y="460" type="line"/>
      <point x="321" y="500" type="line"/>
      <point x="314" y="505"/>
      <point x="304" y="508"/>
      <point x="291" y="508" type="curve" smooth="yes"/>
      <point x="267" y="508"/>
      <point x="254" y="493"/>
      <point x="246" y="470" type="curve" smooth="yes"/>
      <point x="237" y="447"/>
      <point x="235" y="423"/>
      <point x="232" y="400" type="curve" smooth="yes"/>
      <point x="221" y="320" type="line"/>
      <point x="306" y="320" type="line"/>
      <point x="298" y="276" type="line"/>
      <point x="214" y="276" type="line"/>
      <point x="174" y="0" type="line" smooth="yes"/>
      <point x="173" y="-7"/>
      <point x="172" y="-15"/>
      <point x="170" y="-22" type="curve" smooth="yes"/>
      <point x="167" y="-35"/>
      <point x="164" y="-50"/>
      <point x="157" y="-65" type="curve" smooth="yes"/>
      <point x="145" y="-92"/>
      <point x="120" y="-119"/>
      <point x="85" y="-119" type="curve" smooth="yes"/>
      <point x="57" y="-119"/>
      <point x="27" y="-112"/>
      <point x="24" y="-84" type="curve"/>
      <point x="24" y="-67"/>
      <point x="27" y="-39"/>
      <point x="45" y="-45" type="curve" smooth="yes"/>
      <point x="56" y="-48"/>
      <point x="52" y="-63"/>
      <point x="61" y="-70" type="curve" smooth="yes"/>
      <point x="74" y="-79"/>
      <point x="83" y="-62"/>
      <point x="90" y="-42" type="curve"/>
      <point x="99" y="0" type="line"/>
      <point x="137" y="276" type="line"/>
      <point x="72" y="276" type="line"/>
      <point x="77" y="318" type="line"/>
      <point x="143" y="319" type="line"/>
      <point x="146" y="342"/>
      <point x="149" y="367"/>
      <point x="153" y="392" type="curve" smooth="yes"/>
      <point x="157" y="419"/>
      <point x="162" y="444"/>
      <point x="173" y="468" type="curve" smooth="yes"/>
      <point x="193" y="515"/>
      <point x="228" y="550"/>
      <point x="296" y="550" type="curve" smooth="yes"/>
      <point x="317" y="550"/>
      <point x="338" y="549"/>
    </contour>
  </outline>
</glyph>
<glyph name="_136" format="2">
  <advance width="273"/>
  <unicode hex="02C6"/>
  <outline>
    <contour>
      <point x="272" y="463" type="line"/>
      <point x="272" y="443" type="line"/>
      <point x="243" y="443" type="line"/>
      <point x="137" y="515" type="line"/>
      <point x="31" y="443" type="line"/>
      <point x="2" y="443" type="line"/>
      <point x="2" y="463" type="line"/>
      <point x="92" y="576" type="line"/>
      <point x="182" y="576" type="line"/>
    </contour>
  </outline>
</glyph>
<glyph name="uni02CD" format="2">
  <advance width="432"/>
  <unicode hex="02CD"/>
  <outline>
    <contour>
      <point x="73" y="0" type="line"/>
      <point x="73" y="78" type="line"/>
      <point x="388" y="78" type="line"/>
      <point x="388" y="0" type="line"/>
    </contour>
  </outline>
</glyph>
<glyph name="_152" format="2">
  <advance width="273"/>
  <unicode hex="02DC"/>
  <outline>
    <contour>
      <point x="241" y="549" type="curve"/>
      <point x="272" y="549" type="line"/>
      <point x="269" y="494"/>
      <point x="250" y="443"/>
      <point x="189" y="443" type="curve" smooth="yes"/>
      <point x="161" y="443"/>
      <point x="139" y="458"/>
      <point x="120" y="471" type="curve" smooth="yes"/>
      <point x="109" y="478"/>
      <point x="101" y="485"/>
      <point x="92" y="490" type="curve" smooth="yes"/>
      <point x="83" y="495"/>
      <point x="75" y="498"/>
      <point x="68" y="498" type="curve" smooth="yes"/>
      <point x="41" y="498"/>
      <point x="36" y="482"/>
      <point x="32" y="451" type="curve"/>
      <point x="2" y="451" type="line"/>
      <point x="5" y="506"/>
      <point x="24" y="558"/>
      <point x="85" y="558" type="curve" smooth="yes"/>
      <point x="112" y="558"/>
      <point x="135" y="544"/>
      <point x="154" y="529" type="curve"/>
      <point x="165" y="522"/>
      <point x="173" y="515"/>
      <point x="182" y="510" type="curve" smooth="yes"/>
      <point x="191" y="505"/>
      <point x="199" y="502"/>
      <point x="206" y="502" type="curve" smooth="yes"/>
      <point x="231" y="502"/>
      <point x="238" y="520"/>
    </contour>
  </outline>
</glyph>
<glyph name="_150" format="2">
  <advance width="410"/>
  <unicode hex="2013"/>
  <outline>
    <contour>
      <point x="421" y="216" type="line"/>
      <point x="421" y="166" type="line"/>
      <point x="-10" y="166" type="line"/>
      <point x="-10" y="216" type="line"/>
    </contour>
  </outline>
</glyph>
<glyph name="_151" format="2">
  <advance width="820"/>
  <unicode hex="2014"/>
  <outline>
    <contour>
      <point x="831" y="216" type="line"/>
      <point x="831" y="166" type="line"/>
      <point x="-10" y="166" type="line"/>
      <point x="-10" y="216" type="line"/>
    </contour>
  </outline>
</glyph>
<glyph name="_130" format="2">
  <advance width="273"/>
  <unicode hex="201A"/>
  <outline>
    <contour>
      <point x="198" y="20" type="curve" smooth="yes"/>
      <point x="198" y="-60"/>
      <point x="146" y="-109"/>
      <point x="66" y="-132" type="curve"/>
      <point x="66" y="-91" type="line"/>
      <point x="102" y="-79"/>
      <point x="137" y="-62"/>
      <point x="137" y="-27" type="curve" smooth="yes"/>
      <point x="137" y="-18"/>
      <point x="129" y="-13"/>
      <point x="122" y="-8" type="curve"/>
      <point x="119" y="-7"/>
      <point x="116" y="-6"/>
      <point x="112" y="-3" type="curve"/>
      <point x="97" y="4"/>
      <point x="83" y="15"/>
      <point x="83" y="40" type="curve" smooth="yes"/>
      <point x="83" y="73"/>
      <point x="105" y="89"/>
      <point x="136" y="89" type="curve" smooth="yes"/>
      <point x="177" y="89"/>
      <point x="198" y="56"/>
    </contour>
  </outline>
</glyph>
<glyph name="quotedblleft" format="2">
  <advance width="364"/>
  <unicode hex="201C"/>
  <outline>
    <contour>
      <point x="166" y="583" type="curve"/>
      <point x="166" y="541" type="line"/>
      <point x="131" y="530"/>
      <point x="96" y="513"/>
      <point x="96" y="478" type="curve" smooth="yes"/>
      <point x="96" y="473"/>
      <point x="98" y="469"/>
      <point x="103" y="465" type="curve" smooth="yes"/>
      <point x="108" y="461"/>
      <point x="115" y="457"/>
      <point x="120" y="454" type="curve" smooth="yes"/>
      <point x="135" y="446"/>
      <point x="150" y="435"/>
      <point x="150" y="410" type="curve" smooth="yes"/>
      <point x="150" y="377"/>
      <point x="126" y="361"/>
      <point x="97" y="361" type="curve" smooth="yes"/>
      <point x="57" y="361"/>
      <point x="34" y="394"/>
      <point x="34" y="430" type="curve" smooth="yes"/>
      <point x="34" y="511"/>
      <point x="86" y="559"/>
    </contour>
    <contour>
      <point x="335" y="583" type="curve"/>
      <point x="335" y="541" type="line"/>
      <point x="299" y="530"/>
      <point x="264" y="513"/>
      <point x="264" y="478" type="curve" smooth="yes"/>
      <point x="264" y="473"/>
      <point x="266" y="469"/>
      <point x="271" y="465" type="curve"/>
      <point x="289" y="454" type="line" smooth="yes"/>
      <point x="302" y="446"/>
      <point x="318" y="435"/>
      <point x="318" y="410" type="curve" smooth="yes"/>
      <point x="318" y="377"/>
      <point x="294" y="361"/>
      <point x="265" y="361" type="curve" smooth="yes"/>
      <point x="225" y="361"/>
      <point x="202" y="394"/>
      <point x="202" y="430" type="curve" smooth="yes"/>
      <point x="202" y="511"/>
      <point x="255" y="559"/>
    </contour>
  </outline>
</glyph>
<glyph name="_132" format="2">
  <advance width="364"/>
  <unicode hex="201E"/>
  <outline>
    <contour>
      <point x="162" y="20" type="curve" smooth="yes"/>
      <point x="162" y="-60"/>
      <point x="109" y="-109"/>
      <point x="29" y="-132" type="curve"/>
      <point x="29" y="-91" type="line"/>
      <point x="65" y="-79"/>
      <point x="100" y="-62"/>
      <point x="100" y="-27" type="curve" smooth="yes"/>
      <point x="100" y="-18"/>
      <point x="92" y="-13"/>
      <point x="85" y="-8" type="curve"/>
      <point x="82" y="-7"/>
      <point x="79" y="-6"/>
      <point x="75" y="-3" type="curve"/>
      <point x="62" y="4"/>
      <point x="46" y="15"/>
      <point x="46" y="40" type="curve" smooth="yes"/>
      <point x="46" y="73"/>
      <point x="70" y="89"/>
      <point x="99" y="89" type="curve" smooth="yes"/>
      <point x="140" y="89"/>
      <point x="162" y="56"/>
    </contour>
    <contour>
      <point x="330" y="20" type="curve" smooth="yes"/>
      <point x="330" y="-60"/>
      <point x="278" y="-109"/>
      <point x="198" y="-132" type="curve"/>
      <point x="198" y="-91" type="line"/>
      <point x="233" y="-79"/>
      <point x="268" y="-62"/>
      <point x="268" y="-27" type="curve" smooth="yes"/>
      <point x="268" y="-18"/>
      <point x="261" y="-13"/>
      <point x="253" y="-8" type="curve"/>
      <point x="251" y="-7"/>
      <point x="248" y="-6"/>
      <point x="244" y="-3" type="curve"/>
      <point x="229" y="4"/>
      <point x="214" y="15"/>
      <point x="214" y="40" type="curve" smooth="yes"/>
      <point x="214" y="73"/>
      <point x="238" y="89"/>
      <point x="267" y="89" type="curve" smooth="yes"/>
      <point x="308" y="89"/>
      <point x="330" y="56"/>
    </contour>
  </outline>
</glyph>
<glyph name="_134" format="2">
  <advance width="410"/>
  <unicode hex="2020"/>
  <outline>
    <contour>
      <point x="390" y="426" type="line"/>
      <point x="390" y="352" type="line"/>
      <point x="226" y="370" type="line"/>
      <point x="250" y="313" type="line"/>
      <point x="219" y="-100" type="line"/>
      <point x="191" y="-100" type="line"/>
      <point x="161" y="313" type="line"/>
      <point x="184" y="370" type="line"/>
      <point x="20" y="352" type="line"/>
      <point x="20" y="426" type="line"/>
      <point x="186" y="408" type="line"/>
      <point x="169" y="574" type="line"/>
      <point x="243" y="574" type="line"/>
      <point x="224" y="408" type="line"/>
    </contour>
  </outline>
</glyph>
<glyph name="_135" format="2">
  <advance width="410"/>
  <unicode hex="2021"/>
  <outline>
    <contour>
      <point x="390" y="121" type="line"/>
      <point x="390" y="48" type="line"/>
      <point x="224" y="65" type="line"/>
      <point x="243" y="-100" type="line"/>
      <point x="169" y="-100" type="line"/>
      <point x="186" y="65" type="line"/>
      <point x="20" y="48" type="line"/>
      <point x="20" y="121" type="line"/>
      <point x="184" y="103" type="line"/>
      <point x="161" y="161" type="line"/>
      <point x="190" y="236" type="line"/>
      <point x="161" y="312" type="line"/>
      <point x="184" y="370" type="line"/>
      <point x="20" y="352" type="line"/>
      <point x="20" y="426" type="line"/>
      <point x="186" y="408" type="line"/>
      <point x="169" y="574" type="line"/>
      <point x="243" y="574" type="line"/>
      <point x="224" y="408" type="line"/>
      <point x="390" y="426" type="line"/>
      <point x="390" y="352" type="line"/>
      <point x="226" y="370" type="line"/>
      <point x="250" y="312" type="line"/>
      <point x="220" y="236" type="line"/>
      <point x="250" y="161" type="line"/>
      <point x="226" y="103" type="line"/>
    </contour>
  </outline>
</glyph>
<glyph name="_133" format="2">
  <advance width="820"/>
  <unicode hex="2026"/>
  <outline>
    <contour>
      <point x="189" y="37" type="curve" smooth="yes"/>
      <point x="189" y="6"/>
      <point x="166" y="-16"/>
      <point x="135" y="-16" type="curve" smooth="yes"/>
      <point x="106" y="-16"/>
      <point x="82" y="6"/>
      <point x="82" y="37" type="curve" smooth="yes"/>
      <point x="82" y="68"/>
      <point x="106" y="90"/>
      <point x="135" y="90" type="curve" smooth="yes"/>
      <point x="166" y="90"/>
      <point x="189" y="68"/>
    </contour>
    <contour>
      <point x="463" y="37" type="curve" smooth="yes"/>
      <point x="463" y="6"/>
      <point x="441" y="-16"/>
      <point x="410" y="-16" type="curve" smooth="yes"/>
      <point x="379" y="-16"/>
      <point x="357" y="6"/>
      <point x="357" y="37" type="curve" smooth="yes"/>
      <point x="357" y="68"/>
      <point x="379" y="90"/>
      <point x="410" y="90" type="curve" smooth="yes"/>
      <point x="441" y="90"/>
      <point x="463" y="68"/>
    </contour>
    <contour>
      <point x="738" y="37" type="curve" smooth="yes"/>
      <point x="738" y="6"/>
      <point x="714" y="-16"/>
      <point x="685" y="-16" type="curve" smooth="yes"/>
      <point x="654" y="-16"/>
      <point x="631" y="6"/>
      <point x="631" y="37" type="curve" smooth="yes"/>
      <point x="631" y="68"/>
      <point x="654" y="90"/>
      <point x="685" y="90" type="curve" smooth="yes"/>
      <point x="714" y="90"/>
      <point x="738" y="68"/>
    </contour>
  </outline>
</glyph>
<glyph name="_137" format="2">
  <advance width="820"/>
  <unicode hex="2030"/>
  <outline>
    <contour>
      <point x="462" y="130" type="curve" smooth="yes"/>
      <point x="462" y="175"/>
      <point x="458" y="234"/>
      <point x="406" y="234" type="curve" smooth="yes"/>
      <point x="346" y="234"/>
      <point x="345" y="182"/>
      <point x="345" y="130" type="curve" smooth="yes"/>
      <point x="345" y="79"/>
      <point x="348" y="23"/>
      <point x="406" y="23" type="curve" smooth="yes"/>
      <point x="461" y="23"/>
      <point x="462" y="89"/>
    </contour>
    <contour>
      <point x="203" y="407" type="curve" smooth="yes"/>
      <point x="203" y="452"/>
      <point x="199" y="511"/>
      <point x="147" y="511" type="curve" smooth="yes"/>
      <point x="88" y="511"/>
      <point x="85" y="459"/>
      <point x="85" y="407" type="curve" smooth="yes"/>
      <point x="85" y="356"/>
      <point x="88" y="300"/>
      <point x="147" y="300" type="curve" smooth="yes"/>
      <point x="202" y="300"/>
      <point x="203" y="366"/>
    </contour>
    <contour>
      <point x="734" y="130" type="curve" smooth="yes"/>
      <point x="734" y="175"/>
      <point x="730" y="234"/>
      <point x="677" y="234" type="curve" smooth="yes"/>
      <point x="619" y="234"/>
      <point x="616" y="182"/>
      <point x="616" y="130" type="curve" smooth="yes"/>
      <point x="616" y="79"/>
      <point x="619" y="23"/>
      <point x="677" y="23" type="curve" smooth="yes"/>
      <point x="733" y="23"/>
      <point x="734" y="89"/>
    </contour>
    <contour>
      <point x="535" y="130" type="curve" smooth="yes"/>
      <point x="535" y="43"/>
      <point x="502" y="-16"/>
      <point x="406" y="-16" type="curve" smooth="yes"/>
      <point x="310" y="-16"/>
      <point x="272" y="41"/>
      <point x="272" y="130" type="curve" smooth="yes"/>
      <point x="272" y="222"/>
      <point x="312" y="273"/>
      <point x="408" y="273" type="curve" smooth="yes"/>
      <point x="501" y="273"/>
      <point x="535" y="215"/>
    </contour>
    <contour>
      <point x="439" y="550" type="line"/>
      <point x="496" y="550" type="line"/>
      <point x="109" y="-12" type="line"/>
      <point x="53" y="-12" type="line"/>
    </contour>
    <contour>
      <point x="276" y="407" type="curve" smooth="yes"/>
      <point x="276" y="320"/>
      <point x="243" y="261"/>
      <point x="147" y="261" type="curve" smooth="yes"/>
      <point x="51" y="261"/>
      <point x="13" y="318"/>
      <point x="13" y="407" type="curve" smooth="yes"/>
      <point x="13" y="499"/>
      <point x="53" y="550"/>
      <point x="149" y="550" type="curve" smooth="yes"/>
      <point x="241" y="550"/>
      <point x="276" y="492"/>
    </contour>
    <contour>
      <point x="806" y="130" type="curve" smooth="yes"/>
      <point x="806" y="43"/>
      <point x="773" y="-16"/>
      <point x="677" y="-16" type="curve" smooth="yes"/>
      <point x="582" y="-16"/>
      <point x="544" y="41"/>
      <point x="544" y="130" type="curve" smooth="yes"/>
      <point x="544" y="222"/>
      <point x="584" y="273"/>
      <point x="680" y="273" type="curve" smooth="yes"/>
      <point x="773" y="273"/>
      <point x="806" y="215"/>
    </contour>
  </outline>
</glyph>
<glyph name="_139" format="2">
  <advance width="273"/>
  <unicode hex="2039"/>
  <outline>
    <contour>
      <point x="134" y="185" type="line"/>
      <point x="229" y="25" type="line"/>
      <point x="185" y="25" type="line"/>
      <point x="48" y="170" type="line"/>
      <point x="48" y="201" type="line"/>
      <point x="185" y="346" type="line"/>
      <point x="229" y="346" type="line"/>
    </contour>
  </outline>
</glyph>
<glyph name="_155" format="2">
  <advance width="273"/>
  <unicode hex="203A"/>
  <outline>
    <contour>
      <point x="225" y="201" type="line"/>
      <point x="225" y="170" type="line"/>
      <point x="88" y="25" type="line"/>
      <point x="45" y="25" type="line"/>
      <point x="139" y="185" type="line"/>
      <point x="45" y="346" type="line"/>
      <point x="88" y="346" type="line"/>
    </contour>
  </outline>
</glyph>
<glyph name="_128" format="2">
  <advance width="410"/>
  <unicode hex="20AC"/>
  <outline>
    <contour>
      <point x="366" y="92" type="line"/>
      <point x="403" y="92" type="line"/>
      <point x="401" y="14" type="line"/>
      <point x="352" y="-3"/>
      <point x="304" y="-12"/>
      <point x="257" y="-12" type="curve" smooth="yes"/>
      <point x="128" y="-12"/>
      <point x="69" y="82"/>
      <point x="53" y="196" type="curve"/>
      <point x="7" y="196" type="line"/>
      <point x="7" y="239" type="line"/>
      <point x="49" y="239" type="line"/>
      <point x="48" y="257"/>
      <point x="48" y="275"/>
      <point x="49" y="294" type="curve"/>
      <point x="7" y="294" type="line"/>
      <point x="7" y="337" type="line"/>
      <point x="53" y="337" type="line"/>
      <point x="66" y="457"/>
      <point x="125" y="548"/>
      <point x="257" y="548" type="curve" smooth="yes"/>
      <point x="304" y="548"/>
      <point x="346" y="541"/>
      <point x="393" y="526" type="curve"/>
      <point x="395" y="447" type="line"/>
      <point x="358" y="447" type="line"/>
      <point x="350" y="472" type="line"/>
      <point x="327" y="493"/>
      <point x="296" y="506"/>
      <point x="265" y="506" type="curve" smooth="yes"/>
      <point x="173" y="506"/>
      <point x="154" y="416"/>
      <point x="146" y="337" type="curve"/>
      <point x="285" y="337" type="line"/>
      <point x="285" y="294" type="line"/>
      <point x="143" y="294" type="line"/>
      <point x="142" y="283"/>
      <point x="143" y="274"/>
      <point x="143" y="263" type="curve" smooth="yes"/>
      <point x="143" y="255"/>
      <point x="142" y="247"/>
      <point x="143" y="239" type="curve"/>
      <point x="285" y="239" type="line"/>
      <point x="285" y="196" type="line"/>
      <point x="146" y="196" type="line"/>
      <point x="154" y="122"/>
      <point x="178" y="28"/>
      <point x="263" y="28" type="curve" smooth="yes"/>
      <point x="298" y="28"/>
      <point x="333" y="40"/>
      <point x="356" y="65" type="curve"/>
    </contour>
  </outline>
</glyph>
